G04 MADE WITH FRITZING*
G04 WWW.FRITZING.ORG*
G04 DOUBLE SIDED*
G04 HOLES PLATED*
G04 CONTOUR ON CENTER OF CONTOUR VECTOR*
%ASAXBY*%
%FSLAX23Y23*%
%MOIN*%
%OFA0B0*%
%SFA1.0B1.0*%
%ADD10C,0.062992*%
%ADD11C,0.078000*%
%ADD12C,0.070000*%
%ADD13C,0.080000*%
%ADD14C,0.075000*%
%ADD15R,0.062992X0.062992*%
%ADD16R,0.062992X0.074803*%
%ADD17R,0.069972X0.070000*%
%ADD18R,0.079986X0.080000*%
%ADD19C,0.024000*%
%LNCOPPER0*%
G90*
G70*
G54D10*
X558Y1898D03*
X460Y1898D03*
G54D11*
X2408Y1548D03*
X2408Y1448D03*
X2408Y1348D03*
X2408Y1248D03*
X2308Y648D03*
X2308Y548D03*
X1258Y1648D03*
X558Y248D03*
X658Y248D03*
X758Y248D03*
G54D12*
X1458Y1848D03*
X1458Y1748D03*
X1458Y1648D03*
X1458Y1548D03*
X1458Y1448D03*
X1458Y1348D03*
X1458Y1248D03*
X1458Y1148D03*
X1458Y1048D03*
X1458Y948D03*
X1458Y848D03*
X1458Y748D03*
X1458Y648D03*
X1458Y548D03*
X1458Y448D03*
X2058Y1848D03*
X2058Y1748D03*
X2058Y1648D03*
X2058Y1548D03*
X2058Y1448D03*
X2058Y1348D03*
X2058Y1248D03*
X2058Y1148D03*
X2058Y1048D03*
X2058Y948D03*
X2058Y848D03*
X2058Y748D03*
X2058Y648D03*
X2058Y548D03*
X2058Y448D03*
G54D13*
X408Y698D03*
X408Y498D03*
G54D11*
X1258Y1548D03*
X1258Y1448D03*
X1258Y1348D03*
X1258Y1248D03*
X1258Y1148D03*
X1258Y1048D03*
X1258Y948D03*
X2408Y1048D03*
X2408Y948D03*
X2408Y848D03*
X2408Y748D03*
X2408Y648D03*
X2408Y548D03*
X2308Y1048D03*
X2308Y948D03*
X2308Y848D03*
X2308Y748D03*
X2508Y1048D03*
X2508Y948D03*
X2508Y848D03*
X2508Y748D03*
X2508Y648D03*
X2508Y548D03*
X1058Y848D03*
X1058Y748D03*
X1058Y648D03*
X1058Y548D03*
X1058Y448D03*
X1058Y348D03*
X1158Y848D03*
X1158Y748D03*
X1158Y648D03*
X1158Y548D03*
X1158Y448D03*
X1158Y348D03*
X1258Y848D03*
X1258Y748D03*
X1258Y648D03*
X1258Y548D03*
X1258Y448D03*
X1258Y348D03*
G54D14*
X586Y1204D03*
X586Y948D03*
X408Y1204D03*
X408Y948D03*
X586Y1604D03*
X586Y1348D03*
X408Y1604D03*
X408Y1348D03*
G54D11*
X1158Y1848D03*
X1158Y1948D03*
X1158Y2048D03*
X1158Y2148D03*
G54D15*
X558Y1898D03*
G54D16*
X1080Y1348D03*
X958Y1348D03*
G54D17*
X1458Y1848D03*
G54D18*
X408Y698D03*
G54D19*
X586Y1576D02*
X586Y1377D01*
D02*
X408Y1576D02*
X408Y1377D01*
D02*
X408Y977D02*
X408Y1176D01*
D02*
X586Y977D02*
X586Y1176D01*
D02*
X408Y1320D02*
X408Y1233D01*
D02*
X410Y850D02*
X409Y920D01*
D02*
X1028Y848D02*
X410Y850D01*
D02*
X459Y1649D02*
X430Y1623D01*
D02*
X460Y1871D02*
X459Y1649D01*
D02*
X860Y1698D02*
X860Y1347D01*
D02*
X660Y1898D02*
X860Y1698D01*
D02*
X860Y1347D02*
X933Y1348D01*
D02*
X585Y1898D02*
X660Y1898D01*
D02*
X1228Y1348D02*
X1106Y1348D01*
D02*
X661Y1250D02*
X1228Y1248D01*
D02*
X661Y1250D02*
X609Y1296D01*
D02*
X609Y1296D02*
X597Y1322D01*
D02*
X1228Y948D02*
X614Y948D01*
D02*
X1429Y948D02*
X1289Y948D01*
D02*
X1429Y1048D02*
X1289Y1048D01*
D02*
X1289Y1148D02*
X1429Y1148D01*
D02*
X1289Y1248D02*
X1429Y1248D01*
D02*
X1429Y1348D02*
X1289Y1348D01*
D02*
X1429Y1448D02*
X1289Y1448D01*
D02*
X1429Y1548D02*
X1289Y1548D01*
D02*
X1429Y1848D02*
X1189Y1848D01*
D02*
X1110Y1747D02*
X1429Y1748D01*
D02*
X1057Y1799D02*
X1110Y1747D01*
D02*
X1057Y1898D02*
X1057Y1799D01*
D02*
X1131Y1935D02*
X1057Y1898D01*
D02*
X1009Y2048D02*
X1128Y2048D01*
D02*
X1008Y1648D02*
X1009Y2048D01*
D02*
X1110Y1549D02*
X1008Y1648D01*
D02*
X1228Y1548D02*
X1110Y1549D01*
D02*
X1009Y2048D02*
X560Y2048D01*
D02*
X459Y1948D02*
X460Y1925D01*
D02*
X560Y2048D02*
X459Y1948D01*
D02*
X1957Y1549D02*
X1459Y2149D01*
D02*
X1459Y2149D02*
X1189Y2148D01*
D02*
X2029Y1548D02*
X1957Y1549D01*
D02*
X2278Y1048D02*
X2088Y1048D01*
D02*
X2278Y948D02*
X2088Y948D01*
D02*
X2059Y349D02*
X1289Y348D01*
D02*
X2059Y419D02*
X2059Y349D01*
D02*
X2278Y848D02*
X2088Y848D01*
D02*
X2278Y748D02*
X2088Y748D01*
D02*
X2258Y1548D02*
X2159Y1449D01*
D02*
X2159Y1449D02*
X2088Y1448D01*
D02*
X2378Y1548D02*
X2258Y1548D01*
D02*
X2258Y1449D02*
X2159Y1349D01*
D02*
X2159Y1349D02*
X2088Y1349D01*
D02*
X2378Y1448D02*
X2258Y1449D01*
D02*
X2258Y1349D02*
X2159Y1248D01*
D02*
X2159Y1248D02*
X2088Y1248D01*
D02*
X2378Y1348D02*
X2258Y1349D01*
D02*
X2258Y1248D02*
X2159Y1148D01*
D02*
X2159Y1148D02*
X2088Y1148D01*
D02*
X2378Y1248D02*
X2258Y1248D01*
D02*
X2509Y1198D02*
X2509Y1598D01*
D02*
X2509Y1598D02*
X2457Y1648D01*
D02*
X2159Y1548D02*
X2088Y1548D01*
D02*
X2258Y1648D02*
X2159Y1548D01*
D02*
X2408Y1098D02*
X2509Y1198D01*
D02*
X2457Y1648D02*
X2258Y1648D01*
D02*
X2408Y1078D02*
X2408Y1098D01*
D02*
X2559Y1148D02*
X2559Y1648D01*
D02*
X2509Y1098D02*
X2559Y1148D01*
D02*
X2559Y1648D02*
X2457Y1747D01*
D02*
X2457Y1747D02*
X2088Y1748D01*
D02*
X2509Y1078D02*
X2509Y1098D01*
D02*
X2278Y548D02*
X2088Y548D01*
D02*
X2278Y648D02*
X2088Y648D01*
D02*
X1429Y1648D02*
X1289Y1648D01*
D02*
X410Y850D02*
X409Y729D01*
D02*
X560Y499D02*
X440Y498D01*
D02*
X660Y347D02*
X560Y499D01*
D02*
X659Y278D02*
X660Y347D01*
D02*
X1157Y249D02*
X789Y248D01*
D02*
X1158Y318D02*
X1157Y249D01*
D02*
X2357Y248D02*
X2608Y499D01*
D02*
X2609Y1697D02*
X2459Y1847D01*
D02*
X2459Y1847D02*
X2088Y1848D01*
D02*
X2608Y499D02*
X2609Y1697D01*
D02*
X1157Y249D02*
X2357Y248D01*
D02*
X1158Y778D02*
X1158Y818D01*
D02*
X1158Y718D02*
X1158Y678D01*
D02*
X1158Y618D02*
X1158Y578D01*
D02*
X1058Y518D02*
X1058Y478D01*
D02*
X1058Y578D02*
X1058Y618D01*
D02*
X1058Y678D02*
X1058Y718D01*
D02*
X1058Y778D02*
X1058Y818D01*
D02*
X1289Y448D02*
X1429Y448D01*
D02*
X1429Y548D02*
X1289Y548D01*
D02*
X1429Y648D02*
X1289Y648D01*
D02*
X1429Y748D02*
X1289Y748D01*
D02*
X1429Y848D02*
X1289Y848D01*
D02*
X1158Y518D02*
X1158Y478D01*
D02*
X2408Y718D02*
X2408Y678D01*
D02*
X2408Y778D02*
X2408Y818D01*
D02*
X2408Y878D02*
X2408Y918D01*
D02*
X2408Y978D02*
X2408Y1018D01*
D02*
X2508Y978D02*
X2508Y1018D01*
D02*
X2508Y918D02*
X2508Y878D01*
D02*
X2508Y818D02*
X2508Y778D01*
D02*
X2508Y718D02*
X2508Y678D01*
D02*
X1158Y418D02*
X1158Y378D01*
D02*
X1058Y418D02*
X1058Y378D01*
D02*
X2408Y618D02*
X2408Y578D01*
D02*
X2508Y618D02*
X2508Y578D01*
G04 End of Copper0*
M02*