G04 MADE WITH FRITZING*
G04 WWW.FRITZING.ORG*
G04 DOUBLE SIDED*
G04 HOLES PLATED*
G04 CONTOUR ON CENTER OF CONTOUR VECTOR*
%ASAXBY*%
%FSLAX23Y23*%
%MOIN*%
%OFA0B0*%
%SFA1.0B1.0*%
%ADD10C,0.062992*%
%ADD11C,0.078000*%
%ADD12C,0.070000*%
%ADD13C,0.080000*%
%ADD14C,0.075000*%
%ADD15R,0.062992X0.062992*%
%ADD16R,0.069972X0.070000*%
%ADD17R,0.079986X0.080000*%
%LNCOPPER1*%
G90*
G70*
G54D10*
X558Y1898D03*
X460Y1898D03*
G54D11*
X2408Y1548D03*
X2408Y1448D03*
X2408Y1348D03*
X2408Y1248D03*
X2308Y648D03*
X2308Y548D03*
X1258Y1648D03*
X558Y248D03*
X658Y248D03*
X758Y248D03*
G54D12*
X1458Y1848D03*
X1458Y1748D03*
X1458Y1648D03*
X1458Y1548D03*
X1458Y1448D03*
X1458Y1348D03*
X1458Y1248D03*
X1458Y1148D03*
X1458Y1048D03*
X1458Y948D03*
X1458Y848D03*
X1458Y748D03*
X1458Y648D03*
X1458Y548D03*
X1458Y448D03*
X2058Y1848D03*
X2058Y1748D03*
X2058Y1648D03*
X2058Y1548D03*
X2058Y1448D03*
X2058Y1348D03*
X2058Y1248D03*
X2058Y1148D03*
X2058Y1048D03*
X2058Y948D03*
X2058Y848D03*
X2058Y748D03*
X2058Y648D03*
X2058Y548D03*
X2058Y448D03*
G54D13*
X408Y698D03*
X408Y498D03*
G54D11*
X1258Y1548D03*
X1258Y1448D03*
X1258Y1348D03*
X1258Y1248D03*
X1258Y1148D03*
X1258Y1048D03*
X1258Y948D03*
X2408Y1048D03*
X2408Y948D03*
X2408Y848D03*
X2408Y748D03*
X2408Y648D03*
X2408Y548D03*
X2308Y1048D03*
X2308Y948D03*
X2308Y848D03*
X2308Y748D03*
X2508Y1048D03*
X2508Y948D03*
X2508Y848D03*
X2508Y748D03*
X2508Y648D03*
X2508Y548D03*
X1058Y848D03*
X1058Y748D03*
X1058Y648D03*
X1058Y548D03*
X1058Y448D03*
X1058Y348D03*
X1158Y848D03*
X1158Y748D03*
X1158Y648D03*
X1158Y548D03*
X1158Y448D03*
X1158Y348D03*
X1258Y848D03*
X1258Y748D03*
X1258Y648D03*
X1258Y548D03*
X1258Y448D03*
X1258Y348D03*
G54D14*
X586Y1204D03*
X586Y948D03*
X408Y1204D03*
X408Y948D03*
X586Y1604D03*
X586Y1348D03*
X408Y1604D03*
X408Y1348D03*
G54D11*
X1158Y1848D03*
X1158Y1948D03*
X1158Y2048D03*
X1158Y2148D03*
G54D15*
X558Y1898D03*
G54D16*
X1458Y1848D03*
G54D17*
X408Y698D03*
G04 End of Copper1*
M02*