; NON-PLATED HOLES START AT T1
; THROUGH (PLATED) HOLES START AT T100
M48
INCH,LZ
T1C0.125984
T100C0.031497
T101C0.038000
T102C0.035000
T103C0.040000
T104C0.036000
%
T1
X026084Y002982
X002084Y021982
X026084Y021982
X002084Y002982
T100
X004600Y018982
X005584Y018982
T101
X025084Y009482
X011584Y021482
X023084Y008482
X012584Y014482
X023084Y005482
X012584Y003482
X024084Y009482
X011584Y006482
X010584Y008482
X011584Y019482
X012584Y005482
X011584Y007482
X024084Y013482
X023084Y009482
X012584Y009482
X011584Y020482
X007584Y002482
X012584Y011482
X012584Y013482
X012584Y006482
X011584Y008482
X025084Y008482
X012584Y004482
X005584Y002482
X024084Y010482
X010584Y004482
X025084Y010482
X024084Y007482
X025084Y005482
X012584Y015482
X023084Y007482
X011584Y003482
X023084Y010482
X012584Y010482
X024084Y015482
X025084Y007482
X006584Y002482
X011584Y018482
X024084Y005482
X012584Y008482
X012584Y012482
X012584Y016482
X011584Y004482
X011584Y005482
X010584Y003482
X024084Y006482
X010584Y006482
X010584Y007482
X012584Y007482
X024084Y014482
X010584Y005482
X023084Y006482
X024084Y008482
X024084Y012482
X025084Y006482
T102
X004084Y016041
X005856Y013482
X005856Y016041
X004084Y009482
X004084Y012041
X004084Y013482
X005856Y009482
X005856Y012041
T103
X004084Y006982
X004084Y004982
T104
X014584Y006482
X014584Y009482
X014584Y015482
X014584Y016482
X020584Y011482
X020584Y016482
X020584Y006482
X014584Y012482
X014584Y013482
X020584Y012482
X014584Y014482
X020584Y008482
X020584Y005482
X020584Y014482
X014584Y018482
X014584Y011482
X014584Y008482
X014584Y010482
X020584Y004482
X020584Y007482
X020584Y009482
X014584Y005482
X020584Y017482
X020584Y010482
X014584Y017482
X020584Y018482
X020584Y013482
X020584Y015482
X014584Y007482
X014584Y004482
T00
M30
