G04 MADE WITH FRITZING*
G04 WWW.FRITZING.ORG*
G04 DOUBLE SIDED*
G04 HOLES PLATED*
G04 CONTOUR ON CENTER OF CONTOUR VECTOR*
%ASAXBY*%
%FSLAX23Y23*%
%MOIN*%
%OFA0B0*%
%SFA1.0B1.0*%
%ADD10R,0.001000X0.001000*%
%LNSILK0*%
G90*
G70*
G54D10*
X0Y2362D02*
X2833Y2362D01*
X0Y2361D02*
X2833Y2361D01*
X0Y2360D02*
X2833Y2360D01*
X0Y2359D02*
X2833Y2359D01*
X0Y2358D02*
X2833Y2358D01*
X0Y2357D02*
X2833Y2357D01*
X0Y2356D02*
X2833Y2356D01*
X0Y2355D02*
X2833Y2355D01*
X0Y2354D02*
X7Y2354D01*
X2826Y2354D02*
X2833Y2354D01*
X0Y2353D02*
X7Y2353D01*
X2826Y2353D02*
X2833Y2353D01*
X0Y2352D02*
X7Y2352D01*
X2826Y2352D02*
X2833Y2352D01*
X0Y2351D02*
X7Y2351D01*
X2826Y2351D02*
X2833Y2351D01*
X0Y2350D02*
X7Y2350D01*
X2826Y2350D02*
X2833Y2350D01*
X0Y2349D02*
X7Y2349D01*
X2826Y2349D02*
X2833Y2349D01*
X0Y2348D02*
X7Y2348D01*
X2826Y2348D02*
X2833Y2348D01*
X0Y2347D02*
X7Y2347D01*
X2826Y2347D02*
X2833Y2347D01*
X0Y2346D02*
X7Y2346D01*
X2826Y2346D02*
X2833Y2346D01*
X0Y2345D02*
X7Y2345D01*
X2826Y2345D02*
X2833Y2345D01*
X0Y2344D02*
X7Y2344D01*
X2826Y2344D02*
X2833Y2344D01*
X0Y2343D02*
X7Y2343D01*
X2826Y2343D02*
X2833Y2343D01*
X0Y2342D02*
X7Y2342D01*
X2826Y2342D02*
X2833Y2342D01*
X0Y2341D02*
X7Y2341D01*
X2826Y2341D02*
X2833Y2341D01*
X0Y2340D02*
X7Y2340D01*
X2826Y2340D02*
X2833Y2340D01*
X0Y2339D02*
X7Y2339D01*
X2826Y2339D02*
X2833Y2339D01*
X0Y2338D02*
X7Y2338D01*
X2826Y2338D02*
X2833Y2338D01*
X0Y2337D02*
X7Y2337D01*
X2826Y2337D02*
X2833Y2337D01*
X0Y2336D02*
X7Y2336D01*
X2826Y2336D02*
X2833Y2336D01*
X0Y2335D02*
X7Y2335D01*
X2826Y2335D02*
X2833Y2335D01*
X0Y2334D02*
X7Y2334D01*
X2826Y2334D02*
X2833Y2334D01*
X0Y2333D02*
X7Y2333D01*
X2826Y2333D02*
X2833Y2333D01*
X0Y2332D02*
X7Y2332D01*
X2826Y2332D02*
X2833Y2332D01*
X0Y2331D02*
X7Y2331D01*
X2826Y2331D02*
X2833Y2331D01*
X0Y2330D02*
X7Y2330D01*
X2826Y2330D02*
X2833Y2330D01*
X0Y2329D02*
X7Y2329D01*
X2826Y2329D02*
X2833Y2329D01*
X0Y2328D02*
X7Y2328D01*
X2826Y2328D02*
X2833Y2328D01*
X0Y2327D02*
X7Y2327D01*
X2826Y2327D02*
X2833Y2327D01*
X0Y2326D02*
X7Y2326D01*
X2826Y2326D02*
X2833Y2326D01*
X0Y2325D02*
X7Y2325D01*
X2826Y2325D02*
X2833Y2325D01*
X0Y2324D02*
X7Y2324D01*
X2826Y2324D02*
X2833Y2324D01*
X0Y2323D02*
X7Y2323D01*
X2826Y2323D02*
X2833Y2323D01*
X0Y2322D02*
X7Y2322D01*
X2826Y2322D02*
X2833Y2322D01*
X0Y2321D02*
X7Y2321D01*
X2826Y2321D02*
X2833Y2321D01*
X0Y2320D02*
X7Y2320D01*
X2826Y2320D02*
X2833Y2320D01*
X0Y2319D02*
X7Y2319D01*
X2826Y2319D02*
X2833Y2319D01*
X0Y2318D02*
X7Y2318D01*
X2826Y2318D02*
X2833Y2318D01*
X0Y2317D02*
X7Y2317D01*
X2826Y2317D02*
X2833Y2317D01*
X0Y2316D02*
X7Y2316D01*
X2826Y2316D02*
X2833Y2316D01*
X0Y2315D02*
X7Y2315D01*
X2826Y2315D02*
X2833Y2315D01*
X0Y2314D02*
X7Y2314D01*
X2826Y2314D02*
X2833Y2314D01*
X0Y2313D02*
X7Y2313D01*
X2826Y2313D02*
X2833Y2313D01*
X0Y2312D02*
X7Y2312D01*
X2826Y2312D02*
X2833Y2312D01*
X0Y2311D02*
X7Y2311D01*
X2826Y2311D02*
X2833Y2311D01*
X0Y2310D02*
X7Y2310D01*
X2826Y2310D02*
X2833Y2310D01*
X0Y2309D02*
X7Y2309D01*
X2826Y2309D02*
X2833Y2309D01*
X0Y2308D02*
X7Y2308D01*
X2826Y2308D02*
X2833Y2308D01*
X0Y2307D02*
X7Y2307D01*
X2826Y2307D02*
X2833Y2307D01*
X0Y2306D02*
X7Y2306D01*
X2826Y2306D02*
X2833Y2306D01*
X0Y2305D02*
X7Y2305D01*
X2826Y2305D02*
X2833Y2305D01*
X0Y2304D02*
X7Y2304D01*
X2826Y2304D02*
X2833Y2304D01*
X0Y2303D02*
X7Y2303D01*
X2826Y2303D02*
X2833Y2303D01*
X0Y2302D02*
X7Y2302D01*
X2826Y2302D02*
X2833Y2302D01*
X0Y2301D02*
X7Y2301D01*
X2826Y2301D02*
X2833Y2301D01*
X0Y2300D02*
X7Y2300D01*
X2826Y2300D02*
X2833Y2300D01*
X0Y2299D02*
X7Y2299D01*
X2826Y2299D02*
X2833Y2299D01*
X0Y2298D02*
X7Y2298D01*
X2826Y2298D02*
X2833Y2298D01*
X0Y2297D02*
X7Y2297D01*
X2826Y2297D02*
X2833Y2297D01*
X0Y2296D02*
X7Y2296D01*
X2826Y2296D02*
X2833Y2296D01*
X0Y2295D02*
X7Y2295D01*
X2826Y2295D02*
X2833Y2295D01*
X0Y2294D02*
X7Y2294D01*
X2826Y2294D02*
X2833Y2294D01*
X0Y2293D02*
X7Y2293D01*
X2826Y2293D02*
X2833Y2293D01*
X0Y2292D02*
X7Y2292D01*
X2826Y2292D02*
X2833Y2292D01*
X0Y2291D02*
X7Y2291D01*
X2826Y2291D02*
X2833Y2291D01*
X0Y2290D02*
X7Y2290D01*
X2826Y2290D02*
X2833Y2290D01*
X0Y2289D02*
X7Y2289D01*
X2826Y2289D02*
X2833Y2289D01*
X0Y2288D02*
X7Y2288D01*
X2826Y2288D02*
X2833Y2288D01*
X0Y2287D02*
X7Y2287D01*
X2826Y2287D02*
X2833Y2287D01*
X0Y2286D02*
X7Y2286D01*
X2826Y2286D02*
X2833Y2286D01*
X0Y2285D02*
X7Y2285D01*
X2826Y2285D02*
X2833Y2285D01*
X0Y2284D02*
X7Y2284D01*
X2826Y2284D02*
X2833Y2284D01*
X0Y2283D02*
X7Y2283D01*
X2826Y2283D02*
X2833Y2283D01*
X0Y2282D02*
X7Y2282D01*
X2826Y2282D02*
X2833Y2282D01*
X0Y2281D02*
X7Y2281D01*
X2826Y2281D02*
X2833Y2281D01*
X0Y2280D02*
X7Y2280D01*
X2826Y2280D02*
X2833Y2280D01*
X0Y2279D02*
X7Y2279D01*
X2826Y2279D02*
X2833Y2279D01*
X0Y2278D02*
X7Y2278D01*
X2826Y2278D02*
X2833Y2278D01*
X0Y2277D02*
X7Y2277D01*
X2826Y2277D02*
X2833Y2277D01*
X0Y2276D02*
X7Y2276D01*
X2826Y2276D02*
X2833Y2276D01*
X0Y2275D02*
X7Y2275D01*
X2826Y2275D02*
X2833Y2275D01*
X0Y2274D02*
X7Y2274D01*
X2826Y2274D02*
X2833Y2274D01*
X0Y2273D02*
X7Y2273D01*
X2826Y2273D02*
X2833Y2273D01*
X0Y2272D02*
X7Y2272D01*
X2826Y2272D02*
X2833Y2272D01*
X0Y2271D02*
X7Y2271D01*
X2826Y2271D02*
X2833Y2271D01*
X0Y2270D02*
X7Y2270D01*
X2826Y2270D02*
X2833Y2270D01*
X0Y2269D02*
X7Y2269D01*
X2826Y2269D02*
X2833Y2269D01*
X0Y2268D02*
X7Y2268D01*
X2826Y2268D02*
X2833Y2268D01*
X0Y2267D02*
X7Y2267D01*
X2826Y2267D02*
X2833Y2267D01*
X0Y2266D02*
X7Y2266D01*
X2826Y2266D02*
X2833Y2266D01*
X0Y2265D02*
X7Y2265D01*
X2826Y2265D02*
X2833Y2265D01*
X0Y2264D02*
X7Y2264D01*
X2826Y2264D02*
X2833Y2264D01*
X0Y2263D02*
X7Y2263D01*
X2826Y2263D02*
X2833Y2263D01*
X0Y2262D02*
X7Y2262D01*
X2826Y2262D02*
X2833Y2262D01*
X0Y2261D02*
X7Y2261D01*
X2826Y2261D02*
X2833Y2261D01*
X0Y2260D02*
X7Y2260D01*
X2826Y2260D02*
X2833Y2260D01*
X0Y2259D02*
X7Y2259D01*
X2826Y2259D02*
X2833Y2259D01*
X0Y2258D02*
X7Y2258D01*
X2826Y2258D02*
X2833Y2258D01*
X0Y2257D02*
X7Y2257D01*
X2826Y2257D02*
X2833Y2257D01*
X0Y2256D02*
X7Y2256D01*
X2826Y2256D02*
X2833Y2256D01*
X0Y2255D02*
X7Y2255D01*
X2826Y2255D02*
X2833Y2255D01*
X0Y2254D02*
X7Y2254D01*
X2826Y2254D02*
X2833Y2254D01*
X0Y2253D02*
X7Y2253D01*
X2826Y2253D02*
X2833Y2253D01*
X0Y2252D02*
X7Y2252D01*
X2826Y2252D02*
X2833Y2252D01*
X0Y2251D02*
X7Y2251D01*
X2826Y2251D02*
X2833Y2251D01*
X0Y2250D02*
X7Y2250D01*
X2826Y2250D02*
X2833Y2250D01*
X0Y2249D02*
X7Y2249D01*
X2826Y2249D02*
X2833Y2249D01*
X0Y2248D02*
X7Y2248D01*
X2826Y2248D02*
X2833Y2248D01*
X0Y2247D02*
X7Y2247D01*
X2826Y2247D02*
X2833Y2247D01*
X0Y2246D02*
X7Y2246D01*
X2826Y2246D02*
X2833Y2246D01*
X0Y2245D02*
X7Y2245D01*
X2826Y2245D02*
X2833Y2245D01*
X0Y2244D02*
X7Y2244D01*
X2826Y2244D02*
X2833Y2244D01*
X0Y2243D02*
X7Y2243D01*
X2826Y2243D02*
X2833Y2243D01*
X0Y2242D02*
X7Y2242D01*
X2826Y2242D02*
X2833Y2242D01*
X0Y2241D02*
X7Y2241D01*
X2826Y2241D02*
X2833Y2241D01*
X0Y2240D02*
X7Y2240D01*
X2826Y2240D02*
X2833Y2240D01*
X0Y2239D02*
X7Y2239D01*
X2826Y2239D02*
X2833Y2239D01*
X0Y2238D02*
X7Y2238D01*
X2826Y2238D02*
X2833Y2238D01*
X0Y2237D02*
X7Y2237D01*
X2826Y2237D02*
X2833Y2237D01*
X0Y2236D02*
X7Y2236D01*
X2826Y2236D02*
X2833Y2236D01*
X0Y2235D02*
X7Y2235D01*
X2826Y2235D02*
X2833Y2235D01*
X0Y2234D02*
X7Y2234D01*
X2826Y2234D02*
X2833Y2234D01*
X0Y2233D02*
X7Y2233D01*
X2826Y2233D02*
X2833Y2233D01*
X0Y2232D02*
X7Y2232D01*
X2826Y2232D02*
X2833Y2232D01*
X0Y2231D02*
X7Y2231D01*
X2826Y2231D02*
X2833Y2231D01*
X0Y2230D02*
X7Y2230D01*
X2826Y2230D02*
X2833Y2230D01*
X0Y2229D02*
X7Y2229D01*
X2826Y2229D02*
X2833Y2229D01*
X0Y2228D02*
X7Y2228D01*
X2826Y2228D02*
X2833Y2228D01*
X0Y2227D02*
X7Y2227D01*
X2826Y2227D02*
X2833Y2227D01*
X0Y2226D02*
X7Y2226D01*
X2826Y2226D02*
X2833Y2226D01*
X0Y2225D02*
X7Y2225D01*
X2826Y2225D02*
X2833Y2225D01*
X0Y2224D02*
X7Y2224D01*
X2826Y2224D02*
X2833Y2224D01*
X0Y2223D02*
X7Y2223D01*
X2826Y2223D02*
X2833Y2223D01*
X0Y2222D02*
X7Y2222D01*
X2826Y2222D02*
X2833Y2222D01*
X0Y2221D02*
X7Y2221D01*
X2826Y2221D02*
X2833Y2221D01*
X0Y2220D02*
X7Y2220D01*
X2826Y2220D02*
X2833Y2220D01*
X0Y2219D02*
X7Y2219D01*
X2826Y2219D02*
X2833Y2219D01*
X0Y2218D02*
X7Y2218D01*
X2826Y2218D02*
X2833Y2218D01*
X0Y2217D02*
X7Y2217D01*
X2826Y2217D02*
X2833Y2217D01*
X0Y2216D02*
X7Y2216D01*
X2826Y2216D02*
X2833Y2216D01*
X0Y2215D02*
X7Y2215D01*
X2826Y2215D02*
X2833Y2215D01*
X0Y2214D02*
X7Y2214D01*
X2826Y2214D02*
X2833Y2214D01*
X0Y2213D02*
X7Y2213D01*
X2826Y2213D02*
X2833Y2213D01*
X0Y2212D02*
X7Y2212D01*
X2826Y2212D02*
X2833Y2212D01*
X0Y2211D02*
X7Y2211D01*
X2826Y2211D02*
X2833Y2211D01*
X0Y2210D02*
X7Y2210D01*
X2826Y2210D02*
X2833Y2210D01*
X0Y2209D02*
X7Y2209D01*
X2826Y2209D02*
X2833Y2209D01*
X0Y2208D02*
X7Y2208D01*
X2826Y2208D02*
X2833Y2208D01*
X0Y2207D02*
X7Y2207D01*
X2826Y2207D02*
X2833Y2207D01*
X0Y2206D02*
X7Y2206D01*
X2826Y2206D02*
X2833Y2206D01*
X0Y2205D02*
X7Y2205D01*
X2826Y2205D02*
X2833Y2205D01*
X0Y2204D02*
X7Y2204D01*
X2826Y2204D02*
X2833Y2204D01*
X0Y2203D02*
X7Y2203D01*
X2826Y2203D02*
X2833Y2203D01*
X0Y2202D02*
X7Y2202D01*
X2826Y2202D02*
X2833Y2202D01*
X0Y2201D02*
X7Y2201D01*
X2826Y2201D02*
X2833Y2201D01*
X0Y2200D02*
X7Y2200D01*
X2826Y2200D02*
X2833Y2200D01*
X0Y2199D02*
X7Y2199D01*
X2826Y2199D02*
X2833Y2199D01*
X0Y2198D02*
X7Y2198D01*
X2826Y2198D02*
X2833Y2198D01*
X0Y2197D02*
X7Y2197D01*
X2826Y2197D02*
X2833Y2197D01*
X0Y2196D02*
X7Y2196D01*
X2826Y2196D02*
X2833Y2196D01*
X0Y2195D02*
X7Y2195D01*
X2826Y2195D02*
X2833Y2195D01*
X0Y2194D02*
X7Y2194D01*
X2826Y2194D02*
X2833Y2194D01*
X0Y2193D02*
X7Y2193D01*
X2826Y2193D02*
X2833Y2193D01*
X0Y2192D02*
X7Y2192D01*
X2826Y2192D02*
X2833Y2192D01*
X0Y2191D02*
X7Y2191D01*
X2826Y2191D02*
X2833Y2191D01*
X0Y2190D02*
X7Y2190D01*
X2826Y2190D02*
X2833Y2190D01*
X0Y2189D02*
X7Y2189D01*
X2826Y2189D02*
X2833Y2189D01*
X0Y2188D02*
X7Y2188D01*
X2826Y2188D02*
X2833Y2188D01*
X0Y2187D02*
X7Y2187D01*
X2826Y2187D02*
X2833Y2187D01*
X0Y2186D02*
X7Y2186D01*
X2826Y2186D02*
X2833Y2186D01*
X0Y2185D02*
X7Y2185D01*
X2826Y2185D02*
X2833Y2185D01*
X0Y2184D02*
X7Y2184D01*
X2826Y2184D02*
X2833Y2184D01*
X0Y2183D02*
X7Y2183D01*
X2826Y2183D02*
X2833Y2183D01*
X0Y2182D02*
X7Y2182D01*
X2826Y2182D02*
X2833Y2182D01*
X0Y2181D02*
X7Y2181D01*
X2826Y2181D02*
X2833Y2181D01*
X0Y2180D02*
X7Y2180D01*
X2826Y2180D02*
X2833Y2180D01*
X0Y2179D02*
X7Y2179D01*
X2826Y2179D02*
X2833Y2179D01*
X0Y2178D02*
X7Y2178D01*
X2826Y2178D02*
X2833Y2178D01*
X0Y2177D02*
X7Y2177D01*
X2826Y2177D02*
X2833Y2177D01*
X0Y2176D02*
X7Y2176D01*
X2826Y2176D02*
X2833Y2176D01*
X0Y2175D02*
X7Y2175D01*
X2826Y2175D02*
X2833Y2175D01*
X0Y2174D02*
X7Y2174D01*
X2826Y2174D02*
X2833Y2174D01*
X0Y2173D02*
X7Y2173D01*
X2826Y2173D02*
X2833Y2173D01*
X0Y2172D02*
X7Y2172D01*
X2826Y2172D02*
X2833Y2172D01*
X0Y2171D02*
X7Y2171D01*
X2826Y2171D02*
X2833Y2171D01*
X0Y2170D02*
X7Y2170D01*
X2826Y2170D02*
X2833Y2170D01*
X0Y2169D02*
X7Y2169D01*
X2826Y2169D02*
X2833Y2169D01*
X0Y2168D02*
X7Y2168D01*
X2826Y2168D02*
X2833Y2168D01*
X0Y2167D02*
X7Y2167D01*
X2826Y2167D02*
X2833Y2167D01*
X0Y2166D02*
X7Y2166D01*
X2826Y2166D02*
X2833Y2166D01*
X0Y2165D02*
X7Y2165D01*
X2826Y2165D02*
X2833Y2165D01*
X0Y2164D02*
X7Y2164D01*
X2826Y2164D02*
X2833Y2164D01*
X0Y2163D02*
X7Y2163D01*
X2826Y2163D02*
X2833Y2163D01*
X0Y2162D02*
X7Y2162D01*
X2826Y2162D02*
X2833Y2162D01*
X0Y2161D02*
X7Y2161D01*
X2826Y2161D02*
X2833Y2161D01*
X0Y2160D02*
X7Y2160D01*
X2826Y2160D02*
X2833Y2160D01*
X0Y2159D02*
X7Y2159D01*
X2826Y2159D02*
X2833Y2159D01*
X0Y2158D02*
X7Y2158D01*
X2826Y2158D02*
X2833Y2158D01*
X0Y2157D02*
X7Y2157D01*
X2826Y2157D02*
X2833Y2157D01*
X0Y2156D02*
X7Y2156D01*
X2826Y2156D02*
X2833Y2156D01*
X0Y2155D02*
X7Y2155D01*
X2826Y2155D02*
X2833Y2155D01*
X0Y2154D02*
X7Y2154D01*
X2826Y2154D02*
X2833Y2154D01*
X0Y2153D02*
X7Y2153D01*
X2826Y2153D02*
X2833Y2153D01*
X0Y2152D02*
X7Y2152D01*
X2826Y2152D02*
X2833Y2152D01*
X0Y2151D02*
X7Y2151D01*
X2826Y2151D02*
X2833Y2151D01*
X0Y2150D02*
X7Y2150D01*
X2826Y2150D02*
X2833Y2150D01*
X0Y2149D02*
X7Y2149D01*
X2826Y2149D02*
X2833Y2149D01*
X0Y2148D02*
X7Y2148D01*
X2826Y2148D02*
X2833Y2148D01*
X0Y2147D02*
X7Y2147D01*
X2826Y2147D02*
X2833Y2147D01*
X0Y2146D02*
X7Y2146D01*
X2826Y2146D02*
X2833Y2146D01*
X0Y2145D02*
X7Y2145D01*
X2826Y2145D02*
X2833Y2145D01*
X0Y2144D02*
X7Y2144D01*
X2826Y2144D02*
X2833Y2144D01*
X0Y2143D02*
X7Y2143D01*
X2826Y2143D02*
X2833Y2143D01*
X0Y2142D02*
X7Y2142D01*
X2826Y2142D02*
X2833Y2142D01*
X0Y2141D02*
X7Y2141D01*
X2826Y2141D02*
X2833Y2141D01*
X0Y2140D02*
X7Y2140D01*
X2826Y2140D02*
X2833Y2140D01*
X0Y2139D02*
X7Y2139D01*
X2826Y2139D02*
X2833Y2139D01*
X0Y2138D02*
X7Y2138D01*
X2826Y2138D02*
X2833Y2138D01*
X0Y2137D02*
X7Y2137D01*
X2826Y2137D02*
X2833Y2137D01*
X0Y2136D02*
X7Y2136D01*
X2826Y2136D02*
X2833Y2136D01*
X0Y2135D02*
X7Y2135D01*
X2826Y2135D02*
X2833Y2135D01*
X0Y2134D02*
X7Y2134D01*
X2826Y2134D02*
X2833Y2134D01*
X0Y2133D02*
X7Y2133D01*
X2826Y2133D02*
X2833Y2133D01*
X0Y2132D02*
X7Y2132D01*
X2826Y2132D02*
X2833Y2132D01*
X0Y2131D02*
X7Y2131D01*
X2826Y2131D02*
X2833Y2131D01*
X0Y2130D02*
X7Y2130D01*
X2826Y2130D02*
X2833Y2130D01*
X0Y2129D02*
X7Y2129D01*
X2826Y2129D02*
X2833Y2129D01*
X0Y2128D02*
X7Y2128D01*
X2826Y2128D02*
X2833Y2128D01*
X0Y2127D02*
X7Y2127D01*
X2826Y2127D02*
X2833Y2127D01*
X0Y2126D02*
X7Y2126D01*
X2826Y2126D02*
X2833Y2126D01*
X0Y2125D02*
X7Y2125D01*
X2826Y2125D02*
X2833Y2125D01*
X0Y2124D02*
X7Y2124D01*
X2826Y2124D02*
X2833Y2124D01*
X0Y2123D02*
X7Y2123D01*
X2826Y2123D02*
X2833Y2123D01*
X0Y2122D02*
X7Y2122D01*
X2826Y2122D02*
X2833Y2122D01*
X0Y2121D02*
X7Y2121D01*
X2826Y2121D02*
X2833Y2121D01*
X0Y2120D02*
X7Y2120D01*
X2826Y2120D02*
X2833Y2120D01*
X0Y2119D02*
X7Y2119D01*
X2826Y2119D02*
X2833Y2119D01*
X0Y2118D02*
X7Y2118D01*
X2826Y2118D02*
X2833Y2118D01*
X0Y2117D02*
X7Y2117D01*
X2826Y2117D02*
X2833Y2117D01*
X0Y2116D02*
X7Y2116D01*
X2826Y2116D02*
X2833Y2116D01*
X0Y2115D02*
X7Y2115D01*
X2826Y2115D02*
X2833Y2115D01*
X0Y2114D02*
X7Y2114D01*
X2826Y2114D02*
X2833Y2114D01*
X0Y2113D02*
X7Y2113D01*
X2826Y2113D02*
X2833Y2113D01*
X0Y2112D02*
X7Y2112D01*
X2826Y2112D02*
X2833Y2112D01*
X0Y2111D02*
X7Y2111D01*
X2826Y2111D02*
X2833Y2111D01*
X0Y2110D02*
X7Y2110D01*
X2826Y2110D02*
X2833Y2110D01*
X0Y2109D02*
X7Y2109D01*
X2826Y2109D02*
X2833Y2109D01*
X0Y2108D02*
X7Y2108D01*
X2826Y2108D02*
X2833Y2108D01*
X0Y2107D02*
X7Y2107D01*
X2826Y2107D02*
X2833Y2107D01*
X0Y2106D02*
X7Y2106D01*
X2826Y2106D02*
X2833Y2106D01*
X0Y2105D02*
X7Y2105D01*
X2826Y2105D02*
X2833Y2105D01*
X0Y2104D02*
X7Y2104D01*
X2826Y2104D02*
X2833Y2104D01*
X0Y2103D02*
X7Y2103D01*
X2826Y2103D02*
X2833Y2103D01*
X0Y2102D02*
X7Y2102D01*
X2826Y2102D02*
X2833Y2102D01*
X0Y2101D02*
X7Y2101D01*
X2826Y2101D02*
X2833Y2101D01*
X0Y2100D02*
X7Y2100D01*
X2826Y2100D02*
X2833Y2100D01*
X0Y2099D02*
X7Y2099D01*
X2826Y2099D02*
X2833Y2099D01*
X0Y2098D02*
X7Y2098D01*
X2826Y2098D02*
X2833Y2098D01*
X0Y2097D02*
X7Y2097D01*
X2826Y2097D02*
X2833Y2097D01*
X0Y2096D02*
X7Y2096D01*
X2826Y2096D02*
X2833Y2096D01*
X0Y2095D02*
X7Y2095D01*
X2826Y2095D02*
X2833Y2095D01*
X0Y2094D02*
X7Y2094D01*
X2826Y2094D02*
X2833Y2094D01*
X0Y2093D02*
X7Y2093D01*
X2826Y2093D02*
X2833Y2093D01*
X0Y2092D02*
X7Y2092D01*
X2826Y2092D02*
X2833Y2092D01*
X0Y2091D02*
X7Y2091D01*
X2826Y2091D02*
X2833Y2091D01*
X0Y2090D02*
X7Y2090D01*
X2826Y2090D02*
X2833Y2090D01*
X0Y2089D02*
X7Y2089D01*
X2826Y2089D02*
X2833Y2089D01*
X0Y2088D02*
X7Y2088D01*
X2826Y2088D02*
X2833Y2088D01*
X0Y2087D02*
X7Y2087D01*
X2826Y2087D02*
X2833Y2087D01*
X0Y2086D02*
X7Y2086D01*
X2826Y2086D02*
X2833Y2086D01*
X0Y2085D02*
X7Y2085D01*
X2826Y2085D02*
X2833Y2085D01*
X0Y2084D02*
X7Y2084D01*
X2826Y2084D02*
X2833Y2084D01*
X0Y2083D02*
X7Y2083D01*
X2826Y2083D02*
X2833Y2083D01*
X0Y2082D02*
X7Y2082D01*
X2826Y2082D02*
X2833Y2082D01*
X0Y2081D02*
X7Y2081D01*
X2826Y2081D02*
X2833Y2081D01*
X0Y2080D02*
X7Y2080D01*
X2826Y2080D02*
X2833Y2080D01*
X0Y2079D02*
X7Y2079D01*
X2826Y2079D02*
X2833Y2079D01*
X0Y2078D02*
X7Y2078D01*
X2826Y2078D02*
X2833Y2078D01*
X0Y2077D02*
X7Y2077D01*
X2826Y2077D02*
X2833Y2077D01*
X0Y2076D02*
X7Y2076D01*
X2826Y2076D02*
X2833Y2076D01*
X0Y2075D02*
X7Y2075D01*
X2826Y2075D02*
X2833Y2075D01*
X0Y2074D02*
X7Y2074D01*
X2826Y2074D02*
X2833Y2074D01*
X0Y2073D02*
X7Y2073D01*
X2826Y2073D02*
X2833Y2073D01*
X0Y2072D02*
X7Y2072D01*
X2826Y2072D02*
X2833Y2072D01*
X0Y2071D02*
X7Y2071D01*
X2826Y2071D02*
X2833Y2071D01*
X0Y2070D02*
X7Y2070D01*
X2826Y2070D02*
X2833Y2070D01*
X0Y2069D02*
X7Y2069D01*
X2826Y2069D02*
X2833Y2069D01*
X0Y2068D02*
X7Y2068D01*
X2826Y2068D02*
X2833Y2068D01*
X0Y2067D02*
X7Y2067D01*
X2826Y2067D02*
X2833Y2067D01*
X0Y2066D02*
X7Y2066D01*
X2826Y2066D02*
X2833Y2066D01*
X0Y2065D02*
X7Y2065D01*
X2826Y2065D02*
X2833Y2065D01*
X0Y2064D02*
X7Y2064D01*
X2826Y2064D02*
X2833Y2064D01*
X0Y2063D02*
X7Y2063D01*
X2826Y2063D02*
X2833Y2063D01*
X0Y2062D02*
X7Y2062D01*
X2826Y2062D02*
X2833Y2062D01*
X0Y2061D02*
X7Y2061D01*
X2826Y2061D02*
X2833Y2061D01*
X0Y2060D02*
X7Y2060D01*
X2826Y2060D02*
X2833Y2060D01*
X0Y2059D02*
X7Y2059D01*
X2826Y2059D02*
X2833Y2059D01*
X0Y2058D02*
X7Y2058D01*
X2826Y2058D02*
X2833Y2058D01*
X0Y2057D02*
X7Y2057D01*
X2826Y2057D02*
X2833Y2057D01*
X0Y2056D02*
X7Y2056D01*
X2826Y2056D02*
X2833Y2056D01*
X0Y2055D02*
X7Y2055D01*
X2826Y2055D02*
X2833Y2055D01*
X0Y2054D02*
X7Y2054D01*
X2826Y2054D02*
X2833Y2054D01*
X0Y2053D02*
X7Y2053D01*
X2826Y2053D02*
X2833Y2053D01*
X0Y2052D02*
X7Y2052D01*
X2826Y2052D02*
X2833Y2052D01*
X0Y2051D02*
X7Y2051D01*
X2826Y2051D02*
X2833Y2051D01*
X0Y2050D02*
X7Y2050D01*
X2826Y2050D02*
X2833Y2050D01*
X0Y2049D02*
X7Y2049D01*
X2826Y2049D02*
X2833Y2049D01*
X0Y2048D02*
X7Y2048D01*
X2826Y2048D02*
X2833Y2048D01*
X0Y2047D02*
X7Y2047D01*
X2826Y2047D02*
X2833Y2047D01*
X0Y2046D02*
X7Y2046D01*
X2826Y2046D02*
X2833Y2046D01*
X0Y2045D02*
X7Y2045D01*
X2826Y2045D02*
X2833Y2045D01*
X0Y2044D02*
X7Y2044D01*
X2826Y2044D02*
X2833Y2044D01*
X0Y2043D02*
X7Y2043D01*
X2826Y2043D02*
X2833Y2043D01*
X0Y2042D02*
X7Y2042D01*
X2826Y2042D02*
X2833Y2042D01*
X0Y2041D02*
X7Y2041D01*
X2826Y2041D02*
X2833Y2041D01*
X0Y2040D02*
X7Y2040D01*
X2826Y2040D02*
X2833Y2040D01*
X0Y2039D02*
X7Y2039D01*
X2826Y2039D02*
X2833Y2039D01*
X0Y2038D02*
X7Y2038D01*
X2826Y2038D02*
X2833Y2038D01*
X0Y2037D02*
X7Y2037D01*
X2826Y2037D02*
X2833Y2037D01*
X0Y2036D02*
X7Y2036D01*
X2826Y2036D02*
X2833Y2036D01*
X0Y2035D02*
X7Y2035D01*
X2826Y2035D02*
X2833Y2035D01*
X0Y2034D02*
X7Y2034D01*
X2826Y2034D02*
X2833Y2034D01*
X0Y2033D02*
X7Y2033D01*
X2826Y2033D02*
X2833Y2033D01*
X0Y2032D02*
X7Y2032D01*
X2826Y2032D02*
X2833Y2032D01*
X0Y2031D02*
X7Y2031D01*
X2826Y2031D02*
X2833Y2031D01*
X0Y2030D02*
X7Y2030D01*
X2826Y2030D02*
X2833Y2030D01*
X0Y2029D02*
X7Y2029D01*
X2826Y2029D02*
X2833Y2029D01*
X0Y2028D02*
X7Y2028D01*
X2826Y2028D02*
X2833Y2028D01*
X0Y2027D02*
X7Y2027D01*
X2826Y2027D02*
X2833Y2027D01*
X0Y2026D02*
X7Y2026D01*
X2826Y2026D02*
X2833Y2026D01*
X0Y2025D02*
X7Y2025D01*
X2826Y2025D02*
X2833Y2025D01*
X0Y2024D02*
X7Y2024D01*
X2826Y2024D02*
X2833Y2024D01*
X0Y2023D02*
X7Y2023D01*
X2826Y2023D02*
X2833Y2023D01*
X0Y2022D02*
X7Y2022D01*
X2826Y2022D02*
X2833Y2022D01*
X0Y2021D02*
X7Y2021D01*
X2826Y2021D02*
X2833Y2021D01*
X0Y2020D02*
X7Y2020D01*
X2826Y2020D02*
X2833Y2020D01*
X0Y2019D02*
X7Y2019D01*
X2826Y2019D02*
X2833Y2019D01*
X0Y2018D02*
X7Y2018D01*
X2826Y2018D02*
X2833Y2018D01*
X0Y2017D02*
X7Y2017D01*
X2826Y2017D02*
X2833Y2017D01*
X0Y2016D02*
X7Y2016D01*
X2826Y2016D02*
X2833Y2016D01*
X0Y2015D02*
X7Y2015D01*
X2826Y2015D02*
X2833Y2015D01*
X0Y2014D02*
X7Y2014D01*
X2826Y2014D02*
X2833Y2014D01*
X0Y2013D02*
X7Y2013D01*
X2826Y2013D02*
X2833Y2013D01*
X0Y2012D02*
X7Y2012D01*
X2826Y2012D02*
X2833Y2012D01*
X0Y2011D02*
X7Y2011D01*
X2826Y2011D02*
X2833Y2011D01*
X0Y2010D02*
X7Y2010D01*
X2826Y2010D02*
X2833Y2010D01*
X0Y2009D02*
X7Y2009D01*
X2826Y2009D02*
X2833Y2009D01*
X0Y2008D02*
X7Y2008D01*
X2826Y2008D02*
X2833Y2008D01*
X0Y2007D02*
X7Y2007D01*
X2826Y2007D02*
X2833Y2007D01*
X0Y2006D02*
X7Y2006D01*
X2826Y2006D02*
X2833Y2006D01*
X0Y2005D02*
X7Y2005D01*
X2826Y2005D02*
X2833Y2005D01*
X0Y2004D02*
X7Y2004D01*
X2826Y2004D02*
X2833Y2004D01*
X0Y2003D02*
X7Y2003D01*
X2826Y2003D02*
X2833Y2003D01*
X0Y2002D02*
X7Y2002D01*
X2826Y2002D02*
X2833Y2002D01*
X0Y2001D02*
X7Y2001D01*
X2826Y2001D02*
X2833Y2001D01*
X0Y2000D02*
X7Y2000D01*
X2826Y2000D02*
X2833Y2000D01*
X0Y1999D02*
X7Y1999D01*
X2826Y1999D02*
X2833Y1999D01*
X0Y1998D02*
X7Y1998D01*
X2826Y1998D02*
X2833Y1998D01*
X0Y1997D02*
X7Y1997D01*
X2826Y1997D02*
X2833Y1997D01*
X0Y1996D02*
X7Y1996D01*
X2826Y1996D02*
X2833Y1996D01*
X0Y1995D02*
X7Y1995D01*
X2826Y1995D02*
X2833Y1995D01*
X0Y1994D02*
X7Y1994D01*
X2826Y1994D02*
X2833Y1994D01*
X0Y1993D02*
X7Y1993D01*
X2826Y1993D02*
X2833Y1993D01*
X0Y1992D02*
X7Y1992D01*
X2826Y1992D02*
X2833Y1992D01*
X0Y1991D02*
X7Y1991D01*
X2826Y1991D02*
X2833Y1991D01*
X0Y1990D02*
X7Y1990D01*
X2826Y1990D02*
X2833Y1990D01*
X0Y1989D02*
X7Y1989D01*
X2826Y1989D02*
X2833Y1989D01*
X0Y1988D02*
X7Y1988D01*
X2826Y1988D02*
X2833Y1988D01*
X0Y1987D02*
X7Y1987D01*
X2826Y1987D02*
X2833Y1987D01*
X0Y1986D02*
X7Y1986D01*
X2826Y1986D02*
X2833Y1986D01*
X0Y1985D02*
X7Y1985D01*
X2826Y1985D02*
X2833Y1985D01*
X0Y1984D02*
X7Y1984D01*
X2826Y1984D02*
X2833Y1984D01*
X0Y1983D02*
X7Y1983D01*
X2826Y1983D02*
X2833Y1983D01*
X0Y1982D02*
X7Y1982D01*
X2826Y1982D02*
X2833Y1982D01*
X0Y1981D02*
X7Y1981D01*
X2826Y1981D02*
X2833Y1981D01*
X0Y1980D02*
X7Y1980D01*
X2826Y1980D02*
X2833Y1980D01*
X0Y1979D02*
X7Y1979D01*
X2826Y1979D02*
X2833Y1979D01*
X0Y1978D02*
X7Y1978D01*
X2826Y1978D02*
X2833Y1978D01*
X0Y1977D02*
X7Y1977D01*
X2826Y1977D02*
X2833Y1977D01*
X0Y1976D02*
X7Y1976D01*
X2826Y1976D02*
X2833Y1976D01*
X0Y1975D02*
X7Y1975D01*
X2826Y1975D02*
X2833Y1975D01*
X0Y1974D02*
X7Y1974D01*
X2826Y1974D02*
X2833Y1974D01*
X0Y1973D02*
X7Y1973D01*
X2826Y1973D02*
X2833Y1973D01*
X0Y1972D02*
X7Y1972D01*
X2826Y1972D02*
X2833Y1972D01*
X0Y1971D02*
X7Y1971D01*
X2826Y1971D02*
X2833Y1971D01*
X0Y1970D02*
X7Y1970D01*
X2826Y1970D02*
X2833Y1970D01*
X0Y1969D02*
X7Y1969D01*
X2826Y1969D02*
X2833Y1969D01*
X0Y1968D02*
X7Y1968D01*
X2826Y1968D02*
X2833Y1968D01*
X0Y1967D02*
X7Y1967D01*
X2826Y1967D02*
X2833Y1967D01*
X0Y1966D02*
X7Y1966D01*
X2826Y1966D02*
X2833Y1966D01*
X0Y1965D02*
X7Y1965D01*
X2826Y1965D02*
X2833Y1965D01*
X0Y1964D02*
X7Y1964D01*
X2826Y1964D02*
X2833Y1964D01*
X0Y1963D02*
X7Y1963D01*
X2826Y1963D02*
X2833Y1963D01*
X0Y1962D02*
X7Y1962D01*
X2826Y1962D02*
X2833Y1962D01*
X0Y1961D02*
X7Y1961D01*
X2826Y1961D02*
X2833Y1961D01*
X0Y1960D02*
X7Y1960D01*
X2826Y1960D02*
X2833Y1960D01*
X0Y1959D02*
X7Y1959D01*
X2826Y1959D02*
X2833Y1959D01*
X0Y1958D02*
X7Y1958D01*
X2826Y1958D02*
X2833Y1958D01*
X0Y1957D02*
X7Y1957D01*
X2826Y1957D02*
X2833Y1957D01*
X0Y1956D02*
X7Y1956D01*
X2826Y1956D02*
X2833Y1956D01*
X0Y1955D02*
X7Y1955D01*
X2826Y1955D02*
X2833Y1955D01*
X0Y1954D02*
X7Y1954D01*
X2826Y1954D02*
X2833Y1954D01*
X0Y1953D02*
X7Y1953D01*
X2826Y1953D02*
X2833Y1953D01*
X0Y1952D02*
X7Y1952D01*
X2826Y1952D02*
X2833Y1952D01*
X0Y1951D02*
X7Y1951D01*
X2826Y1951D02*
X2833Y1951D01*
X0Y1950D02*
X7Y1950D01*
X2826Y1950D02*
X2833Y1950D01*
X0Y1949D02*
X7Y1949D01*
X2826Y1949D02*
X2833Y1949D01*
X0Y1948D02*
X7Y1948D01*
X2826Y1948D02*
X2833Y1948D01*
X0Y1947D02*
X7Y1947D01*
X2826Y1947D02*
X2833Y1947D01*
X0Y1946D02*
X7Y1946D01*
X2826Y1946D02*
X2833Y1946D01*
X0Y1945D02*
X7Y1945D01*
X2826Y1945D02*
X2833Y1945D01*
X0Y1944D02*
X7Y1944D01*
X2826Y1944D02*
X2833Y1944D01*
X0Y1943D02*
X7Y1943D01*
X2826Y1943D02*
X2833Y1943D01*
X0Y1942D02*
X7Y1942D01*
X2826Y1942D02*
X2833Y1942D01*
X0Y1941D02*
X7Y1941D01*
X2826Y1941D02*
X2833Y1941D01*
X0Y1940D02*
X7Y1940D01*
X2826Y1940D02*
X2833Y1940D01*
X0Y1939D02*
X7Y1939D01*
X2826Y1939D02*
X2833Y1939D01*
X0Y1938D02*
X7Y1938D01*
X2826Y1938D02*
X2833Y1938D01*
X0Y1937D02*
X7Y1937D01*
X2826Y1937D02*
X2833Y1937D01*
X0Y1936D02*
X7Y1936D01*
X2826Y1936D02*
X2833Y1936D01*
X0Y1935D02*
X7Y1935D01*
X2826Y1935D02*
X2833Y1935D01*
X0Y1934D02*
X7Y1934D01*
X2826Y1934D02*
X2833Y1934D01*
X0Y1933D02*
X7Y1933D01*
X2826Y1933D02*
X2833Y1933D01*
X0Y1932D02*
X7Y1932D01*
X2826Y1932D02*
X2833Y1932D01*
X0Y1931D02*
X7Y1931D01*
X2826Y1931D02*
X2833Y1931D01*
X0Y1930D02*
X7Y1930D01*
X2826Y1930D02*
X2833Y1930D01*
X0Y1929D02*
X7Y1929D01*
X2826Y1929D02*
X2833Y1929D01*
X0Y1928D02*
X7Y1928D01*
X2826Y1928D02*
X2833Y1928D01*
X0Y1927D02*
X7Y1927D01*
X2826Y1927D02*
X2833Y1927D01*
X0Y1926D02*
X7Y1926D01*
X2826Y1926D02*
X2833Y1926D01*
X0Y1925D02*
X7Y1925D01*
X2826Y1925D02*
X2833Y1925D01*
X0Y1924D02*
X7Y1924D01*
X2826Y1924D02*
X2833Y1924D01*
X0Y1923D02*
X7Y1923D01*
X2826Y1923D02*
X2833Y1923D01*
X0Y1922D02*
X7Y1922D01*
X2826Y1922D02*
X2833Y1922D01*
X0Y1921D02*
X7Y1921D01*
X2826Y1921D02*
X2833Y1921D01*
X0Y1920D02*
X7Y1920D01*
X2826Y1920D02*
X2833Y1920D01*
X0Y1919D02*
X7Y1919D01*
X2826Y1919D02*
X2833Y1919D01*
X0Y1918D02*
X7Y1918D01*
X2826Y1918D02*
X2833Y1918D01*
X0Y1917D02*
X7Y1917D01*
X2826Y1917D02*
X2833Y1917D01*
X0Y1916D02*
X7Y1916D01*
X2826Y1916D02*
X2833Y1916D01*
X0Y1915D02*
X7Y1915D01*
X2826Y1915D02*
X2833Y1915D01*
X0Y1914D02*
X7Y1914D01*
X2826Y1914D02*
X2833Y1914D01*
X0Y1913D02*
X7Y1913D01*
X2826Y1913D02*
X2833Y1913D01*
X0Y1912D02*
X7Y1912D01*
X2826Y1912D02*
X2833Y1912D01*
X0Y1911D02*
X7Y1911D01*
X2826Y1911D02*
X2833Y1911D01*
X0Y1910D02*
X7Y1910D01*
X2826Y1910D02*
X2833Y1910D01*
X0Y1909D02*
X7Y1909D01*
X2826Y1909D02*
X2833Y1909D01*
X0Y1908D02*
X7Y1908D01*
X2826Y1908D02*
X2833Y1908D01*
X0Y1907D02*
X7Y1907D01*
X2826Y1907D02*
X2833Y1907D01*
X0Y1906D02*
X7Y1906D01*
X2826Y1906D02*
X2833Y1906D01*
X0Y1905D02*
X7Y1905D01*
X2826Y1905D02*
X2833Y1905D01*
X0Y1904D02*
X7Y1904D01*
X2826Y1904D02*
X2833Y1904D01*
X0Y1903D02*
X7Y1903D01*
X2826Y1903D02*
X2833Y1903D01*
X0Y1902D02*
X7Y1902D01*
X2826Y1902D02*
X2833Y1902D01*
X0Y1901D02*
X7Y1901D01*
X2826Y1901D02*
X2833Y1901D01*
X0Y1900D02*
X7Y1900D01*
X2826Y1900D02*
X2833Y1900D01*
X0Y1899D02*
X7Y1899D01*
X2826Y1899D02*
X2833Y1899D01*
X0Y1898D02*
X7Y1898D01*
X2826Y1898D02*
X2833Y1898D01*
X0Y1897D02*
X7Y1897D01*
X2826Y1897D02*
X2833Y1897D01*
X0Y1896D02*
X7Y1896D01*
X2826Y1896D02*
X2833Y1896D01*
X0Y1895D02*
X7Y1895D01*
X2826Y1895D02*
X2833Y1895D01*
X0Y1894D02*
X7Y1894D01*
X2826Y1894D02*
X2833Y1894D01*
X0Y1893D02*
X7Y1893D01*
X2826Y1893D02*
X2833Y1893D01*
X0Y1892D02*
X7Y1892D01*
X2826Y1892D02*
X2833Y1892D01*
X0Y1891D02*
X7Y1891D01*
X2826Y1891D02*
X2833Y1891D01*
X0Y1890D02*
X7Y1890D01*
X2826Y1890D02*
X2833Y1890D01*
X0Y1889D02*
X7Y1889D01*
X2826Y1889D02*
X2833Y1889D01*
X0Y1888D02*
X7Y1888D01*
X2826Y1888D02*
X2833Y1888D01*
X0Y1887D02*
X7Y1887D01*
X2826Y1887D02*
X2833Y1887D01*
X0Y1886D02*
X7Y1886D01*
X2826Y1886D02*
X2833Y1886D01*
X0Y1885D02*
X7Y1885D01*
X2826Y1885D02*
X2833Y1885D01*
X0Y1884D02*
X7Y1884D01*
X2826Y1884D02*
X2833Y1884D01*
X0Y1883D02*
X7Y1883D01*
X2826Y1883D02*
X2833Y1883D01*
X0Y1882D02*
X7Y1882D01*
X2826Y1882D02*
X2833Y1882D01*
X0Y1881D02*
X7Y1881D01*
X2826Y1881D02*
X2833Y1881D01*
X0Y1880D02*
X7Y1880D01*
X2826Y1880D02*
X2833Y1880D01*
X0Y1879D02*
X7Y1879D01*
X2826Y1879D02*
X2833Y1879D01*
X0Y1878D02*
X7Y1878D01*
X2826Y1878D02*
X2833Y1878D01*
X0Y1877D02*
X7Y1877D01*
X2826Y1877D02*
X2833Y1877D01*
X0Y1876D02*
X7Y1876D01*
X2826Y1876D02*
X2833Y1876D01*
X0Y1875D02*
X7Y1875D01*
X2826Y1875D02*
X2833Y1875D01*
X0Y1874D02*
X7Y1874D01*
X2826Y1874D02*
X2833Y1874D01*
X0Y1873D02*
X7Y1873D01*
X2826Y1873D02*
X2833Y1873D01*
X0Y1872D02*
X7Y1872D01*
X2826Y1872D02*
X2833Y1872D01*
X0Y1871D02*
X7Y1871D01*
X2826Y1871D02*
X2833Y1871D01*
X0Y1870D02*
X7Y1870D01*
X2826Y1870D02*
X2833Y1870D01*
X0Y1869D02*
X7Y1869D01*
X2826Y1869D02*
X2833Y1869D01*
X0Y1868D02*
X7Y1868D01*
X2826Y1868D02*
X2833Y1868D01*
X0Y1867D02*
X7Y1867D01*
X2826Y1867D02*
X2833Y1867D01*
X0Y1866D02*
X7Y1866D01*
X2826Y1866D02*
X2833Y1866D01*
X0Y1865D02*
X7Y1865D01*
X2826Y1865D02*
X2833Y1865D01*
X0Y1864D02*
X7Y1864D01*
X2826Y1864D02*
X2833Y1864D01*
X0Y1863D02*
X7Y1863D01*
X2826Y1863D02*
X2833Y1863D01*
X0Y1862D02*
X7Y1862D01*
X2826Y1862D02*
X2833Y1862D01*
X0Y1861D02*
X7Y1861D01*
X2826Y1861D02*
X2833Y1861D01*
X0Y1860D02*
X7Y1860D01*
X2826Y1860D02*
X2833Y1860D01*
X0Y1859D02*
X7Y1859D01*
X2826Y1859D02*
X2833Y1859D01*
X0Y1858D02*
X7Y1858D01*
X2826Y1858D02*
X2833Y1858D01*
X0Y1857D02*
X7Y1857D01*
X2826Y1857D02*
X2833Y1857D01*
X0Y1856D02*
X7Y1856D01*
X2826Y1856D02*
X2833Y1856D01*
X0Y1855D02*
X7Y1855D01*
X2826Y1855D02*
X2833Y1855D01*
X0Y1854D02*
X7Y1854D01*
X2826Y1854D02*
X2833Y1854D01*
X0Y1853D02*
X7Y1853D01*
X2826Y1853D02*
X2833Y1853D01*
X0Y1852D02*
X7Y1852D01*
X2826Y1852D02*
X2833Y1852D01*
X0Y1851D02*
X7Y1851D01*
X2826Y1851D02*
X2833Y1851D01*
X0Y1850D02*
X7Y1850D01*
X2826Y1850D02*
X2833Y1850D01*
X0Y1849D02*
X7Y1849D01*
X2826Y1849D02*
X2833Y1849D01*
X0Y1848D02*
X7Y1848D01*
X2826Y1848D02*
X2833Y1848D01*
X0Y1847D02*
X7Y1847D01*
X2826Y1847D02*
X2833Y1847D01*
X0Y1846D02*
X7Y1846D01*
X2826Y1846D02*
X2833Y1846D01*
X0Y1845D02*
X7Y1845D01*
X2826Y1845D02*
X2833Y1845D01*
X0Y1844D02*
X7Y1844D01*
X2826Y1844D02*
X2833Y1844D01*
X0Y1843D02*
X7Y1843D01*
X2826Y1843D02*
X2833Y1843D01*
X0Y1842D02*
X7Y1842D01*
X2826Y1842D02*
X2833Y1842D01*
X0Y1841D02*
X7Y1841D01*
X2826Y1841D02*
X2833Y1841D01*
X0Y1840D02*
X7Y1840D01*
X2826Y1840D02*
X2833Y1840D01*
X0Y1839D02*
X7Y1839D01*
X2826Y1839D02*
X2833Y1839D01*
X0Y1838D02*
X7Y1838D01*
X2826Y1838D02*
X2833Y1838D01*
X0Y1837D02*
X7Y1837D01*
X2826Y1837D02*
X2833Y1837D01*
X0Y1836D02*
X7Y1836D01*
X2826Y1836D02*
X2833Y1836D01*
X0Y1835D02*
X7Y1835D01*
X2826Y1835D02*
X2833Y1835D01*
X0Y1834D02*
X7Y1834D01*
X2826Y1834D02*
X2833Y1834D01*
X0Y1833D02*
X7Y1833D01*
X2826Y1833D02*
X2833Y1833D01*
X0Y1832D02*
X7Y1832D01*
X2826Y1832D02*
X2833Y1832D01*
X0Y1831D02*
X7Y1831D01*
X2826Y1831D02*
X2833Y1831D01*
X0Y1830D02*
X7Y1830D01*
X2826Y1830D02*
X2833Y1830D01*
X0Y1829D02*
X7Y1829D01*
X2826Y1829D02*
X2833Y1829D01*
X0Y1828D02*
X7Y1828D01*
X2826Y1828D02*
X2833Y1828D01*
X0Y1827D02*
X7Y1827D01*
X2826Y1827D02*
X2833Y1827D01*
X0Y1826D02*
X7Y1826D01*
X2826Y1826D02*
X2833Y1826D01*
X0Y1825D02*
X7Y1825D01*
X2826Y1825D02*
X2833Y1825D01*
X0Y1824D02*
X7Y1824D01*
X2826Y1824D02*
X2833Y1824D01*
X0Y1823D02*
X7Y1823D01*
X2826Y1823D02*
X2833Y1823D01*
X0Y1822D02*
X7Y1822D01*
X2826Y1822D02*
X2833Y1822D01*
X0Y1821D02*
X7Y1821D01*
X2826Y1821D02*
X2833Y1821D01*
X0Y1820D02*
X7Y1820D01*
X2826Y1820D02*
X2833Y1820D01*
X0Y1819D02*
X7Y1819D01*
X2826Y1819D02*
X2833Y1819D01*
X0Y1818D02*
X7Y1818D01*
X2826Y1818D02*
X2833Y1818D01*
X0Y1817D02*
X7Y1817D01*
X2826Y1817D02*
X2833Y1817D01*
X0Y1816D02*
X7Y1816D01*
X2826Y1816D02*
X2833Y1816D01*
X0Y1815D02*
X7Y1815D01*
X2826Y1815D02*
X2833Y1815D01*
X0Y1814D02*
X7Y1814D01*
X2826Y1814D02*
X2833Y1814D01*
X0Y1813D02*
X7Y1813D01*
X2826Y1813D02*
X2833Y1813D01*
X0Y1812D02*
X7Y1812D01*
X2826Y1812D02*
X2833Y1812D01*
X0Y1811D02*
X7Y1811D01*
X2826Y1811D02*
X2833Y1811D01*
X0Y1810D02*
X7Y1810D01*
X2826Y1810D02*
X2833Y1810D01*
X0Y1809D02*
X7Y1809D01*
X2826Y1809D02*
X2833Y1809D01*
X0Y1808D02*
X7Y1808D01*
X2826Y1808D02*
X2833Y1808D01*
X0Y1807D02*
X7Y1807D01*
X2826Y1807D02*
X2833Y1807D01*
X0Y1806D02*
X7Y1806D01*
X2826Y1806D02*
X2833Y1806D01*
X0Y1805D02*
X7Y1805D01*
X2826Y1805D02*
X2833Y1805D01*
X0Y1804D02*
X7Y1804D01*
X2826Y1804D02*
X2833Y1804D01*
X0Y1803D02*
X7Y1803D01*
X2826Y1803D02*
X2833Y1803D01*
X0Y1802D02*
X7Y1802D01*
X2826Y1802D02*
X2833Y1802D01*
X0Y1801D02*
X7Y1801D01*
X2826Y1801D02*
X2833Y1801D01*
X0Y1800D02*
X7Y1800D01*
X2826Y1800D02*
X2833Y1800D01*
X0Y1799D02*
X7Y1799D01*
X2826Y1799D02*
X2833Y1799D01*
X0Y1798D02*
X7Y1798D01*
X2826Y1798D02*
X2833Y1798D01*
X0Y1797D02*
X7Y1797D01*
X2826Y1797D02*
X2833Y1797D01*
X0Y1796D02*
X7Y1796D01*
X2826Y1796D02*
X2833Y1796D01*
X0Y1795D02*
X7Y1795D01*
X2826Y1795D02*
X2833Y1795D01*
X0Y1794D02*
X7Y1794D01*
X2826Y1794D02*
X2833Y1794D01*
X0Y1793D02*
X7Y1793D01*
X2826Y1793D02*
X2833Y1793D01*
X0Y1792D02*
X7Y1792D01*
X2826Y1792D02*
X2833Y1792D01*
X0Y1791D02*
X7Y1791D01*
X2826Y1791D02*
X2833Y1791D01*
X0Y1790D02*
X7Y1790D01*
X2826Y1790D02*
X2833Y1790D01*
X0Y1789D02*
X7Y1789D01*
X2826Y1789D02*
X2833Y1789D01*
X0Y1788D02*
X7Y1788D01*
X2826Y1788D02*
X2833Y1788D01*
X0Y1787D02*
X7Y1787D01*
X2826Y1787D02*
X2833Y1787D01*
X0Y1786D02*
X7Y1786D01*
X2826Y1786D02*
X2833Y1786D01*
X0Y1785D02*
X7Y1785D01*
X2826Y1785D02*
X2833Y1785D01*
X0Y1784D02*
X7Y1784D01*
X2826Y1784D02*
X2833Y1784D01*
X0Y1783D02*
X7Y1783D01*
X2826Y1783D02*
X2833Y1783D01*
X0Y1782D02*
X7Y1782D01*
X2826Y1782D02*
X2833Y1782D01*
X0Y1781D02*
X7Y1781D01*
X2826Y1781D02*
X2833Y1781D01*
X0Y1780D02*
X7Y1780D01*
X2826Y1780D02*
X2833Y1780D01*
X0Y1779D02*
X7Y1779D01*
X2826Y1779D02*
X2833Y1779D01*
X0Y1778D02*
X7Y1778D01*
X2826Y1778D02*
X2833Y1778D01*
X0Y1777D02*
X7Y1777D01*
X2826Y1777D02*
X2833Y1777D01*
X0Y1776D02*
X7Y1776D01*
X2826Y1776D02*
X2833Y1776D01*
X0Y1775D02*
X7Y1775D01*
X2826Y1775D02*
X2833Y1775D01*
X0Y1774D02*
X7Y1774D01*
X2826Y1774D02*
X2833Y1774D01*
X0Y1773D02*
X7Y1773D01*
X2826Y1773D02*
X2833Y1773D01*
X0Y1772D02*
X7Y1772D01*
X2826Y1772D02*
X2833Y1772D01*
X0Y1771D02*
X7Y1771D01*
X2826Y1771D02*
X2833Y1771D01*
X0Y1770D02*
X7Y1770D01*
X2826Y1770D02*
X2833Y1770D01*
X0Y1769D02*
X7Y1769D01*
X2826Y1769D02*
X2833Y1769D01*
X0Y1768D02*
X7Y1768D01*
X2826Y1768D02*
X2833Y1768D01*
X0Y1767D02*
X7Y1767D01*
X2826Y1767D02*
X2833Y1767D01*
X0Y1766D02*
X7Y1766D01*
X2826Y1766D02*
X2833Y1766D01*
X0Y1765D02*
X7Y1765D01*
X2826Y1765D02*
X2833Y1765D01*
X0Y1764D02*
X7Y1764D01*
X2826Y1764D02*
X2833Y1764D01*
X0Y1763D02*
X7Y1763D01*
X2826Y1763D02*
X2833Y1763D01*
X0Y1762D02*
X7Y1762D01*
X2826Y1762D02*
X2833Y1762D01*
X0Y1761D02*
X7Y1761D01*
X2826Y1761D02*
X2833Y1761D01*
X0Y1760D02*
X7Y1760D01*
X2826Y1760D02*
X2833Y1760D01*
X0Y1759D02*
X7Y1759D01*
X2826Y1759D02*
X2833Y1759D01*
X0Y1758D02*
X7Y1758D01*
X2826Y1758D02*
X2833Y1758D01*
X0Y1757D02*
X7Y1757D01*
X2826Y1757D02*
X2833Y1757D01*
X0Y1756D02*
X7Y1756D01*
X2826Y1756D02*
X2833Y1756D01*
X0Y1755D02*
X7Y1755D01*
X2826Y1755D02*
X2833Y1755D01*
X0Y1754D02*
X7Y1754D01*
X2826Y1754D02*
X2833Y1754D01*
X0Y1753D02*
X7Y1753D01*
X2826Y1753D02*
X2833Y1753D01*
X0Y1752D02*
X7Y1752D01*
X2826Y1752D02*
X2833Y1752D01*
X0Y1751D02*
X7Y1751D01*
X2826Y1751D02*
X2833Y1751D01*
X0Y1750D02*
X7Y1750D01*
X2826Y1750D02*
X2833Y1750D01*
X0Y1749D02*
X7Y1749D01*
X2826Y1749D02*
X2833Y1749D01*
X0Y1748D02*
X7Y1748D01*
X2826Y1748D02*
X2833Y1748D01*
X0Y1747D02*
X7Y1747D01*
X2826Y1747D02*
X2833Y1747D01*
X0Y1746D02*
X7Y1746D01*
X2826Y1746D02*
X2833Y1746D01*
X0Y1745D02*
X7Y1745D01*
X2826Y1745D02*
X2833Y1745D01*
X0Y1744D02*
X7Y1744D01*
X2826Y1744D02*
X2833Y1744D01*
X0Y1743D02*
X7Y1743D01*
X2826Y1743D02*
X2833Y1743D01*
X0Y1742D02*
X7Y1742D01*
X2826Y1742D02*
X2833Y1742D01*
X0Y1741D02*
X7Y1741D01*
X2826Y1741D02*
X2833Y1741D01*
X0Y1740D02*
X7Y1740D01*
X2826Y1740D02*
X2833Y1740D01*
X0Y1739D02*
X7Y1739D01*
X2826Y1739D02*
X2833Y1739D01*
X0Y1738D02*
X7Y1738D01*
X2826Y1738D02*
X2833Y1738D01*
X0Y1737D02*
X7Y1737D01*
X2826Y1737D02*
X2833Y1737D01*
X0Y1736D02*
X7Y1736D01*
X2826Y1736D02*
X2833Y1736D01*
X0Y1735D02*
X7Y1735D01*
X2826Y1735D02*
X2833Y1735D01*
X0Y1734D02*
X7Y1734D01*
X2826Y1734D02*
X2833Y1734D01*
X0Y1733D02*
X7Y1733D01*
X2826Y1733D02*
X2833Y1733D01*
X0Y1732D02*
X7Y1732D01*
X2826Y1732D02*
X2833Y1732D01*
X0Y1731D02*
X7Y1731D01*
X2826Y1731D02*
X2833Y1731D01*
X0Y1730D02*
X7Y1730D01*
X2826Y1730D02*
X2833Y1730D01*
X0Y1729D02*
X7Y1729D01*
X2826Y1729D02*
X2833Y1729D01*
X0Y1728D02*
X7Y1728D01*
X2826Y1728D02*
X2833Y1728D01*
X0Y1727D02*
X7Y1727D01*
X2826Y1727D02*
X2833Y1727D01*
X0Y1726D02*
X7Y1726D01*
X2826Y1726D02*
X2833Y1726D01*
X0Y1725D02*
X7Y1725D01*
X2826Y1725D02*
X2833Y1725D01*
X0Y1724D02*
X7Y1724D01*
X2826Y1724D02*
X2833Y1724D01*
X0Y1723D02*
X7Y1723D01*
X2826Y1723D02*
X2833Y1723D01*
X0Y1722D02*
X7Y1722D01*
X2826Y1722D02*
X2833Y1722D01*
X0Y1721D02*
X7Y1721D01*
X2826Y1721D02*
X2833Y1721D01*
X0Y1720D02*
X7Y1720D01*
X2826Y1720D02*
X2833Y1720D01*
X0Y1719D02*
X7Y1719D01*
X2826Y1719D02*
X2833Y1719D01*
X0Y1718D02*
X7Y1718D01*
X2826Y1718D02*
X2833Y1718D01*
X0Y1717D02*
X7Y1717D01*
X2826Y1717D02*
X2833Y1717D01*
X0Y1716D02*
X7Y1716D01*
X2826Y1716D02*
X2833Y1716D01*
X0Y1715D02*
X7Y1715D01*
X2826Y1715D02*
X2833Y1715D01*
X0Y1714D02*
X7Y1714D01*
X2826Y1714D02*
X2833Y1714D01*
X0Y1713D02*
X7Y1713D01*
X2826Y1713D02*
X2833Y1713D01*
X0Y1712D02*
X7Y1712D01*
X2826Y1712D02*
X2833Y1712D01*
X0Y1711D02*
X7Y1711D01*
X2826Y1711D02*
X2833Y1711D01*
X0Y1710D02*
X7Y1710D01*
X2826Y1710D02*
X2833Y1710D01*
X0Y1709D02*
X7Y1709D01*
X2826Y1709D02*
X2833Y1709D01*
X0Y1708D02*
X7Y1708D01*
X2826Y1708D02*
X2833Y1708D01*
X0Y1707D02*
X7Y1707D01*
X2826Y1707D02*
X2833Y1707D01*
X0Y1706D02*
X7Y1706D01*
X2826Y1706D02*
X2833Y1706D01*
X0Y1705D02*
X7Y1705D01*
X2826Y1705D02*
X2833Y1705D01*
X0Y1704D02*
X7Y1704D01*
X2826Y1704D02*
X2833Y1704D01*
X0Y1703D02*
X7Y1703D01*
X2826Y1703D02*
X2833Y1703D01*
X0Y1702D02*
X7Y1702D01*
X2826Y1702D02*
X2833Y1702D01*
X0Y1701D02*
X7Y1701D01*
X2826Y1701D02*
X2833Y1701D01*
X0Y1700D02*
X7Y1700D01*
X2826Y1700D02*
X2833Y1700D01*
X0Y1699D02*
X7Y1699D01*
X2826Y1699D02*
X2833Y1699D01*
X0Y1698D02*
X7Y1698D01*
X2826Y1698D02*
X2833Y1698D01*
X0Y1697D02*
X7Y1697D01*
X2826Y1697D02*
X2833Y1697D01*
X0Y1696D02*
X7Y1696D01*
X2826Y1696D02*
X2833Y1696D01*
X0Y1695D02*
X7Y1695D01*
X2826Y1695D02*
X2833Y1695D01*
X0Y1694D02*
X7Y1694D01*
X2826Y1694D02*
X2833Y1694D01*
X0Y1693D02*
X7Y1693D01*
X2826Y1693D02*
X2833Y1693D01*
X0Y1692D02*
X7Y1692D01*
X2826Y1692D02*
X2833Y1692D01*
X0Y1691D02*
X7Y1691D01*
X2826Y1691D02*
X2833Y1691D01*
X0Y1690D02*
X7Y1690D01*
X2826Y1690D02*
X2833Y1690D01*
X0Y1689D02*
X7Y1689D01*
X2826Y1689D02*
X2833Y1689D01*
X0Y1688D02*
X7Y1688D01*
X2826Y1688D02*
X2833Y1688D01*
X0Y1687D02*
X7Y1687D01*
X2826Y1687D02*
X2833Y1687D01*
X0Y1686D02*
X7Y1686D01*
X2826Y1686D02*
X2833Y1686D01*
X0Y1685D02*
X7Y1685D01*
X2826Y1685D02*
X2833Y1685D01*
X0Y1684D02*
X7Y1684D01*
X2826Y1684D02*
X2833Y1684D01*
X0Y1683D02*
X7Y1683D01*
X2826Y1683D02*
X2833Y1683D01*
X0Y1682D02*
X7Y1682D01*
X2826Y1682D02*
X2833Y1682D01*
X0Y1681D02*
X7Y1681D01*
X2826Y1681D02*
X2833Y1681D01*
X0Y1680D02*
X7Y1680D01*
X2826Y1680D02*
X2833Y1680D01*
X0Y1679D02*
X7Y1679D01*
X2826Y1679D02*
X2833Y1679D01*
X0Y1678D02*
X7Y1678D01*
X2826Y1678D02*
X2833Y1678D01*
X0Y1677D02*
X7Y1677D01*
X2826Y1677D02*
X2833Y1677D01*
X0Y1676D02*
X7Y1676D01*
X2826Y1676D02*
X2833Y1676D01*
X0Y1675D02*
X7Y1675D01*
X2826Y1675D02*
X2833Y1675D01*
X0Y1674D02*
X7Y1674D01*
X2826Y1674D02*
X2833Y1674D01*
X0Y1673D02*
X7Y1673D01*
X2826Y1673D02*
X2833Y1673D01*
X0Y1672D02*
X7Y1672D01*
X2826Y1672D02*
X2833Y1672D01*
X0Y1671D02*
X7Y1671D01*
X2826Y1671D02*
X2833Y1671D01*
X0Y1670D02*
X7Y1670D01*
X2826Y1670D02*
X2833Y1670D01*
X0Y1669D02*
X7Y1669D01*
X2826Y1669D02*
X2833Y1669D01*
X0Y1668D02*
X7Y1668D01*
X2826Y1668D02*
X2833Y1668D01*
X0Y1667D02*
X7Y1667D01*
X2826Y1667D02*
X2833Y1667D01*
X0Y1666D02*
X7Y1666D01*
X2826Y1666D02*
X2833Y1666D01*
X0Y1665D02*
X7Y1665D01*
X2826Y1665D02*
X2833Y1665D01*
X0Y1664D02*
X7Y1664D01*
X2826Y1664D02*
X2833Y1664D01*
X0Y1663D02*
X7Y1663D01*
X2826Y1663D02*
X2833Y1663D01*
X0Y1662D02*
X7Y1662D01*
X2826Y1662D02*
X2833Y1662D01*
X0Y1661D02*
X7Y1661D01*
X2826Y1661D02*
X2833Y1661D01*
X0Y1660D02*
X7Y1660D01*
X2826Y1660D02*
X2833Y1660D01*
X0Y1659D02*
X7Y1659D01*
X2826Y1659D02*
X2833Y1659D01*
X0Y1658D02*
X7Y1658D01*
X2826Y1658D02*
X2833Y1658D01*
X0Y1657D02*
X7Y1657D01*
X2826Y1657D02*
X2833Y1657D01*
X0Y1656D02*
X7Y1656D01*
X2826Y1656D02*
X2833Y1656D01*
X0Y1655D02*
X7Y1655D01*
X2826Y1655D02*
X2833Y1655D01*
X0Y1654D02*
X7Y1654D01*
X2826Y1654D02*
X2833Y1654D01*
X0Y1653D02*
X7Y1653D01*
X2826Y1653D02*
X2833Y1653D01*
X0Y1652D02*
X7Y1652D01*
X2826Y1652D02*
X2833Y1652D01*
X0Y1651D02*
X7Y1651D01*
X2826Y1651D02*
X2833Y1651D01*
X0Y1650D02*
X7Y1650D01*
X2826Y1650D02*
X2833Y1650D01*
X0Y1649D02*
X7Y1649D01*
X2826Y1649D02*
X2833Y1649D01*
X0Y1648D02*
X7Y1648D01*
X2826Y1648D02*
X2833Y1648D01*
X0Y1647D02*
X7Y1647D01*
X2826Y1647D02*
X2833Y1647D01*
X0Y1646D02*
X7Y1646D01*
X2826Y1646D02*
X2833Y1646D01*
X0Y1645D02*
X7Y1645D01*
X2826Y1645D02*
X2833Y1645D01*
X0Y1644D02*
X7Y1644D01*
X2826Y1644D02*
X2833Y1644D01*
X0Y1643D02*
X7Y1643D01*
X2826Y1643D02*
X2833Y1643D01*
X0Y1642D02*
X7Y1642D01*
X2826Y1642D02*
X2833Y1642D01*
X0Y1641D02*
X7Y1641D01*
X2826Y1641D02*
X2833Y1641D01*
X0Y1640D02*
X7Y1640D01*
X2826Y1640D02*
X2833Y1640D01*
X0Y1639D02*
X7Y1639D01*
X2826Y1639D02*
X2833Y1639D01*
X0Y1638D02*
X7Y1638D01*
X2826Y1638D02*
X2833Y1638D01*
X0Y1637D02*
X7Y1637D01*
X2826Y1637D02*
X2833Y1637D01*
X0Y1636D02*
X7Y1636D01*
X2826Y1636D02*
X2833Y1636D01*
X0Y1635D02*
X7Y1635D01*
X2826Y1635D02*
X2833Y1635D01*
X0Y1634D02*
X7Y1634D01*
X2826Y1634D02*
X2833Y1634D01*
X0Y1633D02*
X7Y1633D01*
X2826Y1633D02*
X2833Y1633D01*
X0Y1632D02*
X7Y1632D01*
X2826Y1632D02*
X2833Y1632D01*
X0Y1631D02*
X7Y1631D01*
X2826Y1631D02*
X2833Y1631D01*
X0Y1630D02*
X7Y1630D01*
X2826Y1630D02*
X2833Y1630D01*
X0Y1629D02*
X7Y1629D01*
X2826Y1629D02*
X2833Y1629D01*
X0Y1628D02*
X7Y1628D01*
X2826Y1628D02*
X2833Y1628D01*
X0Y1627D02*
X7Y1627D01*
X2826Y1627D02*
X2833Y1627D01*
X0Y1626D02*
X7Y1626D01*
X2826Y1626D02*
X2833Y1626D01*
X0Y1625D02*
X7Y1625D01*
X2826Y1625D02*
X2833Y1625D01*
X0Y1624D02*
X7Y1624D01*
X2826Y1624D02*
X2833Y1624D01*
X0Y1623D02*
X7Y1623D01*
X2826Y1623D02*
X2833Y1623D01*
X0Y1622D02*
X7Y1622D01*
X2826Y1622D02*
X2833Y1622D01*
X0Y1621D02*
X7Y1621D01*
X2826Y1621D02*
X2833Y1621D01*
X0Y1620D02*
X7Y1620D01*
X2826Y1620D02*
X2833Y1620D01*
X0Y1619D02*
X7Y1619D01*
X2826Y1619D02*
X2833Y1619D01*
X0Y1618D02*
X7Y1618D01*
X2826Y1618D02*
X2833Y1618D01*
X0Y1617D02*
X7Y1617D01*
X2826Y1617D02*
X2833Y1617D01*
X0Y1616D02*
X7Y1616D01*
X2826Y1616D02*
X2833Y1616D01*
X0Y1615D02*
X7Y1615D01*
X2826Y1615D02*
X2833Y1615D01*
X0Y1614D02*
X7Y1614D01*
X2826Y1614D02*
X2833Y1614D01*
X0Y1613D02*
X7Y1613D01*
X2826Y1613D02*
X2833Y1613D01*
X0Y1612D02*
X7Y1612D01*
X2826Y1612D02*
X2833Y1612D01*
X0Y1611D02*
X7Y1611D01*
X2826Y1611D02*
X2833Y1611D01*
X0Y1610D02*
X7Y1610D01*
X2826Y1610D02*
X2833Y1610D01*
X0Y1609D02*
X7Y1609D01*
X2826Y1609D02*
X2833Y1609D01*
X0Y1608D02*
X7Y1608D01*
X2826Y1608D02*
X2833Y1608D01*
X0Y1607D02*
X7Y1607D01*
X2826Y1607D02*
X2833Y1607D01*
X0Y1606D02*
X7Y1606D01*
X2826Y1606D02*
X2833Y1606D01*
X0Y1605D02*
X7Y1605D01*
X2826Y1605D02*
X2833Y1605D01*
X0Y1604D02*
X7Y1604D01*
X2826Y1604D02*
X2833Y1604D01*
X0Y1603D02*
X7Y1603D01*
X2826Y1603D02*
X2833Y1603D01*
X0Y1602D02*
X7Y1602D01*
X2826Y1602D02*
X2833Y1602D01*
X0Y1601D02*
X7Y1601D01*
X2826Y1601D02*
X2833Y1601D01*
X0Y1600D02*
X7Y1600D01*
X2826Y1600D02*
X2833Y1600D01*
X0Y1599D02*
X7Y1599D01*
X2826Y1599D02*
X2833Y1599D01*
X0Y1598D02*
X7Y1598D01*
X2826Y1598D02*
X2833Y1598D01*
X0Y1597D02*
X7Y1597D01*
X2826Y1597D02*
X2833Y1597D01*
X0Y1596D02*
X7Y1596D01*
X2826Y1596D02*
X2833Y1596D01*
X0Y1595D02*
X7Y1595D01*
X2826Y1595D02*
X2833Y1595D01*
X0Y1594D02*
X7Y1594D01*
X2826Y1594D02*
X2833Y1594D01*
X0Y1593D02*
X7Y1593D01*
X2826Y1593D02*
X2833Y1593D01*
X0Y1592D02*
X7Y1592D01*
X2826Y1592D02*
X2833Y1592D01*
X0Y1591D02*
X7Y1591D01*
X2826Y1591D02*
X2833Y1591D01*
X0Y1590D02*
X7Y1590D01*
X2826Y1590D02*
X2833Y1590D01*
X0Y1589D02*
X7Y1589D01*
X2826Y1589D02*
X2833Y1589D01*
X0Y1588D02*
X7Y1588D01*
X2826Y1588D02*
X2833Y1588D01*
X0Y1587D02*
X7Y1587D01*
X2826Y1587D02*
X2833Y1587D01*
X0Y1586D02*
X7Y1586D01*
X2826Y1586D02*
X2833Y1586D01*
X0Y1585D02*
X7Y1585D01*
X2826Y1585D02*
X2833Y1585D01*
X0Y1584D02*
X7Y1584D01*
X2826Y1584D02*
X2833Y1584D01*
X0Y1583D02*
X7Y1583D01*
X2826Y1583D02*
X2833Y1583D01*
X0Y1582D02*
X7Y1582D01*
X2826Y1582D02*
X2833Y1582D01*
X0Y1581D02*
X7Y1581D01*
X2826Y1581D02*
X2833Y1581D01*
X0Y1580D02*
X7Y1580D01*
X2826Y1580D02*
X2833Y1580D01*
X0Y1579D02*
X7Y1579D01*
X2826Y1579D02*
X2833Y1579D01*
X0Y1578D02*
X7Y1578D01*
X2826Y1578D02*
X2833Y1578D01*
X0Y1577D02*
X7Y1577D01*
X2826Y1577D02*
X2833Y1577D01*
X0Y1576D02*
X7Y1576D01*
X2826Y1576D02*
X2833Y1576D01*
X0Y1575D02*
X7Y1575D01*
X2826Y1575D02*
X2833Y1575D01*
X0Y1574D02*
X7Y1574D01*
X2826Y1574D02*
X2833Y1574D01*
X0Y1573D02*
X7Y1573D01*
X2826Y1573D02*
X2833Y1573D01*
X0Y1572D02*
X7Y1572D01*
X2826Y1572D02*
X2833Y1572D01*
X0Y1571D02*
X7Y1571D01*
X2826Y1571D02*
X2833Y1571D01*
X0Y1570D02*
X7Y1570D01*
X2826Y1570D02*
X2833Y1570D01*
X0Y1569D02*
X7Y1569D01*
X2826Y1569D02*
X2833Y1569D01*
X0Y1568D02*
X7Y1568D01*
X2826Y1568D02*
X2833Y1568D01*
X0Y1567D02*
X7Y1567D01*
X2826Y1567D02*
X2833Y1567D01*
X0Y1566D02*
X7Y1566D01*
X2826Y1566D02*
X2833Y1566D01*
X0Y1565D02*
X7Y1565D01*
X2826Y1565D02*
X2833Y1565D01*
X0Y1564D02*
X7Y1564D01*
X2826Y1564D02*
X2833Y1564D01*
X0Y1563D02*
X7Y1563D01*
X2826Y1563D02*
X2833Y1563D01*
X0Y1562D02*
X7Y1562D01*
X2826Y1562D02*
X2833Y1562D01*
X0Y1561D02*
X7Y1561D01*
X2826Y1561D02*
X2833Y1561D01*
X0Y1560D02*
X7Y1560D01*
X2826Y1560D02*
X2833Y1560D01*
X0Y1559D02*
X7Y1559D01*
X2826Y1559D02*
X2833Y1559D01*
X0Y1558D02*
X7Y1558D01*
X2826Y1558D02*
X2833Y1558D01*
X0Y1557D02*
X7Y1557D01*
X2826Y1557D02*
X2833Y1557D01*
X0Y1556D02*
X7Y1556D01*
X2826Y1556D02*
X2833Y1556D01*
X0Y1555D02*
X7Y1555D01*
X2826Y1555D02*
X2833Y1555D01*
X0Y1554D02*
X7Y1554D01*
X2826Y1554D02*
X2833Y1554D01*
X0Y1553D02*
X7Y1553D01*
X2826Y1553D02*
X2833Y1553D01*
X0Y1552D02*
X7Y1552D01*
X2826Y1552D02*
X2833Y1552D01*
X0Y1551D02*
X7Y1551D01*
X2826Y1551D02*
X2833Y1551D01*
X0Y1550D02*
X7Y1550D01*
X2826Y1550D02*
X2833Y1550D01*
X0Y1549D02*
X7Y1549D01*
X2826Y1549D02*
X2833Y1549D01*
X0Y1548D02*
X7Y1548D01*
X2826Y1548D02*
X2833Y1548D01*
X0Y1547D02*
X7Y1547D01*
X2826Y1547D02*
X2833Y1547D01*
X0Y1546D02*
X7Y1546D01*
X2826Y1546D02*
X2833Y1546D01*
X0Y1545D02*
X7Y1545D01*
X2826Y1545D02*
X2833Y1545D01*
X0Y1544D02*
X7Y1544D01*
X2826Y1544D02*
X2833Y1544D01*
X0Y1543D02*
X7Y1543D01*
X2826Y1543D02*
X2833Y1543D01*
X0Y1542D02*
X7Y1542D01*
X2826Y1542D02*
X2833Y1542D01*
X0Y1541D02*
X7Y1541D01*
X2826Y1541D02*
X2833Y1541D01*
X0Y1540D02*
X7Y1540D01*
X2826Y1540D02*
X2833Y1540D01*
X0Y1539D02*
X7Y1539D01*
X2826Y1539D02*
X2833Y1539D01*
X0Y1538D02*
X7Y1538D01*
X2826Y1538D02*
X2833Y1538D01*
X0Y1537D02*
X7Y1537D01*
X2826Y1537D02*
X2833Y1537D01*
X0Y1536D02*
X7Y1536D01*
X2826Y1536D02*
X2833Y1536D01*
X0Y1535D02*
X7Y1535D01*
X2826Y1535D02*
X2833Y1535D01*
X0Y1534D02*
X7Y1534D01*
X2826Y1534D02*
X2833Y1534D01*
X0Y1533D02*
X7Y1533D01*
X2826Y1533D02*
X2833Y1533D01*
X0Y1532D02*
X7Y1532D01*
X2826Y1532D02*
X2833Y1532D01*
X0Y1531D02*
X7Y1531D01*
X2826Y1531D02*
X2833Y1531D01*
X0Y1530D02*
X7Y1530D01*
X2826Y1530D02*
X2833Y1530D01*
X0Y1529D02*
X7Y1529D01*
X2826Y1529D02*
X2833Y1529D01*
X0Y1528D02*
X7Y1528D01*
X2826Y1528D02*
X2833Y1528D01*
X0Y1527D02*
X7Y1527D01*
X2826Y1527D02*
X2833Y1527D01*
X0Y1526D02*
X7Y1526D01*
X2826Y1526D02*
X2833Y1526D01*
X0Y1525D02*
X7Y1525D01*
X2826Y1525D02*
X2833Y1525D01*
X0Y1524D02*
X7Y1524D01*
X2826Y1524D02*
X2833Y1524D01*
X0Y1523D02*
X7Y1523D01*
X2826Y1523D02*
X2833Y1523D01*
X0Y1522D02*
X7Y1522D01*
X2826Y1522D02*
X2833Y1522D01*
X0Y1521D02*
X7Y1521D01*
X2826Y1521D02*
X2833Y1521D01*
X0Y1520D02*
X7Y1520D01*
X2826Y1520D02*
X2833Y1520D01*
X0Y1519D02*
X7Y1519D01*
X2826Y1519D02*
X2833Y1519D01*
X0Y1518D02*
X7Y1518D01*
X2826Y1518D02*
X2833Y1518D01*
X0Y1517D02*
X7Y1517D01*
X2826Y1517D02*
X2833Y1517D01*
X0Y1516D02*
X7Y1516D01*
X2826Y1516D02*
X2833Y1516D01*
X0Y1515D02*
X7Y1515D01*
X2826Y1515D02*
X2833Y1515D01*
X0Y1514D02*
X7Y1514D01*
X2826Y1514D02*
X2833Y1514D01*
X0Y1513D02*
X7Y1513D01*
X2826Y1513D02*
X2833Y1513D01*
X0Y1512D02*
X7Y1512D01*
X2826Y1512D02*
X2833Y1512D01*
X0Y1511D02*
X7Y1511D01*
X2826Y1511D02*
X2833Y1511D01*
X0Y1510D02*
X7Y1510D01*
X2826Y1510D02*
X2833Y1510D01*
X0Y1509D02*
X7Y1509D01*
X2826Y1509D02*
X2833Y1509D01*
X0Y1508D02*
X7Y1508D01*
X2826Y1508D02*
X2833Y1508D01*
X0Y1507D02*
X7Y1507D01*
X2826Y1507D02*
X2833Y1507D01*
X0Y1506D02*
X7Y1506D01*
X2826Y1506D02*
X2833Y1506D01*
X0Y1505D02*
X7Y1505D01*
X2826Y1505D02*
X2833Y1505D01*
X0Y1504D02*
X7Y1504D01*
X2826Y1504D02*
X2833Y1504D01*
X0Y1503D02*
X7Y1503D01*
X2826Y1503D02*
X2833Y1503D01*
X0Y1502D02*
X7Y1502D01*
X2826Y1502D02*
X2833Y1502D01*
X0Y1501D02*
X7Y1501D01*
X2826Y1501D02*
X2833Y1501D01*
X0Y1500D02*
X7Y1500D01*
X2826Y1500D02*
X2833Y1500D01*
X0Y1499D02*
X7Y1499D01*
X2826Y1499D02*
X2833Y1499D01*
X0Y1498D02*
X7Y1498D01*
X2826Y1498D02*
X2833Y1498D01*
X0Y1497D02*
X7Y1497D01*
X2826Y1497D02*
X2833Y1497D01*
X0Y1496D02*
X7Y1496D01*
X2826Y1496D02*
X2833Y1496D01*
X0Y1495D02*
X7Y1495D01*
X2826Y1495D02*
X2833Y1495D01*
X0Y1494D02*
X7Y1494D01*
X2826Y1494D02*
X2833Y1494D01*
X0Y1493D02*
X7Y1493D01*
X2826Y1493D02*
X2833Y1493D01*
X0Y1492D02*
X7Y1492D01*
X2826Y1492D02*
X2833Y1492D01*
X0Y1491D02*
X7Y1491D01*
X2826Y1491D02*
X2833Y1491D01*
X0Y1490D02*
X7Y1490D01*
X2826Y1490D02*
X2833Y1490D01*
X0Y1489D02*
X7Y1489D01*
X2826Y1489D02*
X2833Y1489D01*
X0Y1488D02*
X7Y1488D01*
X2826Y1488D02*
X2833Y1488D01*
X0Y1487D02*
X7Y1487D01*
X2826Y1487D02*
X2833Y1487D01*
X0Y1486D02*
X7Y1486D01*
X2826Y1486D02*
X2833Y1486D01*
X0Y1485D02*
X7Y1485D01*
X2826Y1485D02*
X2833Y1485D01*
X0Y1484D02*
X7Y1484D01*
X2826Y1484D02*
X2833Y1484D01*
X0Y1483D02*
X7Y1483D01*
X2826Y1483D02*
X2833Y1483D01*
X0Y1482D02*
X7Y1482D01*
X2826Y1482D02*
X2833Y1482D01*
X0Y1481D02*
X7Y1481D01*
X2826Y1481D02*
X2833Y1481D01*
X0Y1480D02*
X7Y1480D01*
X2826Y1480D02*
X2833Y1480D01*
X0Y1479D02*
X7Y1479D01*
X2826Y1479D02*
X2833Y1479D01*
X0Y1478D02*
X7Y1478D01*
X2826Y1478D02*
X2833Y1478D01*
X0Y1477D02*
X7Y1477D01*
X2826Y1477D02*
X2833Y1477D01*
X0Y1476D02*
X7Y1476D01*
X2826Y1476D02*
X2833Y1476D01*
X0Y1475D02*
X7Y1475D01*
X2826Y1475D02*
X2833Y1475D01*
X0Y1474D02*
X7Y1474D01*
X2826Y1474D02*
X2833Y1474D01*
X0Y1473D02*
X7Y1473D01*
X840Y1473D02*
X859Y1473D01*
X883Y1473D02*
X910Y1473D01*
X2826Y1473D02*
X2833Y1473D01*
X0Y1472D02*
X7Y1472D01*
X840Y1472D02*
X860Y1472D01*
X881Y1472D02*
X910Y1472D01*
X2826Y1472D02*
X2833Y1472D01*
X0Y1471D02*
X7Y1471D01*
X840Y1471D02*
X860Y1471D01*
X880Y1471D02*
X910Y1471D01*
X2826Y1471D02*
X2833Y1471D01*
X0Y1470D02*
X7Y1470D01*
X840Y1470D02*
X860Y1470D01*
X879Y1470D02*
X910Y1470D01*
X2826Y1470D02*
X2833Y1470D01*
X0Y1469D02*
X7Y1469D01*
X840Y1469D02*
X860Y1469D01*
X878Y1469D02*
X910Y1469D01*
X2826Y1469D02*
X2833Y1469D01*
X0Y1468D02*
X7Y1468D01*
X840Y1468D02*
X859Y1468D01*
X878Y1468D02*
X910Y1468D01*
X2826Y1468D02*
X2833Y1468D01*
X0Y1467D02*
X7Y1467D01*
X840Y1467D02*
X858Y1467D01*
X877Y1467D02*
X910Y1467D01*
X2826Y1467D02*
X2833Y1467D01*
X0Y1466D02*
X7Y1466D01*
X840Y1466D02*
X846Y1466D01*
X877Y1466D02*
X884Y1466D01*
X904Y1466D02*
X910Y1466D01*
X2826Y1466D02*
X2833Y1466D01*
X0Y1465D02*
X7Y1465D01*
X840Y1465D02*
X846Y1465D01*
X877Y1465D02*
X883Y1465D01*
X904Y1465D02*
X910Y1465D01*
X2826Y1465D02*
X2833Y1465D01*
X0Y1464D02*
X7Y1464D01*
X840Y1464D02*
X846Y1464D01*
X877Y1464D02*
X883Y1464D01*
X904Y1464D02*
X910Y1464D01*
X2826Y1464D02*
X2833Y1464D01*
X0Y1463D02*
X7Y1463D01*
X840Y1463D02*
X846Y1463D01*
X876Y1463D02*
X882Y1463D01*
X904Y1463D02*
X910Y1463D01*
X2826Y1463D02*
X2833Y1463D01*
X0Y1462D02*
X7Y1462D01*
X840Y1462D02*
X846Y1462D01*
X876Y1462D02*
X882Y1462D01*
X904Y1462D02*
X910Y1462D01*
X2826Y1462D02*
X2833Y1462D01*
X0Y1461D02*
X7Y1461D01*
X840Y1461D02*
X846Y1461D01*
X876Y1461D02*
X882Y1461D01*
X904Y1461D02*
X910Y1461D01*
X2826Y1461D02*
X2833Y1461D01*
X0Y1460D02*
X7Y1460D01*
X840Y1460D02*
X846Y1460D01*
X876Y1460D02*
X882Y1460D01*
X904Y1460D02*
X910Y1460D01*
X2826Y1460D02*
X2833Y1460D01*
X0Y1459D02*
X7Y1459D01*
X840Y1459D02*
X846Y1459D01*
X877Y1459D02*
X883Y1459D01*
X904Y1459D02*
X910Y1459D01*
X2826Y1459D02*
X2833Y1459D01*
X0Y1458D02*
X7Y1458D01*
X840Y1458D02*
X846Y1458D01*
X877Y1458D02*
X883Y1458D01*
X904Y1458D02*
X910Y1458D01*
X2826Y1458D02*
X2833Y1458D01*
X0Y1457D02*
X7Y1457D01*
X840Y1457D02*
X846Y1457D01*
X877Y1457D02*
X884Y1457D01*
X904Y1457D02*
X910Y1457D01*
X2826Y1457D02*
X2833Y1457D01*
X0Y1456D02*
X7Y1456D01*
X840Y1456D02*
X846Y1456D01*
X877Y1456D02*
X910Y1456D01*
X2826Y1456D02*
X2833Y1456D01*
X0Y1455D02*
X7Y1455D01*
X840Y1455D02*
X846Y1455D01*
X878Y1455D02*
X910Y1455D01*
X2826Y1455D02*
X2833Y1455D01*
X0Y1454D02*
X7Y1454D01*
X840Y1454D02*
X846Y1454D01*
X878Y1454D02*
X910Y1454D01*
X2826Y1454D02*
X2833Y1454D01*
X0Y1453D02*
X7Y1453D01*
X840Y1453D02*
X846Y1453D01*
X879Y1453D02*
X910Y1453D01*
X2826Y1453D02*
X2833Y1453D01*
X0Y1452D02*
X7Y1452D01*
X840Y1452D02*
X846Y1452D01*
X880Y1452D02*
X910Y1452D01*
X2826Y1452D02*
X2833Y1452D01*
X0Y1451D02*
X7Y1451D01*
X840Y1451D02*
X846Y1451D01*
X881Y1451D02*
X910Y1451D01*
X2826Y1451D02*
X2833Y1451D01*
X0Y1450D02*
X7Y1450D01*
X840Y1450D02*
X846Y1450D01*
X883Y1450D02*
X910Y1450D01*
X2826Y1450D02*
X2833Y1450D01*
X0Y1449D02*
X7Y1449D01*
X840Y1449D02*
X846Y1449D01*
X890Y1449D02*
X898Y1449D01*
X904Y1449D02*
X910Y1449D01*
X2826Y1449D02*
X2833Y1449D01*
X0Y1448D02*
X7Y1448D01*
X840Y1448D02*
X846Y1448D01*
X890Y1448D02*
X898Y1448D01*
X904Y1448D02*
X910Y1448D01*
X2826Y1448D02*
X2833Y1448D01*
X0Y1447D02*
X7Y1447D01*
X840Y1447D02*
X846Y1447D01*
X890Y1447D02*
X897Y1447D01*
X904Y1447D02*
X910Y1447D01*
X2826Y1447D02*
X2833Y1447D01*
X0Y1446D02*
X7Y1446D01*
X840Y1446D02*
X846Y1446D01*
X889Y1446D02*
X896Y1446D01*
X904Y1446D02*
X910Y1446D01*
X2826Y1446D02*
X2833Y1446D01*
X0Y1445D02*
X7Y1445D01*
X840Y1445D02*
X846Y1445D01*
X889Y1445D02*
X896Y1445D01*
X904Y1445D02*
X910Y1445D01*
X2826Y1445D02*
X2833Y1445D01*
X0Y1444D02*
X7Y1444D01*
X829Y1444D02*
X830Y1444D01*
X840Y1444D02*
X846Y1444D01*
X888Y1444D02*
X895Y1444D01*
X904Y1444D02*
X910Y1444D01*
X2826Y1444D02*
X2833Y1444D01*
X0Y1443D02*
X7Y1443D01*
X827Y1443D02*
X832Y1443D01*
X840Y1443D02*
X846Y1443D01*
X887Y1443D02*
X895Y1443D01*
X904Y1443D02*
X910Y1443D01*
X2826Y1443D02*
X2833Y1443D01*
X0Y1442D02*
X7Y1442D01*
X827Y1442D02*
X832Y1442D01*
X840Y1442D02*
X846Y1442D01*
X887Y1442D02*
X894Y1442D01*
X904Y1442D02*
X910Y1442D01*
X2826Y1442D02*
X2833Y1442D01*
X0Y1441D02*
X7Y1441D01*
X826Y1441D02*
X832Y1441D01*
X840Y1441D02*
X846Y1441D01*
X886Y1441D02*
X894Y1441D01*
X904Y1441D02*
X910Y1441D01*
X2826Y1441D02*
X2833Y1441D01*
X0Y1440D02*
X7Y1440D01*
X826Y1440D02*
X832Y1440D01*
X840Y1440D02*
X846Y1440D01*
X886Y1440D02*
X893Y1440D01*
X904Y1440D02*
X910Y1440D01*
X2826Y1440D02*
X2833Y1440D01*
X0Y1439D02*
X7Y1439D01*
X826Y1439D02*
X832Y1439D01*
X840Y1439D02*
X846Y1439D01*
X885Y1439D02*
X892Y1439D01*
X904Y1439D02*
X910Y1439D01*
X2826Y1439D02*
X2833Y1439D01*
X0Y1438D02*
X7Y1438D01*
X826Y1438D02*
X832Y1438D01*
X840Y1438D02*
X846Y1438D01*
X885Y1438D02*
X892Y1438D01*
X904Y1438D02*
X910Y1438D01*
X2826Y1438D02*
X2833Y1438D01*
X0Y1437D02*
X7Y1437D01*
X826Y1437D02*
X832Y1437D01*
X840Y1437D02*
X846Y1437D01*
X884Y1437D02*
X891Y1437D01*
X904Y1437D02*
X910Y1437D01*
X2826Y1437D02*
X2833Y1437D01*
X0Y1436D02*
X7Y1436D01*
X826Y1436D02*
X832Y1436D01*
X840Y1436D02*
X846Y1436D01*
X883Y1436D02*
X891Y1436D01*
X904Y1436D02*
X910Y1436D01*
X2826Y1436D02*
X2833Y1436D01*
X0Y1435D02*
X7Y1435D01*
X826Y1435D02*
X832Y1435D01*
X840Y1435D02*
X846Y1435D01*
X883Y1435D02*
X890Y1435D01*
X904Y1435D02*
X910Y1435D01*
X2826Y1435D02*
X2833Y1435D01*
X0Y1434D02*
X7Y1434D01*
X826Y1434D02*
X832Y1434D01*
X840Y1434D02*
X846Y1434D01*
X882Y1434D02*
X889Y1434D01*
X904Y1434D02*
X910Y1434D01*
X2826Y1434D02*
X2833Y1434D01*
X0Y1433D02*
X7Y1433D01*
X826Y1433D02*
X832Y1433D01*
X840Y1433D02*
X846Y1433D01*
X882Y1433D02*
X889Y1433D01*
X904Y1433D02*
X910Y1433D01*
X2826Y1433D02*
X2833Y1433D01*
X0Y1432D02*
X7Y1432D01*
X826Y1432D02*
X832Y1432D01*
X840Y1432D02*
X846Y1432D01*
X881Y1432D02*
X888Y1432D01*
X904Y1432D02*
X910Y1432D01*
X2826Y1432D02*
X2833Y1432D01*
X0Y1431D02*
X7Y1431D01*
X826Y1431D02*
X832Y1431D01*
X840Y1431D02*
X846Y1431D01*
X880Y1431D02*
X888Y1431D01*
X904Y1431D02*
X910Y1431D01*
X2826Y1431D02*
X2833Y1431D01*
X0Y1430D02*
X7Y1430D01*
X826Y1430D02*
X832Y1430D01*
X840Y1430D02*
X846Y1430D01*
X880Y1430D02*
X887Y1430D01*
X904Y1430D02*
X910Y1430D01*
X2826Y1430D02*
X2833Y1430D01*
X0Y1429D02*
X7Y1429D01*
X826Y1429D02*
X832Y1429D01*
X840Y1429D02*
X846Y1429D01*
X879Y1429D02*
X887Y1429D01*
X904Y1429D02*
X910Y1429D01*
X2826Y1429D02*
X2833Y1429D01*
X0Y1428D02*
X7Y1428D01*
X826Y1428D02*
X832Y1428D01*
X840Y1428D02*
X846Y1428D01*
X879Y1428D02*
X886Y1428D01*
X904Y1428D02*
X910Y1428D01*
X2826Y1428D02*
X2833Y1428D01*
X0Y1427D02*
X7Y1427D01*
X826Y1427D02*
X833Y1427D01*
X840Y1427D02*
X846Y1427D01*
X878Y1427D02*
X885Y1427D01*
X904Y1427D02*
X910Y1427D01*
X2826Y1427D02*
X2833Y1427D01*
X0Y1426D02*
X7Y1426D01*
X826Y1426D02*
X858Y1426D01*
X878Y1426D02*
X885Y1426D01*
X904Y1426D02*
X910Y1426D01*
X2826Y1426D02*
X2833Y1426D01*
X0Y1425D02*
X7Y1425D01*
X826Y1425D02*
X859Y1425D01*
X877Y1425D02*
X884Y1425D01*
X904Y1425D02*
X910Y1425D01*
X2826Y1425D02*
X2833Y1425D01*
X0Y1424D02*
X7Y1424D01*
X826Y1424D02*
X860Y1424D01*
X877Y1424D02*
X884Y1424D01*
X904Y1424D02*
X910Y1424D01*
X2826Y1424D02*
X2833Y1424D01*
X0Y1423D02*
X7Y1423D01*
X826Y1423D02*
X860Y1423D01*
X877Y1423D02*
X883Y1423D01*
X904Y1423D02*
X910Y1423D01*
X2826Y1423D02*
X2833Y1423D01*
X0Y1422D02*
X7Y1422D01*
X827Y1422D02*
X860Y1422D01*
X877Y1422D02*
X882Y1422D01*
X904Y1422D02*
X910Y1422D01*
X2826Y1422D02*
X2833Y1422D01*
X0Y1421D02*
X7Y1421D01*
X827Y1421D02*
X859Y1421D01*
X877Y1421D02*
X882Y1421D01*
X905Y1421D02*
X909Y1421D01*
X2826Y1421D02*
X2833Y1421D01*
X0Y1420D02*
X7Y1420D01*
X829Y1420D02*
X858Y1420D01*
X879Y1420D02*
X881Y1420D01*
X906Y1420D02*
X908Y1420D01*
X2826Y1420D02*
X2833Y1420D01*
X0Y1419D02*
X7Y1419D01*
X2826Y1419D02*
X2833Y1419D01*
X0Y1418D02*
X7Y1418D01*
X2826Y1418D02*
X2833Y1418D01*
X0Y1417D02*
X7Y1417D01*
X2826Y1417D02*
X2833Y1417D01*
X0Y1416D02*
X7Y1416D01*
X2826Y1416D02*
X2833Y1416D01*
X0Y1415D02*
X7Y1415D01*
X2826Y1415D02*
X2833Y1415D01*
X0Y1414D02*
X7Y1414D01*
X2826Y1414D02*
X2833Y1414D01*
X0Y1413D02*
X7Y1413D01*
X2826Y1413D02*
X2833Y1413D01*
X0Y1412D02*
X7Y1412D01*
X2826Y1412D02*
X2833Y1412D01*
X0Y1411D02*
X7Y1411D01*
X2826Y1411D02*
X2833Y1411D01*
X0Y1410D02*
X7Y1410D01*
X2826Y1410D02*
X2833Y1410D01*
X0Y1409D02*
X7Y1409D01*
X2826Y1409D02*
X2833Y1409D01*
X0Y1408D02*
X7Y1408D01*
X2826Y1408D02*
X2833Y1408D01*
X0Y1407D02*
X7Y1407D01*
X2826Y1407D02*
X2833Y1407D01*
X0Y1406D02*
X7Y1406D01*
X2826Y1406D02*
X2833Y1406D01*
X0Y1405D02*
X7Y1405D01*
X2826Y1405D02*
X2833Y1405D01*
X0Y1404D02*
X7Y1404D01*
X2826Y1404D02*
X2833Y1404D01*
X0Y1403D02*
X7Y1403D01*
X2826Y1403D02*
X2833Y1403D01*
X0Y1402D02*
X7Y1402D01*
X2826Y1402D02*
X2833Y1402D01*
X0Y1401D02*
X7Y1401D01*
X2826Y1401D02*
X2833Y1401D01*
X0Y1400D02*
X7Y1400D01*
X2826Y1400D02*
X2833Y1400D01*
X0Y1399D02*
X7Y1399D01*
X2826Y1399D02*
X2833Y1399D01*
X0Y1398D02*
X7Y1398D01*
X2826Y1398D02*
X2833Y1398D01*
X0Y1397D02*
X7Y1397D01*
X2826Y1397D02*
X2833Y1397D01*
X0Y1396D02*
X7Y1396D01*
X2826Y1396D02*
X2833Y1396D01*
X0Y1395D02*
X7Y1395D01*
X2826Y1395D02*
X2833Y1395D01*
X0Y1394D02*
X7Y1394D01*
X2826Y1394D02*
X2833Y1394D01*
X0Y1393D02*
X7Y1393D01*
X919Y1393D02*
X1119Y1393D01*
X2826Y1393D02*
X2833Y1393D01*
X0Y1392D02*
X7Y1392D01*
X919Y1392D02*
X1119Y1392D01*
X2826Y1392D02*
X2833Y1392D01*
X0Y1391D02*
X7Y1391D01*
X919Y1391D02*
X921Y1391D01*
X994Y1391D02*
X1043Y1391D01*
X1116Y1391D02*
X1119Y1391D01*
X2826Y1391D02*
X2833Y1391D01*
X0Y1390D02*
X7Y1390D01*
X919Y1390D02*
X921Y1390D01*
X995Y1390D02*
X1043Y1390D01*
X1117Y1390D02*
X1119Y1390D01*
X2826Y1390D02*
X2833Y1390D01*
X0Y1389D02*
X7Y1389D01*
X919Y1389D02*
X921Y1389D01*
X1117Y1389D02*
X1119Y1389D01*
X2826Y1389D02*
X2833Y1389D01*
X0Y1388D02*
X7Y1388D01*
X919Y1388D02*
X921Y1388D01*
X1117Y1388D02*
X1119Y1388D01*
X2826Y1388D02*
X2833Y1388D01*
X0Y1387D02*
X7Y1387D01*
X919Y1387D02*
X921Y1387D01*
X1117Y1387D02*
X1119Y1387D01*
X2826Y1387D02*
X2833Y1387D01*
X0Y1386D02*
X7Y1386D01*
X919Y1386D02*
X921Y1386D01*
X1117Y1386D02*
X1119Y1386D01*
X2826Y1386D02*
X2833Y1386D01*
X0Y1385D02*
X7Y1385D01*
X919Y1385D02*
X921Y1385D01*
X1117Y1385D02*
X1119Y1385D01*
X2826Y1385D02*
X2833Y1385D01*
X0Y1384D02*
X7Y1384D01*
X919Y1384D02*
X921Y1384D01*
X1117Y1384D02*
X1119Y1384D01*
X2826Y1384D02*
X2833Y1384D01*
X0Y1383D02*
X7Y1383D01*
X919Y1383D02*
X921Y1383D01*
X1117Y1383D02*
X1119Y1383D01*
X2826Y1383D02*
X2833Y1383D01*
X0Y1382D02*
X7Y1382D01*
X919Y1382D02*
X921Y1382D01*
X1117Y1382D02*
X1119Y1382D01*
X2826Y1382D02*
X2833Y1382D01*
X0Y1381D02*
X7Y1381D01*
X919Y1381D02*
X921Y1381D01*
X1117Y1381D02*
X1119Y1381D01*
X2826Y1381D02*
X2833Y1381D01*
X0Y1380D02*
X7Y1380D01*
X919Y1380D02*
X921Y1380D01*
X1117Y1380D02*
X1119Y1380D01*
X2826Y1380D02*
X2833Y1380D01*
X0Y1379D02*
X7Y1379D01*
X919Y1379D02*
X921Y1379D01*
X1117Y1379D02*
X1119Y1379D01*
X2826Y1379D02*
X2833Y1379D01*
X0Y1378D02*
X7Y1378D01*
X919Y1378D02*
X921Y1378D01*
X1117Y1378D02*
X1119Y1378D01*
X2826Y1378D02*
X2833Y1378D01*
X0Y1377D02*
X7Y1377D01*
X919Y1377D02*
X921Y1377D01*
X1117Y1377D02*
X1119Y1377D01*
X2826Y1377D02*
X2833Y1377D01*
X0Y1376D02*
X7Y1376D01*
X919Y1376D02*
X921Y1376D01*
X1117Y1376D02*
X1119Y1376D01*
X2826Y1376D02*
X2833Y1376D01*
X0Y1375D02*
X7Y1375D01*
X919Y1375D02*
X921Y1375D01*
X1117Y1375D02*
X1119Y1375D01*
X2826Y1375D02*
X2833Y1375D01*
X0Y1374D02*
X7Y1374D01*
X919Y1374D02*
X921Y1374D01*
X1117Y1374D02*
X1119Y1374D01*
X2826Y1374D02*
X2833Y1374D01*
X0Y1373D02*
X7Y1373D01*
X919Y1373D02*
X921Y1373D01*
X1117Y1373D02*
X1119Y1373D01*
X2826Y1373D02*
X2833Y1373D01*
X0Y1372D02*
X7Y1372D01*
X919Y1372D02*
X921Y1372D01*
X1117Y1372D02*
X1119Y1372D01*
X2826Y1372D02*
X2833Y1372D01*
X0Y1371D02*
X7Y1371D01*
X919Y1371D02*
X921Y1371D01*
X1117Y1371D02*
X1119Y1371D01*
X2826Y1371D02*
X2833Y1371D01*
X0Y1370D02*
X7Y1370D01*
X919Y1370D02*
X921Y1370D01*
X1117Y1370D02*
X1119Y1370D01*
X2826Y1370D02*
X2833Y1370D01*
X0Y1369D02*
X7Y1369D01*
X919Y1369D02*
X921Y1369D01*
X1117Y1369D02*
X1119Y1369D01*
X2826Y1369D02*
X2833Y1369D01*
X0Y1368D02*
X7Y1368D01*
X919Y1368D02*
X921Y1368D01*
X1117Y1368D02*
X1119Y1368D01*
X2826Y1368D02*
X2833Y1368D01*
X0Y1367D02*
X7Y1367D01*
X919Y1367D02*
X921Y1367D01*
X1117Y1367D02*
X1119Y1367D01*
X2826Y1367D02*
X2833Y1367D01*
X0Y1366D02*
X7Y1366D01*
X919Y1366D02*
X921Y1366D01*
X1117Y1366D02*
X1119Y1366D01*
X2826Y1366D02*
X2833Y1366D01*
X0Y1365D02*
X7Y1365D01*
X919Y1365D02*
X921Y1365D01*
X1117Y1365D02*
X1119Y1365D01*
X2826Y1365D02*
X2833Y1365D01*
X0Y1364D02*
X7Y1364D01*
X919Y1364D02*
X921Y1364D01*
X1117Y1364D02*
X1119Y1364D01*
X2826Y1364D02*
X2833Y1364D01*
X0Y1363D02*
X7Y1363D01*
X919Y1363D02*
X921Y1363D01*
X1117Y1363D02*
X1119Y1363D01*
X2826Y1363D02*
X2833Y1363D01*
X0Y1362D02*
X7Y1362D01*
X919Y1362D02*
X921Y1362D01*
X1117Y1362D02*
X1119Y1362D01*
X2826Y1362D02*
X2833Y1362D01*
X0Y1361D02*
X7Y1361D01*
X919Y1361D02*
X921Y1361D01*
X1117Y1361D02*
X1119Y1361D01*
X2826Y1361D02*
X2833Y1361D01*
X0Y1360D02*
X7Y1360D01*
X919Y1360D02*
X921Y1360D01*
X1117Y1360D02*
X1119Y1360D01*
X2826Y1360D02*
X2833Y1360D01*
X0Y1359D02*
X7Y1359D01*
X919Y1359D02*
X921Y1359D01*
X1117Y1359D02*
X1119Y1359D01*
X2826Y1359D02*
X2833Y1359D01*
X0Y1358D02*
X7Y1358D01*
X919Y1358D02*
X921Y1358D01*
X1117Y1358D02*
X1119Y1358D01*
X2826Y1358D02*
X2833Y1358D01*
X0Y1357D02*
X7Y1357D01*
X919Y1357D02*
X921Y1357D01*
X1117Y1357D02*
X1119Y1357D01*
X2826Y1357D02*
X2833Y1357D01*
X0Y1356D02*
X7Y1356D01*
X919Y1356D02*
X921Y1356D01*
X1117Y1356D02*
X1119Y1356D01*
X2826Y1356D02*
X2833Y1356D01*
X0Y1355D02*
X7Y1355D01*
X919Y1355D02*
X921Y1355D01*
X1117Y1355D02*
X1119Y1355D01*
X2826Y1355D02*
X2833Y1355D01*
X0Y1354D02*
X7Y1354D01*
X919Y1354D02*
X921Y1354D01*
X1117Y1354D02*
X1119Y1354D01*
X2826Y1354D02*
X2833Y1354D01*
X0Y1353D02*
X7Y1353D01*
X919Y1353D02*
X921Y1353D01*
X1117Y1353D02*
X1119Y1353D01*
X2826Y1353D02*
X2833Y1353D01*
X0Y1352D02*
X7Y1352D01*
X919Y1352D02*
X921Y1352D01*
X1117Y1352D02*
X1119Y1352D01*
X2826Y1352D02*
X2833Y1352D01*
X0Y1351D02*
X7Y1351D01*
X919Y1351D02*
X921Y1351D01*
X1117Y1351D02*
X1119Y1351D01*
X2826Y1351D02*
X2833Y1351D01*
X0Y1350D02*
X7Y1350D01*
X919Y1350D02*
X921Y1350D01*
X1117Y1350D02*
X1119Y1350D01*
X2826Y1350D02*
X2833Y1350D01*
X0Y1349D02*
X7Y1349D01*
X919Y1349D02*
X921Y1349D01*
X1117Y1349D02*
X1119Y1349D01*
X2826Y1349D02*
X2833Y1349D01*
X0Y1348D02*
X7Y1348D01*
X919Y1348D02*
X921Y1348D01*
X1117Y1348D02*
X1119Y1348D01*
X2826Y1348D02*
X2833Y1348D01*
X0Y1347D02*
X7Y1347D01*
X919Y1347D02*
X921Y1347D01*
X1117Y1347D02*
X1119Y1347D01*
X2826Y1347D02*
X2833Y1347D01*
X0Y1346D02*
X7Y1346D01*
X919Y1346D02*
X921Y1346D01*
X1117Y1346D02*
X1119Y1346D01*
X2826Y1346D02*
X2833Y1346D01*
X0Y1345D02*
X7Y1345D01*
X919Y1345D02*
X921Y1345D01*
X1117Y1345D02*
X1119Y1345D01*
X2826Y1345D02*
X2833Y1345D01*
X0Y1344D02*
X7Y1344D01*
X919Y1344D02*
X921Y1344D01*
X1117Y1344D02*
X1119Y1344D01*
X2826Y1344D02*
X2833Y1344D01*
X0Y1343D02*
X7Y1343D01*
X919Y1343D02*
X921Y1343D01*
X1117Y1343D02*
X1119Y1343D01*
X2826Y1343D02*
X2833Y1343D01*
X0Y1342D02*
X7Y1342D01*
X919Y1342D02*
X921Y1342D01*
X1117Y1342D02*
X1119Y1342D01*
X2826Y1342D02*
X2833Y1342D01*
X0Y1341D02*
X7Y1341D01*
X919Y1341D02*
X921Y1341D01*
X1117Y1341D02*
X1119Y1341D01*
X2826Y1341D02*
X2833Y1341D01*
X0Y1340D02*
X7Y1340D01*
X919Y1340D02*
X921Y1340D01*
X1117Y1340D02*
X1119Y1340D01*
X2826Y1340D02*
X2833Y1340D01*
X0Y1339D02*
X7Y1339D01*
X919Y1339D02*
X921Y1339D01*
X1117Y1339D02*
X1119Y1339D01*
X2826Y1339D02*
X2833Y1339D01*
X0Y1338D02*
X7Y1338D01*
X919Y1338D02*
X921Y1338D01*
X1117Y1338D02*
X1119Y1338D01*
X2826Y1338D02*
X2833Y1338D01*
X0Y1337D02*
X7Y1337D01*
X919Y1337D02*
X921Y1337D01*
X1117Y1337D02*
X1119Y1337D01*
X2826Y1337D02*
X2833Y1337D01*
X0Y1336D02*
X7Y1336D01*
X919Y1336D02*
X921Y1336D01*
X1117Y1336D02*
X1119Y1336D01*
X2826Y1336D02*
X2833Y1336D01*
X0Y1335D02*
X7Y1335D01*
X919Y1335D02*
X921Y1335D01*
X1117Y1335D02*
X1119Y1335D01*
X2826Y1335D02*
X2833Y1335D01*
X0Y1334D02*
X7Y1334D01*
X919Y1334D02*
X921Y1334D01*
X1117Y1334D02*
X1119Y1334D01*
X2826Y1334D02*
X2833Y1334D01*
X0Y1333D02*
X7Y1333D01*
X919Y1333D02*
X921Y1333D01*
X1117Y1333D02*
X1119Y1333D01*
X2826Y1333D02*
X2833Y1333D01*
X0Y1332D02*
X7Y1332D01*
X919Y1332D02*
X921Y1332D01*
X1117Y1332D02*
X1119Y1332D01*
X2826Y1332D02*
X2833Y1332D01*
X0Y1331D02*
X7Y1331D01*
X919Y1331D02*
X921Y1331D01*
X1117Y1331D02*
X1119Y1331D01*
X2826Y1331D02*
X2833Y1331D01*
X0Y1330D02*
X7Y1330D01*
X919Y1330D02*
X921Y1330D01*
X1117Y1330D02*
X1119Y1330D01*
X2826Y1330D02*
X2833Y1330D01*
X0Y1329D02*
X7Y1329D01*
X919Y1329D02*
X921Y1329D01*
X1117Y1329D02*
X1119Y1329D01*
X2826Y1329D02*
X2833Y1329D01*
X0Y1328D02*
X7Y1328D01*
X919Y1328D02*
X921Y1328D01*
X1117Y1328D02*
X1119Y1328D01*
X2826Y1328D02*
X2833Y1328D01*
X0Y1327D02*
X7Y1327D01*
X919Y1327D02*
X921Y1327D01*
X1117Y1327D02*
X1119Y1327D01*
X2826Y1327D02*
X2833Y1327D01*
X0Y1326D02*
X7Y1326D01*
X919Y1326D02*
X921Y1326D01*
X1117Y1326D02*
X1119Y1326D01*
X2826Y1326D02*
X2833Y1326D01*
X0Y1325D02*
X7Y1325D01*
X919Y1325D02*
X921Y1325D01*
X1117Y1325D02*
X1119Y1325D01*
X2826Y1325D02*
X2833Y1325D01*
X0Y1324D02*
X7Y1324D01*
X919Y1324D02*
X921Y1324D01*
X1117Y1324D02*
X1119Y1324D01*
X2826Y1324D02*
X2833Y1324D01*
X0Y1323D02*
X7Y1323D01*
X919Y1323D02*
X921Y1323D01*
X1117Y1323D02*
X1119Y1323D01*
X2826Y1323D02*
X2833Y1323D01*
X0Y1322D02*
X7Y1322D01*
X919Y1322D02*
X921Y1322D01*
X1117Y1322D02*
X1119Y1322D01*
X2826Y1322D02*
X2833Y1322D01*
X0Y1321D02*
X7Y1321D01*
X919Y1321D02*
X921Y1321D01*
X1117Y1321D02*
X1119Y1321D01*
X2826Y1321D02*
X2833Y1321D01*
X0Y1320D02*
X7Y1320D01*
X919Y1320D02*
X921Y1320D01*
X1117Y1320D02*
X1119Y1320D01*
X2826Y1320D02*
X2833Y1320D01*
X0Y1319D02*
X7Y1319D01*
X919Y1319D02*
X921Y1319D01*
X1117Y1319D02*
X1119Y1319D01*
X2826Y1319D02*
X2833Y1319D01*
X0Y1318D02*
X7Y1318D01*
X919Y1318D02*
X921Y1318D01*
X1117Y1318D02*
X1119Y1318D01*
X2826Y1318D02*
X2833Y1318D01*
X0Y1317D02*
X7Y1317D01*
X919Y1317D02*
X921Y1317D01*
X1117Y1317D02*
X1119Y1317D01*
X2826Y1317D02*
X2833Y1317D01*
X0Y1316D02*
X7Y1316D01*
X919Y1316D02*
X921Y1316D01*
X1117Y1316D02*
X1119Y1316D01*
X2826Y1316D02*
X2833Y1316D01*
X0Y1315D02*
X7Y1315D01*
X919Y1315D02*
X921Y1315D01*
X1117Y1315D02*
X1119Y1315D01*
X2826Y1315D02*
X2833Y1315D01*
X0Y1314D02*
X7Y1314D01*
X919Y1314D02*
X921Y1314D01*
X1117Y1314D02*
X1119Y1314D01*
X2826Y1314D02*
X2833Y1314D01*
X0Y1313D02*
X7Y1313D01*
X919Y1313D02*
X921Y1313D01*
X1117Y1313D02*
X1119Y1313D01*
X2826Y1313D02*
X2833Y1313D01*
X0Y1312D02*
X7Y1312D01*
X919Y1312D02*
X921Y1312D01*
X1117Y1312D02*
X1119Y1312D01*
X2826Y1312D02*
X2833Y1312D01*
X0Y1311D02*
X7Y1311D01*
X919Y1311D02*
X921Y1311D01*
X1117Y1311D02*
X1119Y1311D01*
X2826Y1311D02*
X2833Y1311D01*
X0Y1310D02*
X7Y1310D01*
X919Y1310D02*
X921Y1310D01*
X1117Y1310D02*
X1119Y1310D01*
X2826Y1310D02*
X2833Y1310D01*
X0Y1309D02*
X7Y1309D01*
X919Y1309D02*
X921Y1309D01*
X1117Y1309D02*
X1119Y1309D01*
X2826Y1309D02*
X2833Y1309D01*
X0Y1308D02*
X7Y1308D01*
X919Y1308D02*
X921Y1308D01*
X1117Y1308D02*
X1119Y1308D01*
X2826Y1308D02*
X2833Y1308D01*
X0Y1307D02*
X7Y1307D01*
X919Y1307D02*
X921Y1307D01*
X995Y1307D02*
X1043Y1307D01*
X1117Y1307D02*
X1119Y1307D01*
X2826Y1307D02*
X2833Y1307D01*
X0Y1306D02*
X7Y1306D01*
X919Y1306D02*
X1119Y1306D01*
X2826Y1306D02*
X2833Y1306D01*
X0Y1305D02*
X7Y1305D01*
X919Y1305D02*
X1119Y1305D01*
X2826Y1305D02*
X2833Y1305D01*
X0Y1304D02*
X7Y1304D01*
X919Y1304D02*
X1119Y1304D01*
X2826Y1304D02*
X2833Y1304D01*
X0Y1303D02*
X7Y1303D01*
X2826Y1303D02*
X2833Y1303D01*
X0Y1302D02*
X7Y1302D01*
X2826Y1302D02*
X2833Y1302D01*
X0Y1301D02*
X7Y1301D01*
X2826Y1301D02*
X2833Y1301D01*
X0Y1300D02*
X7Y1300D01*
X2826Y1300D02*
X2833Y1300D01*
X0Y1299D02*
X7Y1299D01*
X2826Y1299D02*
X2833Y1299D01*
X0Y1298D02*
X7Y1298D01*
X2826Y1298D02*
X2833Y1298D01*
X0Y1297D02*
X7Y1297D01*
X2826Y1297D02*
X2833Y1297D01*
X0Y1296D02*
X7Y1296D01*
X2826Y1296D02*
X2833Y1296D01*
X0Y1295D02*
X7Y1295D01*
X2826Y1295D02*
X2833Y1295D01*
X0Y1294D02*
X7Y1294D01*
X2826Y1294D02*
X2833Y1294D01*
X0Y1293D02*
X7Y1293D01*
X2826Y1293D02*
X2833Y1293D01*
X0Y1292D02*
X7Y1292D01*
X2826Y1292D02*
X2833Y1292D01*
X0Y1291D02*
X7Y1291D01*
X2826Y1291D02*
X2833Y1291D01*
X0Y1290D02*
X7Y1290D01*
X2826Y1290D02*
X2833Y1290D01*
X0Y1289D02*
X7Y1289D01*
X2826Y1289D02*
X2833Y1289D01*
X0Y1288D02*
X7Y1288D01*
X2826Y1288D02*
X2833Y1288D01*
X0Y1287D02*
X7Y1287D01*
X2826Y1287D02*
X2833Y1287D01*
X0Y1286D02*
X7Y1286D01*
X2826Y1286D02*
X2833Y1286D01*
X0Y1285D02*
X7Y1285D01*
X2826Y1285D02*
X2833Y1285D01*
X0Y1284D02*
X7Y1284D01*
X2826Y1284D02*
X2833Y1284D01*
X0Y1283D02*
X7Y1283D01*
X2826Y1283D02*
X2833Y1283D01*
X0Y1282D02*
X7Y1282D01*
X2826Y1282D02*
X2833Y1282D01*
X0Y1281D02*
X7Y1281D01*
X2826Y1281D02*
X2833Y1281D01*
X0Y1280D02*
X7Y1280D01*
X2826Y1280D02*
X2833Y1280D01*
X0Y1279D02*
X7Y1279D01*
X2826Y1279D02*
X2833Y1279D01*
X0Y1278D02*
X7Y1278D01*
X2826Y1278D02*
X2833Y1278D01*
X0Y1277D02*
X7Y1277D01*
X2826Y1277D02*
X2833Y1277D01*
X0Y1276D02*
X7Y1276D01*
X2826Y1276D02*
X2833Y1276D01*
X0Y1275D02*
X7Y1275D01*
X2826Y1275D02*
X2833Y1275D01*
X0Y1274D02*
X7Y1274D01*
X2826Y1274D02*
X2833Y1274D01*
X0Y1273D02*
X7Y1273D01*
X2826Y1273D02*
X2833Y1273D01*
X0Y1272D02*
X7Y1272D01*
X2826Y1272D02*
X2833Y1272D01*
X0Y1271D02*
X7Y1271D01*
X2826Y1271D02*
X2833Y1271D01*
X0Y1270D02*
X7Y1270D01*
X2826Y1270D02*
X2833Y1270D01*
X0Y1269D02*
X7Y1269D01*
X2826Y1269D02*
X2833Y1269D01*
X0Y1268D02*
X7Y1268D01*
X2826Y1268D02*
X2833Y1268D01*
X0Y1267D02*
X7Y1267D01*
X2826Y1267D02*
X2833Y1267D01*
X0Y1266D02*
X7Y1266D01*
X2826Y1266D02*
X2833Y1266D01*
X0Y1265D02*
X7Y1265D01*
X2826Y1265D02*
X2833Y1265D01*
X0Y1264D02*
X7Y1264D01*
X2826Y1264D02*
X2833Y1264D01*
X0Y1263D02*
X7Y1263D01*
X2826Y1263D02*
X2833Y1263D01*
X0Y1262D02*
X7Y1262D01*
X2826Y1262D02*
X2833Y1262D01*
X0Y1261D02*
X7Y1261D01*
X2826Y1261D02*
X2833Y1261D01*
X0Y1260D02*
X7Y1260D01*
X2826Y1260D02*
X2833Y1260D01*
X0Y1259D02*
X7Y1259D01*
X2826Y1259D02*
X2833Y1259D01*
X0Y1258D02*
X7Y1258D01*
X2826Y1258D02*
X2833Y1258D01*
X0Y1257D02*
X7Y1257D01*
X2826Y1257D02*
X2833Y1257D01*
X0Y1256D02*
X7Y1256D01*
X2826Y1256D02*
X2833Y1256D01*
X0Y1255D02*
X7Y1255D01*
X2826Y1255D02*
X2833Y1255D01*
X0Y1254D02*
X7Y1254D01*
X2826Y1254D02*
X2833Y1254D01*
X0Y1253D02*
X7Y1253D01*
X2826Y1253D02*
X2833Y1253D01*
X0Y1252D02*
X7Y1252D01*
X2826Y1252D02*
X2833Y1252D01*
X0Y1251D02*
X7Y1251D01*
X2826Y1251D02*
X2833Y1251D01*
X0Y1250D02*
X7Y1250D01*
X2826Y1250D02*
X2833Y1250D01*
X0Y1249D02*
X7Y1249D01*
X2826Y1249D02*
X2833Y1249D01*
X0Y1248D02*
X7Y1248D01*
X2826Y1248D02*
X2833Y1248D01*
X0Y1247D02*
X7Y1247D01*
X2826Y1247D02*
X2833Y1247D01*
X0Y1246D02*
X7Y1246D01*
X2826Y1246D02*
X2833Y1246D01*
X0Y1245D02*
X7Y1245D01*
X2826Y1245D02*
X2833Y1245D01*
X0Y1244D02*
X7Y1244D01*
X2826Y1244D02*
X2833Y1244D01*
X0Y1243D02*
X7Y1243D01*
X2826Y1243D02*
X2833Y1243D01*
X0Y1242D02*
X7Y1242D01*
X2826Y1242D02*
X2833Y1242D01*
X0Y1241D02*
X7Y1241D01*
X2826Y1241D02*
X2833Y1241D01*
X0Y1240D02*
X7Y1240D01*
X2826Y1240D02*
X2833Y1240D01*
X0Y1239D02*
X7Y1239D01*
X2826Y1239D02*
X2833Y1239D01*
X0Y1238D02*
X7Y1238D01*
X2826Y1238D02*
X2833Y1238D01*
X0Y1237D02*
X7Y1237D01*
X2826Y1237D02*
X2833Y1237D01*
X0Y1236D02*
X7Y1236D01*
X2826Y1236D02*
X2833Y1236D01*
X0Y1235D02*
X7Y1235D01*
X2826Y1235D02*
X2833Y1235D01*
X0Y1234D02*
X7Y1234D01*
X2826Y1234D02*
X2833Y1234D01*
X0Y1233D02*
X7Y1233D01*
X2826Y1233D02*
X2833Y1233D01*
X0Y1232D02*
X7Y1232D01*
X2826Y1232D02*
X2833Y1232D01*
X0Y1231D02*
X7Y1231D01*
X2826Y1231D02*
X2833Y1231D01*
X0Y1230D02*
X7Y1230D01*
X2826Y1230D02*
X2833Y1230D01*
X0Y1229D02*
X7Y1229D01*
X2826Y1229D02*
X2833Y1229D01*
X0Y1228D02*
X7Y1228D01*
X2826Y1228D02*
X2833Y1228D01*
X0Y1227D02*
X7Y1227D01*
X2826Y1227D02*
X2833Y1227D01*
X0Y1226D02*
X7Y1226D01*
X2826Y1226D02*
X2833Y1226D01*
X0Y1225D02*
X7Y1225D01*
X2826Y1225D02*
X2833Y1225D01*
X0Y1224D02*
X7Y1224D01*
X2826Y1224D02*
X2833Y1224D01*
X0Y1223D02*
X7Y1223D01*
X2826Y1223D02*
X2833Y1223D01*
X0Y1222D02*
X7Y1222D01*
X2826Y1222D02*
X2833Y1222D01*
X0Y1221D02*
X7Y1221D01*
X2826Y1221D02*
X2833Y1221D01*
X0Y1220D02*
X7Y1220D01*
X2826Y1220D02*
X2833Y1220D01*
X0Y1219D02*
X7Y1219D01*
X2826Y1219D02*
X2833Y1219D01*
X0Y1218D02*
X7Y1218D01*
X2826Y1218D02*
X2833Y1218D01*
X0Y1217D02*
X7Y1217D01*
X2826Y1217D02*
X2833Y1217D01*
X0Y1216D02*
X7Y1216D01*
X2826Y1216D02*
X2833Y1216D01*
X0Y1215D02*
X7Y1215D01*
X2826Y1215D02*
X2833Y1215D01*
X0Y1214D02*
X7Y1214D01*
X2826Y1214D02*
X2833Y1214D01*
X0Y1213D02*
X7Y1213D01*
X2826Y1213D02*
X2833Y1213D01*
X0Y1212D02*
X7Y1212D01*
X2826Y1212D02*
X2833Y1212D01*
X0Y1211D02*
X7Y1211D01*
X2826Y1211D02*
X2833Y1211D01*
X0Y1210D02*
X7Y1210D01*
X2826Y1210D02*
X2833Y1210D01*
X0Y1209D02*
X7Y1209D01*
X2826Y1209D02*
X2833Y1209D01*
X0Y1208D02*
X7Y1208D01*
X2826Y1208D02*
X2833Y1208D01*
X0Y1207D02*
X7Y1207D01*
X2826Y1207D02*
X2833Y1207D01*
X0Y1206D02*
X7Y1206D01*
X2826Y1206D02*
X2833Y1206D01*
X0Y1205D02*
X7Y1205D01*
X2826Y1205D02*
X2833Y1205D01*
X0Y1204D02*
X7Y1204D01*
X2826Y1204D02*
X2833Y1204D01*
X0Y1203D02*
X7Y1203D01*
X2826Y1203D02*
X2833Y1203D01*
X0Y1202D02*
X7Y1202D01*
X2826Y1202D02*
X2833Y1202D01*
X0Y1201D02*
X7Y1201D01*
X2826Y1201D02*
X2833Y1201D01*
X0Y1200D02*
X7Y1200D01*
X2826Y1200D02*
X2833Y1200D01*
X0Y1199D02*
X7Y1199D01*
X2826Y1199D02*
X2833Y1199D01*
X0Y1198D02*
X7Y1198D01*
X2826Y1198D02*
X2833Y1198D01*
X0Y1197D02*
X7Y1197D01*
X2826Y1197D02*
X2833Y1197D01*
X0Y1196D02*
X7Y1196D01*
X2826Y1196D02*
X2833Y1196D01*
X0Y1195D02*
X7Y1195D01*
X2826Y1195D02*
X2833Y1195D01*
X0Y1194D02*
X7Y1194D01*
X2826Y1194D02*
X2833Y1194D01*
X0Y1193D02*
X7Y1193D01*
X2826Y1193D02*
X2833Y1193D01*
X0Y1192D02*
X7Y1192D01*
X2826Y1192D02*
X2833Y1192D01*
X0Y1191D02*
X7Y1191D01*
X2826Y1191D02*
X2833Y1191D01*
X0Y1190D02*
X7Y1190D01*
X2826Y1190D02*
X2833Y1190D01*
X0Y1189D02*
X7Y1189D01*
X2826Y1189D02*
X2833Y1189D01*
X0Y1188D02*
X7Y1188D01*
X2826Y1188D02*
X2833Y1188D01*
X0Y1187D02*
X7Y1187D01*
X2826Y1187D02*
X2833Y1187D01*
X0Y1186D02*
X7Y1186D01*
X2826Y1186D02*
X2833Y1186D01*
X0Y1185D02*
X7Y1185D01*
X2826Y1185D02*
X2833Y1185D01*
X0Y1184D02*
X7Y1184D01*
X2826Y1184D02*
X2833Y1184D01*
X0Y1183D02*
X7Y1183D01*
X2826Y1183D02*
X2833Y1183D01*
X0Y1182D02*
X7Y1182D01*
X2826Y1182D02*
X2833Y1182D01*
X0Y1181D02*
X7Y1181D01*
X2826Y1181D02*
X2833Y1181D01*
X0Y1180D02*
X7Y1180D01*
X2826Y1180D02*
X2833Y1180D01*
X0Y1179D02*
X7Y1179D01*
X2826Y1179D02*
X2833Y1179D01*
X0Y1178D02*
X7Y1178D01*
X2826Y1178D02*
X2833Y1178D01*
X0Y1177D02*
X7Y1177D01*
X2826Y1177D02*
X2833Y1177D01*
X0Y1176D02*
X7Y1176D01*
X2826Y1176D02*
X2833Y1176D01*
X0Y1175D02*
X7Y1175D01*
X2826Y1175D02*
X2833Y1175D01*
X0Y1174D02*
X7Y1174D01*
X2826Y1174D02*
X2833Y1174D01*
X0Y1173D02*
X7Y1173D01*
X2826Y1173D02*
X2833Y1173D01*
X0Y1172D02*
X7Y1172D01*
X2826Y1172D02*
X2833Y1172D01*
X0Y1171D02*
X7Y1171D01*
X2826Y1171D02*
X2833Y1171D01*
X0Y1170D02*
X7Y1170D01*
X2826Y1170D02*
X2833Y1170D01*
X0Y1169D02*
X7Y1169D01*
X2826Y1169D02*
X2833Y1169D01*
X0Y1168D02*
X7Y1168D01*
X2826Y1168D02*
X2833Y1168D01*
X0Y1167D02*
X7Y1167D01*
X2826Y1167D02*
X2833Y1167D01*
X0Y1166D02*
X7Y1166D01*
X2826Y1166D02*
X2833Y1166D01*
X0Y1165D02*
X7Y1165D01*
X2826Y1165D02*
X2833Y1165D01*
X0Y1164D02*
X7Y1164D01*
X2826Y1164D02*
X2833Y1164D01*
X0Y1163D02*
X7Y1163D01*
X2826Y1163D02*
X2833Y1163D01*
X0Y1162D02*
X7Y1162D01*
X2826Y1162D02*
X2833Y1162D01*
X0Y1161D02*
X7Y1161D01*
X2826Y1161D02*
X2833Y1161D01*
X0Y1160D02*
X7Y1160D01*
X2826Y1160D02*
X2833Y1160D01*
X0Y1159D02*
X7Y1159D01*
X2826Y1159D02*
X2833Y1159D01*
X0Y1158D02*
X7Y1158D01*
X2826Y1158D02*
X2833Y1158D01*
X0Y1157D02*
X7Y1157D01*
X2826Y1157D02*
X2833Y1157D01*
X0Y1156D02*
X7Y1156D01*
X2826Y1156D02*
X2833Y1156D01*
X0Y1155D02*
X7Y1155D01*
X2826Y1155D02*
X2833Y1155D01*
X0Y1154D02*
X7Y1154D01*
X2826Y1154D02*
X2833Y1154D01*
X0Y1153D02*
X7Y1153D01*
X2826Y1153D02*
X2833Y1153D01*
X0Y1152D02*
X7Y1152D01*
X2826Y1152D02*
X2833Y1152D01*
X0Y1151D02*
X7Y1151D01*
X2826Y1151D02*
X2833Y1151D01*
X0Y1150D02*
X7Y1150D01*
X2826Y1150D02*
X2833Y1150D01*
X0Y1149D02*
X7Y1149D01*
X2826Y1149D02*
X2833Y1149D01*
X0Y1148D02*
X7Y1148D01*
X2826Y1148D02*
X2833Y1148D01*
X0Y1147D02*
X7Y1147D01*
X2826Y1147D02*
X2833Y1147D01*
X0Y1146D02*
X7Y1146D01*
X2826Y1146D02*
X2833Y1146D01*
X0Y1145D02*
X7Y1145D01*
X2826Y1145D02*
X2833Y1145D01*
X0Y1144D02*
X7Y1144D01*
X2826Y1144D02*
X2833Y1144D01*
X0Y1143D02*
X7Y1143D01*
X2826Y1143D02*
X2833Y1143D01*
X0Y1142D02*
X7Y1142D01*
X2826Y1142D02*
X2833Y1142D01*
X0Y1141D02*
X7Y1141D01*
X2826Y1141D02*
X2833Y1141D01*
X0Y1140D02*
X7Y1140D01*
X2826Y1140D02*
X2833Y1140D01*
X0Y1139D02*
X7Y1139D01*
X2826Y1139D02*
X2833Y1139D01*
X0Y1138D02*
X7Y1138D01*
X2826Y1138D02*
X2833Y1138D01*
X0Y1137D02*
X7Y1137D01*
X2826Y1137D02*
X2833Y1137D01*
X0Y1136D02*
X7Y1136D01*
X2826Y1136D02*
X2833Y1136D01*
X0Y1135D02*
X7Y1135D01*
X2826Y1135D02*
X2833Y1135D01*
X0Y1134D02*
X7Y1134D01*
X2826Y1134D02*
X2833Y1134D01*
X0Y1133D02*
X7Y1133D01*
X2826Y1133D02*
X2833Y1133D01*
X0Y1132D02*
X7Y1132D01*
X2826Y1132D02*
X2833Y1132D01*
X0Y1131D02*
X7Y1131D01*
X2826Y1131D02*
X2833Y1131D01*
X0Y1130D02*
X7Y1130D01*
X2826Y1130D02*
X2833Y1130D01*
X0Y1129D02*
X7Y1129D01*
X2826Y1129D02*
X2833Y1129D01*
X0Y1128D02*
X7Y1128D01*
X2826Y1128D02*
X2833Y1128D01*
X0Y1127D02*
X7Y1127D01*
X2826Y1127D02*
X2833Y1127D01*
X0Y1126D02*
X7Y1126D01*
X2826Y1126D02*
X2833Y1126D01*
X0Y1125D02*
X7Y1125D01*
X2826Y1125D02*
X2833Y1125D01*
X0Y1124D02*
X7Y1124D01*
X2826Y1124D02*
X2833Y1124D01*
X0Y1123D02*
X7Y1123D01*
X2826Y1123D02*
X2833Y1123D01*
X0Y1122D02*
X7Y1122D01*
X2826Y1122D02*
X2833Y1122D01*
X0Y1121D02*
X7Y1121D01*
X2826Y1121D02*
X2833Y1121D01*
X0Y1120D02*
X7Y1120D01*
X2826Y1120D02*
X2833Y1120D01*
X0Y1119D02*
X7Y1119D01*
X2826Y1119D02*
X2833Y1119D01*
X0Y1118D02*
X7Y1118D01*
X2826Y1118D02*
X2833Y1118D01*
X0Y1117D02*
X7Y1117D01*
X2826Y1117D02*
X2833Y1117D01*
X0Y1116D02*
X7Y1116D01*
X2826Y1116D02*
X2833Y1116D01*
X0Y1115D02*
X7Y1115D01*
X2826Y1115D02*
X2833Y1115D01*
X0Y1114D02*
X7Y1114D01*
X2826Y1114D02*
X2833Y1114D01*
X0Y1113D02*
X7Y1113D01*
X2826Y1113D02*
X2833Y1113D01*
X0Y1112D02*
X7Y1112D01*
X2826Y1112D02*
X2833Y1112D01*
X0Y1111D02*
X7Y1111D01*
X2826Y1111D02*
X2833Y1111D01*
X0Y1110D02*
X7Y1110D01*
X2826Y1110D02*
X2833Y1110D01*
X0Y1109D02*
X7Y1109D01*
X2826Y1109D02*
X2833Y1109D01*
X0Y1108D02*
X7Y1108D01*
X2826Y1108D02*
X2833Y1108D01*
X0Y1107D02*
X7Y1107D01*
X2826Y1107D02*
X2833Y1107D01*
X0Y1106D02*
X7Y1106D01*
X2826Y1106D02*
X2833Y1106D01*
X0Y1105D02*
X7Y1105D01*
X2826Y1105D02*
X2833Y1105D01*
X0Y1104D02*
X7Y1104D01*
X2826Y1104D02*
X2833Y1104D01*
X0Y1103D02*
X7Y1103D01*
X2826Y1103D02*
X2833Y1103D01*
X0Y1102D02*
X7Y1102D01*
X2826Y1102D02*
X2833Y1102D01*
X0Y1101D02*
X7Y1101D01*
X2826Y1101D02*
X2833Y1101D01*
X0Y1100D02*
X7Y1100D01*
X2826Y1100D02*
X2833Y1100D01*
X0Y1099D02*
X7Y1099D01*
X2826Y1099D02*
X2833Y1099D01*
X0Y1098D02*
X7Y1098D01*
X2826Y1098D02*
X2833Y1098D01*
X0Y1097D02*
X7Y1097D01*
X2826Y1097D02*
X2833Y1097D01*
X0Y1096D02*
X7Y1096D01*
X2826Y1096D02*
X2833Y1096D01*
X0Y1095D02*
X7Y1095D01*
X2826Y1095D02*
X2833Y1095D01*
X0Y1094D02*
X7Y1094D01*
X2826Y1094D02*
X2833Y1094D01*
X0Y1093D02*
X7Y1093D01*
X2826Y1093D02*
X2833Y1093D01*
X0Y1092D02*
X7Y1092D01*
X2826Y1092D02*
X2833Y1092D01*
X0Y1091D02*
X7Y1091D01*
X2826Y1091D02*
X2833Y1091D01*
X0Y1090D02*
X7Y1090D01*
X2826Y1090D02*
X2833Y1090D01*
X0Y1089D02*
X7Y1089D01*
X2826Y1089D02*
X2833Y1089D01*
X0Y1088D02*
X7Y1088D01*
X2826Y1088D02*
X2833Y1088D01*
X0Y1087D02*
X7Y1087D01*
X2826Y1087D02*
X2833Y1087D01*
X0Y1086D02*
X7Y1086D01*
X2826Y1086D02*
X2833Y1086D01*
X0Y1085D02*
X7Y1085D01*
X2826Y1085D02*
X2833Y1085D01*
X0Y1084D02*
X7Y1084D01*
X2826Y1084D02*
X2833Y1084D01*
X0Y1083D02*
X7Y1083D01*
X2826Y1083D02*
X2833Y1083D01*
X0Y1082D02*
X7Y1082D01*
X2826Y1082D02*
X2833Y1082D01*
X0Y1081D02*
X7Y1081D01*
X2826Y1081D02*
X2833Y1081D01*
X0Y1080D02*
X7Y1080D01*
X2826Y1080D02*
X2833Y1080D01*
X0Y1079D02*
X7Y1079D01*
X2826Y1079D02*
X2833Y1079D01*
X0Y1078D02*
X7Y1078D01*
X2826Y1078D02*
X2833Y1078D01*
X0Y1077D02*
X7Y1077D01*
X2826Y1077D02*
X2833Y1077D01*
X0Y1076D02*
X7Y1076D01*
X2826Y1076D02*
X2833Y1076D01*
X0Y1075D02*
X7Y1075D01*
X2826Y1075D02*
X2833Y1075D01*
X0Y1074D02*
X7Y1074D01*
X2826Y1074D02*
X2833Y1074D01*
X0Y1073D02*
X7Y1073D01*
X2826Y1073D02*
X2833Y1073D01*
X0Y1072D02*
X7Y1072D01*
X2826Y1072D02*
X2833Y1072D01*
X0Y1071D02*
X7Y1071D01*
X2826Y1071D02*
X2833Y1071D01*
X0Y1070D02*
X7Y1070D01*
X2826Y1070D02*
X2833Y1070D01*
X0Y1069D02*
X7Y1069D01*
X2826Y1069D02*
X2833Y1069D01*
X0Y1068D02*
X7Y1068D01*
X2826Y1068D02*
X2833Y1068D01*
X0Y1067D02*
X7Y1067D01*
X2826Y1067D02*
X2833Y1067D01*
X0Y1066D02*
X7Y1066D01*
X2826Y1066D02*
X2833Y1066D01*
X0Y1065D02*
X7Y1065D01*
X2826Y1065D02*
X2833Y1065D01*
X0Y1064D02*
X7Y1064D01*
X2826Y1064D02*
X2833Y1064D01*
X0Y1063D02*
X7Y1063D01*
X2826Y1063D02*
X2833Y1063D01*
X0Y1062D02*
X7Y1062D01*
X2826Y1062D02*
X2833Y1062D01*
X0Y1061D02*
X7Y1061D01*
X2826Y1061D02*
X2833Y1061D01*
X0Y1060D02*
X7Y1060D01*
X2826Y1060D02*
X2833Y1060D01*
X0Y1059D02*
X7Y1059D01*
X2826Y1059D02*
X2833Y1059D01*
X0Y1058D02*
X7Y1058D01*
X2826Y1058D02*
X2833Y1058D01*
X0Y1057D02*
X7Y1057D01*
X2826Y1057D02*
X2833Y1057D01*
X0Y1056D02*
X7Y1056D01*
X2826Y1056D02*
X2833Y1056D01*
X0Y1055D02*
X7Y1055D01*
X2826Y1055D02*
X2833Y1055D01*
X0Y1054D02*
X7Y1054D01*
X2826Y1054D02*
X2833Y1054D01*
X0Y1053D02*
X7Y1053D01*
X2826Y1053D02*
X2833Y1053D01*
X0Y1052D02*
X7Y1052D01*
X2826Y1052D02*
X2833Y1052D01*
X0Y1051D02*
X7Y1051D01*
X2826Y1051D02*
X2833Y1051D01*
X0Y1050D02*
X7Y1050D01*
X2826Y1050D02*
X2833Y1050D01*
X0Y1049D02*
X7Y1049D01*
X2826Y1049D02*
X2833Y1049D01*
X0Y1048D02*
X7Y1048D01*
X2826Y1048D02*
X2833Y1048D01*
X0Y1047D02*
X7Y1047D01*
X2826Y1047D02*
X2833Y1047D01*
X0Y1046D02*
X7Y1046D01*
X2826Y1046D02*
X2833Y1046D01*
X0Y1045D02*
X7Y1045D01*
X2826Y1045D02*
X2833Y1045D01*
X0Y1044D02*
X7Y1044D01*
X2826Y1044D02*
X2833Y1044D01*
X0Y1043D02*
X7Y1043D01*
X2826Y1043D02*
X2833Y1043D01*
X0Y1042D02*
X7Y1042D01*
X2826Y1042D02*
X2833Y1042D01*
X0Y1041D02*
X7Y1041D01*
X2826Y1041D02*
X2833Y1041D01*
X0Y1040D02*
X7Y1040D01*
X2826Y1040D02*
X2833Y1040D01*
X0Y1039D02*
X7Y1039D01*
X2826Y1039D02*
X2833Y1039D01*
X0Y1038D02*
X7Y1038D01*
X2826Y1038D02*
X2833Y1038D01*
X0Y1037D02*
X7Y1037D01*
X2826Y1037D02*
X2833Y1037D01*
X0Y1036D02*
X7Y1036D01*
X2826Y1036D02*
X2833Y1036D01*
X0Y1035D02*
X7Y1035D01*
X2826Y1035D02*
X2833Y1035D01*
X0Y1034D02*
X7Y1034D01*
X2826Y1034D02*
X2833Y1034D01*
X0Y1033D02*
X7Y1033D01*
X2826Y1033D02*
X2833Y1033D01*
X0Y1032D02*
X7Y1032D01*
X2826Y1032D02*
X2833Y1032D01*
X0Y1031D02*
X7Y1031D01*
X2826Y1031D02*
X2833Y1031D01*
X0Y1030D02*
X7Y1030D01*
X2826Y1030D02*
X2833Y1030D01*
X0Y1029D02*
X7Y1029D01*
X2826Y1029D02*
X2833Y1029D01*
X0Y1028D02*
X7Y1028D01*
X2826Y1028D02*
X2833Y1028D01*
X0Y1027D02*
X7Y1027D01*
X2826Y1027D02*
X2833Y1027D01*
X0Y1026D02*
X7Y1026D01*
X2826Y1026D02*
X2833Y1026D01*
X0Y1025D02*
X7Y1025D01*
X2826Y1025D02*
X2833Y1025D01*
X0Y1024D02*
X7Y1024D01*
X2826Y1024D02*
X2833Y1024D01*
X0Y1023D02*
X7Y1023D01*
X2826Y1023D02*
X2833Y1023D01*
X0Y1022D02*
X7Y1022D01*
X2826Y1022D02*
X2833Y1022D01*
X0Y1021D02*
X7Y1021D01*
X2826Y1021D02*
X2833Y1021D01*
X0Y1020D02*
X7Y1020D01*
X2826Y1020D02*
X2833Y1020D01*
X0Y1019D02*
X7Y1019D01*
X2826Y1019D02*
X2833Y1019D01*
X0Y1018D02*
X7Y1018D01*
X2826Y1018D02*
X2833Y1018D01*
X0Y1017D02*
X7Y1017D01*
X2826Y1017D02*
X2833Y1017D01*
X0Y1016D02*
X7Y1016D01*
X2826Y1016D02*
X2833Y1016D01*
X0Y1015D02*
X7Y1015D01*
X2826Y1015D02*
X2833Y1015D01*
X0Y1014D02*
X7Y1014D01*
X2826Y1014D02*
X2833Y1014D01*
X0Y1013D02*
X7Y1013D01*
X2826Y1013D02*
X2833Y1013D01*
X0Y1012D02*
X7Y1012D01*
X2826Y1012D02*
X2833Y1012D01*
X0Y1011D02*
X7Y1011D01*
X2826Y1011D02*
X2833Y1011D01*
X0Y1010D02*
X7Y1010D01*
X2826Y1010D02*
X2833Y1010D01*
X0Y1009D02*
X7Y1009D01*
X2826Y1009D02*
X2833Y1009D01*
X0Y1008D02*
X7Y1008D01*
X2826Y1008D02*
X2833Y1008D01*
X0Y1007D02*
X7Y1007D01*
X2826Y1007D02*
X2833Y1007D01*
X0Y1006D02*
X7Y1006D01*
X2826Y1006D02*
X2833Y1006D01*
X0Y1005D02*
X7Y1005D01*
X2826Y1005D02*
X2833Y1005D01*
X0Y1004D02*
X7Y1004D01*
X2826Y1004D02*
X2833Y1004D01*
X0Y1003D02*
X7Y1003D01*
X2826Y1003D02*
X2833Y1003D01*
X0Y1002D02*
X7Y1002D01*
X2826Y1002D02*
X2833Y1002D01*
X0Y1001D02*
X7Y1001D01*
X2826Y1001D02*
X2833Y1001D01*
X0Y1000D02*
X7Y1000D01*
X2826Y1000D02*
X2833Y1000D01*
X0Y999D02*
X7Y999D01*
X2826Y999D02*
X2833Y999D01*
X0Y998D02*
X7Y998D01*
X2826Y998D02*
X2833Y998D01*
X0Y997D02*
X7Y997D01*
X2826Y997D02*
X2833Y997D01*
X0Y996D02*
X7Y996D01*
X2826Y996D02*
X2833Y996D01*
X0Y995D02*
X7Y995D01*
X2826Y995D02*
X2833Y995D01*
X0Y994D02*
X7Y994D01*
X2826Y994D02*
X2833Y994D01*
X0Y993D02*
X7Y993D01*
X2826Y993D02*
X2833Y993D01*
X0Y992D02*
X7Y992D01*
X2826Y992D02*
X2833Y992D01*
X0Y991D02*
X7Y991D01*
X2826Y991D02*
X2833Y991D01*
X0Y990D02*
X7Y990D01*
X2826Y990D02*
X2833Y990D01*
X0Y989D02*
X7Y989D01*
X2826Y989D02*
X2833Y989D01*
X0Y988D02*
X7Y988D01*
X2826Y988D02*
X2833Y988D01*
X0Y987D02*
X7Y987D01*
X2826Y987D02*
X2833Y987D01*
X0Y986D02*
X7Y986D01*
X2826Y986D02*
X2833Y986D01*
X0Y985D02*
X7Y985D01*
X2826Y985D02*
X2833Y985D01*
X0Y984D02*
X7Y984D01*
X2826Y984D02*
X2833Y984D01*
X0Y983D02*
X7Y983D01*
X2826Y983D02*
X2833Y983D01*
X0Y982D02*
X7Y982D01*
X2826Y982D02*
X2833Y982D01*
X0Y981D02*
X7Y981D01*
X2826Y981D02*
X2833Y981D01*
X0Y980D02*
X7Y980D01*
X2826Y980D02*
X2833Y980D01*
X0Y979D02*
X7Y979D01*
X2826Y979D02*
X2833Y979D01*
X0Y978D02*
X7Y978D01*
X2826Y978D02*
X2833Y978D01*
X0Y977D02*
X7Y977D01*
X2826Y977D02*
X2833Y977D01*
X0Y976D02*
X7Y976D01*
X2826Y976D02*
X2833Y976D01*
X0Y975D02*
X7Y975D01*
X2826Y975D02*
X2833Y975D01*
X0Y974D02*
X7Y974D01*
X2826Y974D02*
X2833Y974D01*
X0Y973D02*
X7Y973D01*
X2826Y973D02*
X2833Y973D01*
X0Y972D02*
X7Y972D01*
X2826Y972D02*
X2833Y972D01*
X0Y971D02*
X7Y971D01*
X2826Y971D02*
X2833Y971D01*
X0Y970D02*
X7Y970D01*
X2826Y970D02*
X2833Y970D01*
X0Y969D02*
X7Y969D01*
X2826Y969D02*
X2833Y969D01*
X0Y968D02*
X7Y968D01*
X2826Y968D02*
X2833Y968D01*
X0Y967D02*
X7Y967D01*
X2826Y967D02*
X2833Y967D01*
X0Y966D02*
X7Y966D01*
X2826Y966D02*
X2833Y966D01*
X0Y965D02*
X7Y965D01*
X2826Y965D02*
X2833Y965D01*
X0Y964D02*
X7Y964D01*
X2826Y964D02*
X2833Y964D01*
X0Y963D02*
X7Y963D01*
X2826Y963D02*
X2833Y963D01*
X0Y962D02*
X7Y962D01*
X2826Y962D02*
X2833Y962D01*
X0Y961D02*
X7Y961D01*
X2826Y961D02*
X2833Y961D01*
X0Y960D02*
X7Y960D01*
X2826Y960D02*
X2833Y960D01*
X0Y959D02*
X7Y959D01*
X2826Y959D02*
X2833Y959D01*
X0Y958D02*
X7Y958D01*
X2826Y958D02*
X2833Y958D01*
X0Y957D02*
X7Y957D01*
X2826Y957D02*
X2833Y957D01*
X0Y956D02*
X7Y956D01*
X2826Y956D02*
X2833Y956D01*
X0Y955D02*
X7Y955D01*
X2826Y955D02*
X2833Y955D01*
X0Y954D02*
X7Y954D01*
X2826Y954D02*
X2833Y954D01*
X0Y953D02*
X7Y953D01*
X2826Y953D02*
X2833Y953D01*
X0Y952D02*
X7Y952D01*
X2826Y952D02*
X2833Y952D01*
X0Y951D02*
X7Y951D01*
X2826Y951D02*
X2833Y951D01*
X0Y950D02*
X7Y950D01*
X2826Y950D02*
X2833Y950D01*
X0Y949D02*
X7Y949D01*
X2826Y949D02*
X2833Y949D01*
X0Y948D02*
X7Y948D01*
X2826Y948D02*
X2833Y948D01*
X0Y947D02*
X7Y947D01*
X2826Y947D02*
X2833Y947D01*
X0Y946D02*
X7Y946D01*
X2826Y946D02*
X2833Y946D01*
X0Y945D02*
X7Y945D01*
X2826Y945D02*
X2833Y945D01*
X0Y944D02*
X7Y944D01*
X2826Y944D02*
X2833Y944D01*
X0Y943D02*
X7Y943D01*
X2826Y943D02*
X2833Y943D01*
X0Y942D02*
X7Y942D01*
X2826Y942D02*
X2833Y942D01*
X0Y941D02*
X7Y941D01*
X2826Y941D02*
X2833Y941D01*
X0Y940D02*
X7Y940D01*
X2826Y940D02*
X2833Y940D01*
X0Y939D02*
X7Y939D01*
X2826Y939D02*
X2833Y939D01*
X0Y938D02*
X7Y938D01*
X2826Y938D02*
X2833Y938D01*
X0Y937D02*
X7Y937D01*
X2826Y937D02*
X2833Y937D01*
X0Y936D02*
X7Y936D01*
X2826Y936D02*
X2833Y936D01*
X0Y935D02*
X7Y935D01*
X2826Y935D02*
X2833Y935D01*
X0Y934D02*
X7Y934D01*
X2826Y934D02*
X2833Y934D01*
X0Y933D02*
X7Y933D01*
X2826Y933D02*
X2833Y933D01*
X0Y932D02*
X7Y932D01*
X2826Y932D02*
X2833Y932D01*
X0Y931D02*
X7Y931D01*
X2826Y931D02*
X2833Y931D01*
X0Y930D02*
X7Y930D01*
X2826Y930D02*
X2833Y930D01*
X0Y929D02*
X7Y929D01*
X2826Y929D02*
X2833Y929D01*
X0Y928D02*
X7Y928D01*
X2826Y928D02*
X2833Y928D01*
X0Y927D02*
X7Y927D01*
X2826Y927D02*
X2833Y927D01*
X0Y926D02*
X7Y926D01*
X2826Y926D02*
X2833Y926D01*
X0Y925D02*
X7Y925D01*
X2826Y925D02*
X2833Y925D01*
X0Y924D02*
X7Y924D01*
X2826Y924D02*
X2833Y924D01*
X0Y923D02*
X7Y923D01*
X2826Y923D02*
X2833Y923D01*
X0Y922D02*
X7Y922D01*
X2826Y922D02*
X2833Y922D01*
X0Y921D02*
X7Y921D01*
X2826Y921D02*
X2833Y921D01*
X0Y920D02*
X7Y920D01*
X2826Y920D02*
X2833Y920D01*
X0Y919D02*
X7Y919D01*
X2826Y919D02*
X2833Y919D01*
X0Y918D02*
X7Y918D01*
X2826Y918D02*
X2833Y918D01*
X0Y917D02*
X7Y917D01*
X2826Y917D02*
X2833Y917D01*
X0Y916D02*
X7Y916D01*
X2826Y916D02*
X2833Y916D01*
X0Y915D02*
X7Y915D01*
X2826Y915D02*
X2833Y915D01*
X0Y914D02*
X7Y914D01*
X2826Y914D02*
X2833Y914D01*
X0Y913D02*
X7Y913D01*
X2826Y913D02*
X2833Y913D01*
X0Y912D02*
X7Y912D01*
X2826Y912D02*
X2833Y912D01*
X0Y911D02*
X7Y911D01*
X2826Y911D02*
X2833Y911D01*
X0Y910D02*
X7Y910D01*
X2826Y910D02*
X2833Y910D01*
X0Y909D02*
X7Y909D01*
X2826Y909D02*
X2833Y909D01*
X0Y908D02*
X7Y908D01*
X2826Y908D02*
X2833Y908D01*
X0Y907D02*
X7Y907D01*
X2826Y907D02*
X2833Y907D01*
X0Y906D02*
X7Y906D01*
X2826Y906D02*
X2833Y906D01*
X0Y905D02*
X7Y905D01*
X2826Y905D02*
X2833Y905D01*
X0Y904D02*
X7Y904D01*
X2826Y904D02*
X2833Y904D01*
X0Y903D02*
X7Y903D01*
X2826Y903D02*
X2833Y903D01*
X0Y902D02*
X7Y902D01*
X2826Y902D02*
X2833Y902D01*
X0Y901D02*
X7Y901D01*
X2826Y901D02*
X2833Y901D01*
X0Y900D02*
X7Y900D01*
X2826Y900D02*
X2833Y900D01*
X0Y899D02*
X7Y899D01*
X2826Y899D02*
X2833Y899D01*
X0Y898D02*
X7Y898D01*
X2826Y898D02*
X2833Y898D01*
X0Y897D02*
X7Y897D01*
X2826Y897D02*
X2833Y897D01*
X0Y896D02*
X7Y896D01*
X2826Y896D02*
X2833Y896D01*
X0Y895D02*
X7Y895D01*
X2826Y895D02*
X2833Y895D01*
X0Y894D02*
X7Y894D01*
X2826Y894D02*
X2833Y894D01*
X0Y893D02*
X7Y893D01*
X2826Y893D02*
X2833Y893D01*
X0Y892D02*
X7Y892D01*
X2826Y892D02*
X2833Y892D01*
X0Y891D02*
X7Y891D01*
X2826Y891D02*
X2833Y891D01*
X0Y890D02*
X7Y890D01*
X2826Y890D02*
X2833Y890D01*
X0Y889D02*
X7Y889D01*
X2826Y889D02*
X2833Y889D01*
X0Y888D02*
X7Y888D01*
X2826Y888D02*
X2833Y888D01*
X0Y887D02*
X7Y887D01*
X2826Y887D02*
X2833Y887D01*
X0Y886D02*
X7Y886D01*
X2826Y886D02*
X2833Y886D01*
X0Y885D02*
X7Y885D01*
X2826Y885D02*
X2833Y885D01*
X0Y884D02*
X7Y884D01*
X2826Y884D02*
X2833Y884D01*
X0Y883D02*
X7Y883D01*
X2826Y883D02*
X2833Y883D01*
X0Y882D02*
X7Y882D01*
X2826Y882D02*
X2833Y882D01*
X0Y881D02*
X7Y881D01*
X2826Y881D02*
X2833Y881D01*
X0Y880D02*
X7Y880D01*
X2826Y880D02*
X2833Y880D01*
X0Y879D02*
X7Y879D01*
X2826Y879D02*
X2833Y879D01*
X0Y878D02*
X7Y878D01*
X2826Y878D02*
X2833Y878D01*
X0Y877D02*
X7Y877D01*
X2826Y877D02*
X2833Y877D01*
X0Y876D02*
X7Y876D01*
X2826Y876D02*
X2833Y876D01*
X0Y875D02*
X7Y875D01*
X2826Y875D02*
X2833Y875D01*
X0Y874D02*
X7Y874D01*
X2826Y874D02*
X2833Y874D01*
X0Y873D02*
X7Y873D01*
X2826Y873D02*
X2833Y873D01*
X0Y872D02*
X7Y872D01*
X2826Y872D02*
X2833Y872D01*
X0Y871D02*
X7Y871D01*
X2826Y871D02*
X2833Y871D01*
X0Y870D02*
X7Y870D01*
X2826Y870D02*
X2833Y870D01*
X0Y869D02*
X7Y869D01*
X2826Y869D02*
X2833Y869D01*
X0Y868D02*
X7Y868D01*
X2826Y868D02*
X2833Y868D01*
X0Y867D02*
X7Y867D01*
X2826Y867D02*
X2833Y867D01*
X0Y866D02*
X7Y866D01*
X2826Y866D02*
X2833Y866D01*
X0Y865D02*
X7Y865D01*
X2826Y865D02*
X2833Y865D01*
X0Y864D02*
X7Y864D01*
X2826Y864D02*
X2833Y864D01*
X0Y863D02*
X7Y863D01*
X2826Y863D02*
X2833Y863D01*
X0Y862D02*
X7Y862D01*
X2826Y862D02*
X2833Y862D01*
X0Y861D02*
X7Y861D01*
X2826Y861D02*
X2833Y861D01*
X0Y860D02*
X7Y860D01*
X2826Y860D02*
X2833Y860D01*
X0Y859D02*
X7Y859D01*
X2826Y859D02*
X2833Y859D01*
X0Y858D02*
X7Y858D01*
X2826Y858D02*
X2833Y858D01*
X0Y857D02*
X7Y857D01*
X2826Y857D02*
X2833Y857D01*
X0Y856D02*
X7Y856D01*
X2826Y856D02*
X2833Y856D01*
X0Y855D02*
X7Y855D01*
X2826Y855D02*
X2833Y855D01*
X0Y854D02*
X7Y854D01*
X2826Y854D02*
X2833Y854D01*
X0Y853D02*
X7Y853D01*
X2826Y853D02*
X2833Y853D01*
X0Y852D02*
X7Y852D01*
X2826Y852D02*
X2833Y852D01*
X0Y851D02*
X7Y851D01*
X2826Y851D02*
X2833Y851D01*
X0Y850D02*
X7Y850D01*
X2826Y850D02*
X2833Y850D01*
X0Y849D02*
X7Y849D01*
X2826Y849D02*
X2833Y849D01*
X0Y848D02*
X7Y848D01*
X2826Y848D02*
X2833Y848D01*
X0Y847D02*
X7Y847D01*
X2826Y847D02*
X2833Y847D01*
X0Y846D02*
X7Y846D01*
X2826Y846D02*
X2833Y846D01*
X0Y845D02*
X7Y845D01*
X2826Y845D02*
X2833Y845D01*
X0Y844D02*
X7Y844D01*
X2826Y844D02*
X2833Y844D01*
X0Y843D02*
X7Y843D01*
X2826Y843D02*
X2833Y843D01*
X0Y842D02*
X7Y842D01*
X2826Y842D02*
X2833Y842D01*
X0Y841D02*
X7Y841D01*
X2826Y841D02*
X2833Y841D01*
X0Y840D02*
X7Y840D01*
X2826Y840D02*
X2833Y840D01*
X0Y839D02*
X7Y839D01*
X2826Y839D02*
X2833Y839D01*
X0Y838D02*
X7Y838D01*
X2826Y838D02*
X2833Y838D01*
X0Y837D02*
X7Y837D01*
X2826Y837D02*
X2833Y837D01*
X0Y836D02*
X7Y836D01*
X2826Y836D02*
X2833Y836D01*
X0Y835D02*
X7Y835D01*
X2826Y835D02*
X2833Y835D01*
X0Y834D02*
X7Y834D01*
X2826Y834D02*
X2833Y834D01*
X0Y833D02*
X7Y833D01*
X2826Y833D02*
X2833Y833D01*
X0Y832D02*
X7Y832D01*
X2826Y832D02*
X2833Y832D01*
X0Y831D02*
X7Y831D01*
X2826Y831D02*
X2833Y831D01*
X0Y830D02*
X7Y830D01*
X2826Y830D02*
X2833Y830D01*
X0Y829D02*
X7Y829D01*
X2826Y829D02*
X2833Y829D01*
X0Y828D02*
X7Y828D01*
X2826Y828D02*
X2833Y828D01*
X0Y827D02*
X7Y827D01*
X2826Y827D02*
X2833Y827D01*
X0Y826D02*
X7Y826D01*
X2826Y826D02*
X2833Y826D01*
X0Y825D02*
X7Y825D01*
X2826Y825D02*
X2833Y825D01*
X0Y824D02*
X7Y824D01*
X2826Y824D02*
X2833Y824D01*
X0Y823D02*
X7Y823D01*
X2826Y823D02*
X2833Y823D01*
X0Y822D02*
X7Y822D01*
X2826Y822D02*
X2833Y822D01*
X0Y821D02*
X7Y821D01*
X2826Y821D02*
X2833Y821D01*
X0Y820D02*
X7Y820D01*
X2826Y820D02*
X2833Y820D01*
X0Y819D02*
X7Y819D01*
X2826Y819D02*
X2833Y819D01*
X0Y818D02*
X7Y818D01*
X2826Y818D02*
X2833Y818D01*
X0Y817D02*
X7Y817D01*
X2826Y817D02*
X2833Y817D01*
X0Y816D02*
X7Y816D01*
X2826Y816D02*
X2833Y816D01*
X0Y815D02*
X7Y815D01*
X2826Y815D02*
X2833Y815D01*
X0Y814D02*
X7Y814D01*
X2826Y814D02*
X2833Y814D01*
X0Y813D02*
X7Y813D01*
X2826Y813D02*
X2833Y813D01*
X0Y812D02*
X7Y812D01*
X2826Y812D02*
X2833Y812D01*
X0Y811D02*
X7Y811D01*
X2826Y811D02*
X2833Y811D01*
X0Y810D02*
X7Y810D01*
X2826Y810D02*
X2833Y810D01*
X0Y809D02*
X7Y809D01*
X2826Y809D02*
X2833Y809D01*
X0Y808D02*
X7Y808D01*
X2826Y808D02*
X2833Y808D01*
X0Y807D02*
X7Y807D01*
X2826Y807D02*
X2833Y807D01*
X0Y806D02*
X7Y806D01*
X2826Y806D02*
X2833Y806D01*
X0Y805D02*
X7Y805D01*
X2826Y805D02*
X2833Y805D01*
X0Y804D02*
X7Y804D01*
X2826Y804D02*
X2833Y804D01*
X0Y803D02*
X7Y803D01*
X2826Y803D02*
X2833Y803D01*
X0Y802D02*
X7Y802D01*
X2826Y802D02*
X2833Y802D01*
X0Y801D02*
X7Y801D01*
X2826Y801D02*
X2833Y801D01*
X0Y800D02*
X7Y800D01*
X2826Y800D02*
X2833Y800D01*
X0Y799D02*
X7Y799D01*
X2826Y799D02*
X2833Y799D01*
X0Y798D02*
X7Y798D01*
X2826Y798D02*
X2833Y798D01*
X0Y797D02*
X7Y797D01*
X2826Y797D02*
X2833Y797D01*
X0Y796D02*
X7Y796D01*
X2826Y796D02*
X2833Y796D01*
X0Y795D02*
X7Y795D01*
X2826Y795D02*
X2833Y795D01*
X0Y794D02*
X7Y794D01*
X2826Y794D02*
X2833Y794D01*
X0Y793D02*
X7Y793D01*
X2826Y793D02*
X2833Y793D01*
X0Y792D02*
X7Y792D01*
X2826Y792D02*
X2833Y792D01*
X0Y791D02*
X7Y791D01*
X2826Y791D02*
X2833Y791D01*
X0Y790D02*
X7Y790D01*
X2826Y790D02*
X2833Y790D01*
X0Y789D02*
X7Y789D01*
X2826Y789D02*
X2833Y789D01*
X0Y788D02*
X7Y788D01*
X2826Y788D02*
X2833Y788D01*
X0Y787D02*
X7Y787D01*
X2826Y787D02*
X2833Y787D01*
X0Y786D02*
X7Y786D01*
X2826Y786D02*
X2833Y786D01*
X0Y785D02*
X7Y785D01*
X2826Y785D02*
X2833Y785D01*
X0Y784D02*
X7Y784D01*
X2826Y784D02*
X2833Y784D01*
X0Y783D02*
X7Y783D01*
X2826Y783D02*
X2833Y783D01*
X0Y782D02*
X7Y782D01*
X2826Y782D02*
X2833Y782D01*
X0Y781D02*
X7Y781D01*
X2826Y781D02*
X2833Y781D01*
X0Y780D02*
X7Y780D01*
X2826Y780D02*
X2833Y780D01*
X0Y779D02*
X7Y779D01*
X2826Y779D02*
X2833Y779D01*
X0Y778D02*
X7Y778D01*
X2826Y778D02*
X2833Y778D01*
X0Y777D02*
X7Y777D01*
X2826Y777D02*
X2833Y777D01*
X0Y776D02*
X7Y776D01*
X2826Y776D02*
X2833Y776D01*
X0Y775D02*
X7Y775D01*
X2826Y775D02*
X2833Y775D01*
X0Y774D02*
X7Y774D01*
X2826Y774D02*
X2833Y774D01*
X0Y773D02*
X7Y773D01*
X2826Y773D02*
X2833Y773D01*
X0Y772D02*
X7Y772D01*
X2826Y772D02*
X2833Y772D01*
X0Y771D02*
X7Y771D01*
X2826Y771D02*
X2833Y771D01*
X0Y770D02*
X7Y770D01*
X2826Y770D02*
X2833Y770D01*
X0Y769D02*
X7Y769D01*
X2826Y769D02*
X2833Y769D01*
X0Y768D02*
X7Y768D01*
X2826Y768D02*
X2833Y768D01*
X0Y767D02*
X7Y767D01*
X2826Y767D02*
X2833Y767D01*
X0Y766D02*
X7Y766D01*
X2826Y766D02*
X2833Y766D01*
X0Y765D02*
X7Y765D01*
X2826Y765D02*
X2833Y765D01*
X0Y764D02*
X7Y764D01*
X2826Y764D02*
X2833Y764D01*
X0Y763D02*
X7Y763D01*
X2826Y763D02*
X2833Y763D01*
X0Y762D02*
X7Y762D01*
X2826Y762D02*
X2833Y762D01*
X0Y761D02*
X7Y761D01*
X2826Y761D02*
X2833Y761D01*
X0Y760D02*
X7Y760D01*
X2826Y760D02*
X2833Y760D01*
X0Y759D02*
X7Y759D01*
X2826Y759D02*
X2833Y759D01*
X0Y758D02*
X7Y758D01*
X2826Y758D02*
X2833Y758D01*
X0Y757D02*
X7Y757D01*
X2826Y757D02*
X2833Y757D01*
X0Y756D02*
X7Y756D01*
X2826Y756D02*
X2833Y756D01*
X0Y755D02*
X7Y755D01*
X2826Y755D02*
X2833Y755D01*
X0Y754D02*
X7Y754D01*
X2826Y754D02*
X2833Y754D01*
X0Y753D02*
X7Y753D01*
X2826Y753D02*
X2833Y753D01*
X0Y752D02*
X7Y752D01*
X2826Y752D02*
X2833Y752D01*
X0Y751D02*
X7Y751D01*
X2826Y751D02*
X2833Y751D01*
X0Y750D02*
X7Y750D01*
X2826Y750D02*
X2833Y750D01*
X0Y749D02*
X7Y749D01*
X2826Y749D02*
X2833Y749D01*
X0Y748D02*
X7Y748D01*
X2826Y748D02*
X2833Y748D01*
X0Y747D02*
X7Y747D01*
X2826Y747D02*
X2833Y747D01*
X0Y746D02*
X7Y746D01*
X2826Y746D02*
X2833Y746D01*
X0Y745D02*
X7Y745D01*
X2826Y745D02*
X2833Y745D01*
X0Y744D02*
X7Y744D01*
X2826Y744D02*
X2833Y744D01*
X0Y743D02*
X7Y743D01*
X2826Y743D02*
X2833Y743D01*
X0Y742D02*
X7Y742D01*
X2826Y742D02*
X2833Y742D01*
X0Y741D02*
X7Y741D01*
X2826Y741D02*
X2833Y741D01*
X0Y740D02*
X7Y740D01*
X2826Y740D02*
X2833Y740D01*
X0Y739D02*
X7Y739D01*
X2826Y739D02*
X2833Y739D01*
X0Y738D02*
X7Y738D01*
X2826Y738D02*
X2833Y738D01*
X0Y737D02*
X7Y737D01*
X2826Y737D02*
X2833Y737D01*
X0Y736D02*
X7Y736D01*
X2826Y736D02*
X2833Y736D01*
X0Y735D02*
X7Y735D01*
X2826Y735D02*
X2833Y735D01*
X0Y734D02*
X7Y734D01*
X2826Y734D02*
X2833Y734D01*
X0Y733D02*
X7Y733D01*
X2826Y733D02*
X2833Y733D01*
X0Y732D02*
X7Y732D01*
X2826Y732D02*
X2833Y732D01*
X0Y731D02*
X7Y731D01*
X2826Y731D02*
X2833Y731D01*
X0Y730D02*
X7Y730D01*
X2826Y730D02*
X2833Y730D01*
X0Y729D02*
X7Y729D01*
X2826Y729D02*
X2833Y729D01*
X0Y728D02*
X7Y728D01*
X2826Y728D02*
X2833Y728D01*
X0Y727D02*
X7Y727D01*
X2826Y727D02*
X2833Y727D01*
X0Y726D02*
X7Y726D01*
X2826Y726D02*
X2833Y726D01*
X0Y725D02*
X7Y725D01*
X2826Y725D02*
X2833Y725D01*
X0Y724D02*
X7Y724D01*
X2826Y724D02*
X2833Y724D01*
X0Y723D02*
X7Y723D01*
X2826Y723D02*
X2833Y723D01*
X0Y722D02*
X7Y722D01*
X2826Y722D02*
X2833Y722D01*
X0Y721D02*
X7Y721D01*
X2826Y721D02*
X2833Y721D01*
X0Y720D02*
X7Y720D01*
X2826Y720D02*
X2833Y720D01*
X0Y719D02*
X7Y719D01*
X2826Y719D02*
X2833Y719D01*
X0Y718D02*
X7Y718D01*
X2826Y718D02*
X2833Y718D01*
X0Y717D02*
X7Y717D01*
X2826Y717D02*
X2833Y717D01*
X0Y716D02*
X7Y716D01*
X2826Y716D02*
X2833Y716D01*
X0Y715D02*
X7Y715D01*
X2826Y715D02*
X2833Y715D01*
X0Y714D02*
X7Y714D01*
X2826Y714D02*
X2833Y714D01*
X0Y713D02*
X7Y713D01*
X2826Y713D02*
X2833Y713D01*
X0Y712D02*
X7Y712D01*
X2826Y712D02*
X2833Y712D01*
X0Y711D02*
X7Y711D01*
X2826Y711D02*
X2833Y711D01*
X0Y710D02*
X7Y710D01*
X2826Y710D02*
X2833Y710D01*
X0Y709D02*
X7Y709D01*
X2826Y709D02*
X2833Y709D01*
X0Y708D02*
X7Y708D01*
X2826Y708D02*
X2833Y708D01*
X0Y707D02*
X7Y707D01*
X2826Y707D02*
X2833Y707D01*
X0Y706D02*
X7Y706D01*
X2826Y706D02*
X2833Y706D01*
X0Y705D02*
X7Y705D01*
X2826Y705D02*
X2833Y705D01*
X0Y704D02*
X7Y704D01*
X2826Y704D02*
X2833Y704D01*
X0Y703D02*
X7Y703D01*
X2826Y703D02*
X2833Y703D01*
X0Y702D02*
X7Y702D01*
X2826Y702D02*
X2833Y702D01*
X0Y701D02*
X7Y701D01*
X2826Y701D02*
X2833Y701D01*
X0Y700D02*
X7Y700D01*
X2826Y700D02*
X2833Y700D01*
X0Y699D02*
X7Y699D01*
X2826Y699D02*
X2833Y699D01*
X0Y698D02*
X7Y698D01*
X2826Y698D02*
X2833Y698D01*
X0Y697D02*
X7Y697D01*
X2826Y697D02*
X2833Y697D01*
X0Y696D02*
X7Y696D01*
X2826Y696D02*
X2833Y696D01*
X0Y695D02*
X7Y695D01*
X2826Y695D02*
X2833Y695D01*
X0Y694D02*
X7Y694D01*
X2826Y694D02*
X2833Y694D01*
X0Y693D02*
X7Y693D01*
X2826Y693D02*
X2833Y693D01*
X0Y692D02*
X7Y692D01*
X2826Y692D02*
X2833Y692D01*
X0Y691D02*
X7Y691D01*
X2826Y691D02*
X2833Y691D01*
X0Y690D02*
X7Y690D01*
X2826Y690D02*
X2833Y690D01*
X0Y689D02*
X7Y689D01*
X2826Y689D02*
X2833Y689D01*
X0Y688D02*
X7Y688D01*
X2826Y688D02*
X2833Y688D01*
X0Y687D02*
X7Y687D01*
X2826Y687D02*
X2833Y687D01*
X0Y686D02*
X7Y686D01*
X2826Y686D02*
X2833Y686D01*
X0Y685D02*
X7Y685D01*
X2826Y685D02*
X2833Y685D01*
X0Y684D02*
X7Y684D01*
X2826Y684D02*
X2833Y684D01*
X0Y683D02*
X7Y683D01*
X2826Y683D02*
X2833Y683D01*
X0Y682D02*
X7Y682D01*
X2826Y682D02*
X2833Y682D01*
X0Y681D02*
X7Y681D01*
X2826Y681D02*
X2833Y681D01*
X0Y680D02*
X7Y680D01*
X2826Y680D02*
X2833Y680D01*
X0Y679D02*
X7Y679D01*
X2826Y679D02*
X2833Y679D01*
X0Y678D02*
X7Y678D01*
X2826Y678D02*
X2833Y678D01*
X0Y677D02*
X7Y677D01*
X2826Y677D02*
X2833Y677D01*
X0Y676D02*
X7Y676D01*
X2826Y676D02*
X2833Y676D01*
X0Y675D02*
X7Y675D01*
X2826Y675D02*
X2833Y675D01*
X0Y674D02*
X7Y674D01*
X2826Y674D02*
X2833Y674D01*
X0Y673D02*
X7Y673D01*
X2826Y673D02*
X2833Y673D01*
X0Y672D02*
X7Y672D01*
X2826Y672D02*
X2833Y672D01*
X0Y671D02*
X7Y671D01*
X2826Y671D02*
X2833Y671D01*
X0Y670D02*
X7Y670D01*
X2826Y670D02*
X2833Y670D01*
X0Y669D02*
X7Y669D01*
X2826Y669D02*
X2833Y669D01*
X0Y668D02*
X7Y668D01*
X2826Y668D02*
X2833Y668D01*
X0Y667D02*
X7Y667D01*
X2826Y667D02*
X2833Y667D01*
X0Y666D02*
X7Y666D01*
X2826Y666D02*
X2833Y666D01*
X0Y665D02*
X7Y665D01*
X2826Y665D02*
X2833Y665D01*
X0Y664D02*
X7Y664D01*
X2826Y664D02*
X2833Y664D01*
X0Y663D02*
X7Y663D01*
X2826Y663D02*
X2833Y663D01*
X0Y662D02*
X7Y662D01*
X2826Y662D02*
X2833Y662D01*
X0Y661D02*
X7Y661D01*
X2826Y661D02*
X2833Y661D01*
X0Y660D02*
X7Y660D01*
X2826Y660D02*
X2833Y660D01*
X0Y659D02*
X7Y659D01*
X2826Y659D02*
X2833Y659D01*
X0Y658D02*
X7Y658D01*
X2826Y658D02*
X2833Y658D01*
X0Y657D02*
X7Y657D01*
X2826Y657D02*
X2833Y657D01*
X0Y656D02*
X7Y656D01*
X2826Y656D02*
X2833Y656D01*
X0Y655D02*
X7Y655D01*
X2826Y655D02*
X2833Y655D01*
X0Y654D02*
X7Y654D01*
X2826Y654D02*
X2833Y654D01*
X0Y653D02*
X7Y653D01*
X2826Y653D02*
X2833Y653D01*
X0Y652D02*
X7Y652D01*
X2826Y652D02*
X2833Y652D01*
X0Y651D02*
X7Y651D01*
X2826Y651D02*
X2833Y651D01*
X0Y650D02*
X7Y650D01*
X2826Y650D02*
X2833Y650D01*
X0Y649D02*
X7Y649D01*
X2826Y649D02*
X2833Y649D01*
X0Y648D02*
X7Y648D01*
X2826Y648D02*
X2833Y648D01*
X0Y647D02*
X7Y647D01*
X2826Y647D02*
X2833Y647D01*
X0Y646D02*
X7Y646D01*
X2826Y646D02*
X2833Y646D01*
X0Y645D02*
X7Y645D01*
X2826Y645D02*
X2833Y645D01*
X0Y644D02*
X7Y644D01*
X2826Y644D02*
X2833Y644D01*
X0Y643D02*
X7Y643D01*
X2826Y643D02*
X2833Y643D01*
X0Y642D02*
X7Y642D01*
X2826Y642D02*
X2833Y642D01*
X0Y641D02*
X7Y641D01*
X2826Y641D02*
X2833Y641D01*
X0Y640D02*
X7Y640D01*
X2826Y640D02*
X2833Y640D01*
X0Y639D02*
X7Y639D01*
X2826Y639D02*
X2833Y639D01*
X0Y638D02*
X7Y638D01*
X2826Y638D02*
X2833Y638D01*
X0Y637D02*
X7Y637D01*
X2826Y637D02*
X2833Y637D01*
X0Y636D02*
X7Y636D01*
X2826Y636D02*
X2833Y636D01*
X0Y635D02*
X7Y635D01*
X2826Y635D02*
X2833Y635D01*
X0Y634D02*
X7Y634D01*
X2826Y634D02*
X2833Y634D01*
X0Y633D02*
X7Y633D01*
X2826Y633D02*
X2833Y633D01*
X0Y632D02*
X7Y632D01*
X2826Y632D02*
X2833Y632D01*
X0Y631D02*
X7Y631D01*
X2826Y631D02*
X2833Y631D01*
X0Y630D02*
X7Y630D01*
X2826Y630D02*
X2833Y630D01*
X0Y629D02*
X7Y629D01*
X2826Y629D02*
X2833Y629D01*
X0Y628D02*
X7Y628D01*
X2826Y628D02*
X2833Y628D01*
X0Y627D02*
X7Y627D01*
X2826Y627D02*
X2833Y627D01*
X0Y626D02*
X7Y626D01*
X2826Y626D02*
X2833Y626D01*
X0Y625D02*
X7Y625D01*
X2826Y625D02*
X2833Y625D01*
X0Y624D02*
X7Y624D01*
X2826Y624D02*
X2833Y624D01*
X0Y623D02*
X7Y623D01*
X2826Y623D02*
X2833Y623D01*
X0Y622D02*
X7Y622D01*
X2826Y622D02*
X2833Y622D01*
X0Y621D02*
X7Y621D01*
X2826Y621D02*
X2833Y621D01*
X0Y620D02*
X7Y620D01*
X2826Y620D02*
X2833Y620D01*
X0Y619D02*
X7Y619D01*
X2826Y619D02*
X2833Y619D01*
X0Y618D02*
X7Y618D01*
X2826Y618D02*
X2833Y618D01*
X0Y617D02*
X7Y617D01*
X2826Y617D02*
X2833Y617D01*
X0Y616D02*
X7Y616D01*
X2826Y616D02*
X2833Y616D01*
X0Y615D02*
X7Y615D01*
X2826Y615D02*
X2833Y615D01*
X0Y614D02*
X7Y614D01*
X2826Y614D02*
X2833Y614D01*
X0Y613D02*
X7Y613D01*
X2826Y613D02*
X2833Y613D01*
X0Y612D02*
X7Y612D01*
X2826Y612D02*
X2833Y612D01*
X0Y611D02*
X7Y611D01*
X2826Y611D02*
X2833Y611D01*
X0Y610D02*
X7Y610D01*
X2826Y610D02*
X2833Y610D01*
X0Y609D02*
X7Y609D01*
X2826Y609D02*
X2833Y609D01*
X0Y608D02*
X7Y608D01*
X2826Y608D02*
X2833Y608D01*
X0Y607D02*
X7Y607D01*
X2826Y607D02*
X2833Y607D01*
X0Y606D02*
X7Y606D01*
X2826Y606D02*
X2833Y606D01*
X0Y605D02*
X7Y605D01*
X2826Y605D02*
X2833Y605D01*
X0Y604D02*
X7Y604D01*
X2826Y604D02*
X2833Y604D01*
X0Y603D02*
X7Y603D01*
X2826Y603D02*
X2833Y603D01*
X0Y602D02*
X7Y602D01*
X2826Y602D02*
X2833Y602D01*
X0Y601D02*
X7Y601D01*
X2826Y601D02*
X2833Y601D01*
X0Y600D02*
X7Y600D01*
X2826Y600D02*
X2833Y600D01*
X0Y599D02*
X7Y599D01*
X2826Y599D02*
X2833Y599D01*
X0Y598D02*
X7Y598D01*
X2826Y598D02*
X2833Y598D01*
X0Y597D02*
X7Y597D01*
X2826Y597D02*
X2833Y597D01*
X0Y596D02*
X7Y596D01*
X2826Y596D02*
X2833Y596D01*
X0Y595D02*
X7Y595D01*
X2826Y595D02*
X2833Y595D01*
X0Y594D02*
X7Y594D01*
X2826Y594D02*
X2833Y594D01*
X0Y593D02*
X7Y593D01*
X2826Y593D02*
X2833Y593D01*
X0Y592D02*
X7Y592D01*
X2826Y592D02*
X2833Y592D01*
X0Y591D02*
X7Y591D01*
X2826Y591D02*
X2833Y591D01*
X0Y590D02*
X7Y590D01*
X2826Y590D02*
X2833Y590D01*
X0Y589D02*
X7Y589D01*
X2826Y589D02*
X2833Y589D01*
X0Y588D02*
X7Y588D01*
X2826Y588D02*
X2833Y588D01*
X0Y587D02*
X7Y587D01*
X2826Y587D02*
X2833Y587D01*
X0Y586D02*
X7Y586D01*
X2826Y586D02*
X2833Y586D01*
X0Y585D02*
X7Y585D01*
X2826Y585D02*
X2833Y585D01*
X0Y584D02*
X7Y584D01*
X2826Y584D02*
X2833Y584D01*
X0Y583D02*
X7Y583D01*
X2826Y583D02*
X2833Y583D01*
X0Y582D02*
X7Y582D01*
X2826Y582D02*
X2833Y582D01*
X0Y581D02*
X7Y581D01*
X2826Y581D02*
X2833Y581D01*
X0Y580D02*
X7Y580D01*
X2826Y580D02*
X2833Y580D01*
X0Y579D02*
X7Y579D01*
X2826Y579D02*
X2833Y579D01*
X0Y578D02*
X7Y578D01*
X2826Y578D02*
X2833Y578D01*
X0Y577D02*
X7Y577D01*
X2826Y577D02*
X2833Y577D01*
X0Y576D02*
X7Y576D01*
X2826Y576D02*
X2833Y576D01*
X0Y575D02*
X7Y575D01*
X2826Y575D02*
X2833Y575D01*
X0Y574D02*
X7Y574D01*
X2826Y574D02*
X2833Y574D01*
X0Y573D02*
X7Y573D01*
X2826Y573D02*
X2833Y573D01*
X0Y572D02*
X7Y572D01*
X2826Y572D02*
X2833Y572D01*
X0Y571D02*
X7Y571D01*
X2826Y571D02*
X2833Y571D01*
X0Y570D02*
X7Y570D01*
X2826Y570D02*
X2833Y570D01*
X0Y569D02*
X7Y569D01*
X2826Y569D02*
X2833Y569D01*
X0Y568D02*
X7Y568D01*
X2826Y568D02*
X2833Y568D01*
X0Y567D02*
X7Y567D01*
X2826Y567D02*
X2833Y567D01*
X0Y566D02*
X7Y566D01*
X2826Y566D02*
X2833Y566D01*
X0Y565D02*
X7Y565D01*
X2826Y565D02*
X2833Y565D01*
X0Y564D02*
X7Y564D01*
X2826Y564D02*
X2833Y564D01*
X0Y563D02*
X7Y563D01*
X2826Y563D02*
X2833Y563D01*
X0Y562D02*
X7Y562D01*
X2826Y562D02*
X2833Y562D01*
X0Y561D02*
X7Y561D01*
X2826Y561D02*
X2833Y561D01*
X0Y560D02*
X7Y560D01*
X2826Y560D02*
X2833Y560D01*
X0Y559D02*
X7Y559D01*
X2826Y559D02*
X2833Y559D01*
X0Y558D02*
X7Y558D01*
X2826Y558D02*
X2833Y558D01*
X0Y557D02*
X7Y557D01*
X2826Y557D02*
X2833Y557D01*
X0Y556D02*
X7Y556D01*
X2826Y556D02*
X2833Y556D01*
X0Y555D02*
X7Y555D01*
X2826Y555D02*
X2833Y555D01*
X0Y554D02*
X7Y554D01*
X2826Y554D02*
X2833Y554D01*
X0Y553D02*
X7Y553D01*
X2826Y553D02*
X2833Y553D01*
X0Y552D02*
X7Y552D01*
X2826Y552D02*
X2833Y552D01*
X0Y551D02*
X7Y551D01*
X2826Y551D02*
X2833Y551D01*
X0Y550D02*
X7Y550D01*
X2826Y550D02*
X2833Y550D01*
X0Y549D02*
X7Y549D01*
X2826Y549D02*
X2833Y549D01*
X0Y548D02*
X7Y548D01*
X2826Y548D02*
X2833Y548D01*
X0Y547D02*
X7Y547D01*
X2826Y547D02*
X2833Y547D01*
X0Y546D02*
X7Y546D01*
X2826Y546D02*
X2833Y546D01*
X0Y545D02*
X7Y545D01*
X2826Y545D02*
X2833Y545D01*
X0Y544D02*
X7Y544D01*
X2826Y544D02*
X2833Y544D01*
X0Y543D02*
X7Y543D01*
X2826Y543D02*
X2833Y543D01*
X0Y542D02*
X7Y542D01*
X2826Y542D02*
X2833Y542D01*
X0Y541D02*
X7Y541D01*
X2826Y541D02*
X2833Y541D01*
X0Y540D02*
X7Y540D01*
X2826Y540D02*
X2833Y540D01*
X0Y539D02*
X7Y539D01*
X2826Y539D02*
X2833Y539D01*
X0Y538D02*
X7Y538D01*
X2826Y538D02*
X2833Y538D01*
X0Y537D02*
X7Y537D01*
X2826Y537D02*
X2833Y537D01*
X0Y536D02*
X7Y536D01*
X2826Y536D02*
X2833Y536D01*
X0Y535D02*
X7Y535D01*
X2826Y535D02*
X2833Y535D01*
X0Y534D02*
X7Y534D01*
X2826Y534D02*
X2833Y534D01*
X0Y533D02*
X7Y533D01*
X2826Y533D02*
X2833Y533D01*
X0Y532D02*
X7Y532D01*
X2826Y532D02*
X2833Y532D01*
X0Y531D02*
X7Y531D01*
X2826Y531D02*
X2833Y531D01*
X0Y530D02*
X7Y530D01*
X2826Y530D02*
X2833Y530D01*
X0Y529D02*
X7Y529D01*
X2826Y529D02*
X2833Y529D01*
X0Y528D02*
X7Y528D01*
X2826Y528D02*
X2833Y528D01*
X0Y527D02*
X7Y527D01*
X2826Y527D02*
X2833Y527D01*
X0Y526D02*
X7Y526D01*
X2826Y526D02*
X2833Y526D01*
X0Y525D02*
X7Y525D01*
X2826Y525D02*
X2833Y525D01*
X0Y524D02*
X7Y524D01*
X2826Y524D02*
X2833Y524D01*
X0Y523D02*
X7Y523D01*
X2826Y523D02*
X2833Y523D01*
X0Y522D02*
X7Y522D01*
X2826Y522D02*
X2833Y522D01*
X0Y521D02*
X7Y521D01*
X2826Y521D02*
X2833Y521D01*
X0Y520D02*
X7Y520D01*
X2826Y520D02*
X2833Y520D01*
X0Y519D02*
X7Y519D01*
X2826Y519D02*
X2833Y519D01*
X0Y518D02*
X7Y518D01*
X2826Y518D02*
X2833Y518D01*
X0Y517D02*
X7Y517D01*
X2826Y517D02*
X2833Y517D01*
X0Y516D02*
X7Y516D01*
X2826Y516D02*
X2833Y516D01*
X0Y515D02*
X7Y515D01*
X2826Y515D02*
X2833Y515D01*
X0Y514D02*
X7Y514D01*
X2826Y514D02*
X2833Y514D01*
X0Y513D02*
X7Y513D01*
X2826Y513D02*
X2833Y513D01*
X0Y512D02*
X7Y512D01*
X2826Y512D02*
X2833Y512D01*
X0Y511D02*
X7Y511D01*
X2826Y511D02*
X2833Y511D01*
X0Y510D02*
X7Y510D01*
X2826Y510D02*
X2833Y510D01*
X0Y509D02*
X7Y509D01*
X2826Y509D02*
X2833Y509D01*
X0Y508D02*
X7Y508D01*
X2826Y508D02*
X2833Y508D01*
X0Y507D02*
X7Y507D01*
X2826Y507D02*
X2833Y507D01*
X0Y506D02*
X7Y506D01*
X2826Y506D02*
X2833Y506D01*
X0Y505D02*
X7Y505D01*
X2826Y505D02*
X2833Y505D01*
X0Y504D02*
X7Y504D01*
X2826Y504D02*
X2833Y504D01*
X0Y503D02*
X7Y503D01*
X2826Y503D02*
X2833Y503D01*
X0Y502D02*
X7Y502D01*
X2826Y502D02*
X2833Y502D01*
X0Y501D02*
X7Y501D01*
X2826Y501D02*
X2833Y501D01*
X0Y500D02*
X7Y500D01*
X2826Y500D02*
X2833Y500D01*
X0Y499D02*
X7Y499D01*
X2826Y499D02*
X2833Y499D01*
X0Y498D02*
X7Y498D01*
X2826Y498D02*
X2833Y498D01*
X0Y497D02*
X7Y497D01*
X2826Y497D02*
X2833Y497D01*
X0Y496D02*
X7Y496D01*
X2826Y496D02*
X2833Y496D01*
X0Y495D02*
X7Y495D01*
X2826Y495D02*
X2833Y495D01*
X0Y494D02*
X7Y494D01*
X2826Y494D02*
X2833Y494D01*
X0Y493D02*
X7Y493D01*
X2826Y493D02*
X2833Y493D01*
X0Y492D02*
X7Y492D01*
X2826Y492D02*
X2833Y492D01*
X0Y491D02*
X7Y491D01*
X2826Y491D02*
X2833Y491D01*
X0Y490D02*
X7Y490D01*
X2826Y490D02*
X2833Y490D01*
X0Y489D02*
X7Y489D01*
X2826Y489D02*
X2833Y489D01*
X0Y488D02*
X7Y488D01*
X2826Y488D02*
X2833Y488D01*
X0Y487D02*
X7Y487D01*
X2826Y487D02*
X2833Y487D01*
X0Y486D02*
X7Y486D01*
X2826Y486D02*
X2833Y486D01*
X0Y485D02*
X7Y485D01*
X2826Y485D02*
X2833Y485D01*
X0Y484D02*
X7Y484D01*
X2826Y484D02*
X2833Y484D01*
X0Y483D02*
X7Y483D01*
X2826Y483D02*
X2833Y483D01*
X0Y482D02*
X7Y482D01*
X2826Y482D02*
X2833Y482D01*
X0Y481D02*
X7Y481D01*
X2826Y481D02*
X2833Y481D01*
X0Y480D02*
X7Y480D01*
X2826Y480D02*
X2833Y480D01*
X0Y479D02*
X7Y479D01*
X2826Y479D02*
X2833Y479D01*
X0Y478D02*
X7Y478D01*
X2826Y478D02*
X2833Y478D01*
X0Y477D02*
X7Y477D01*
X2826Y477D02*
X2833Y477D01*
X0Y476D02*
X7Y476D01*
X2826Y476D02*
X2833Y476D01*
X0Y475D02*
X7Y475D01*
X2826Y475D02*
X2833Y475D01*
X0Y474D02*
X7Y474D01*
X2826Y474D02*
X2833Y474D01*
X0Y473D02*
X7Y473D01*
X2826Y473D02*
X2833Y473D01*
X0Y472D02*
X7Y472D01*
X2826Y472D02*
X2833Y472D01*
X0Y471D02*
X7Y471D01*
X2826Y471D02*
X2833Y471D01*
X0Y470D02*
X7Y470D01*
X2826Y470D02*
X2833Y470D01*
X0Y469D02*
X7Y469D01*
X2826Y469D02*
X2833Y469D01*
X0Y468D02*
X7Y468D01*
X2826Y468D02*
X2833Y468D01*
X0Y467D02*
X7Y467D01*
X2826Y467D02*
X2833Y467D01*
X0Y466D02*
X7Y466D01*
X2826Y466D02*
X2833Y466D01*
X0Y465D02*
X7Y465D01*
X2826Y465D02*
X2833Y465D01*
X0Y464D02*
X7Y464D01*
X2826Y464D02*
X2833Y464D01*
X0Y463D02*
X7Y463D01*
X2826Y463D02*
X2833Y463D01*
X0Y462D02*
X7Y462D01*
X2826Y462D02*
X2833Y462D01*
X0Y461D02*
X7Y461D01*
X2826Y461D02*
X2833Y461D01*
X0Y460D02*
X7Y460D01*
X2826Y460D02*
X2833Y460D01*
X0Y459D02*
X7Y459D01*
X2826Y459D02*
X2833Y459D01*
X0Y458D02*
X7Y458D01*
X2826Y458D02*
X2833Y458D01*
X0Y457D02*
X7Y457D01*
X2826Y457D02*
X2833Y457D01*
X0Y456D02*
X7Y456D01*
X2826Y456D02*
X2833Y456D01*
X0Y455D02*
X7Y455D01*
X2826Y455D02*
X2833Y455D01*
X0Y454D02*
X7Y454D01*
X2826Y454D02*
X2833Y454D01*
X0Y453D02*
X7Y453D01*
X2826Y453D02*
X2833Y453D01*
X0Y452D02*
X7Y452D01*
X2826Y452D02*
X2833Y452D01*
X0Y451D02*
X7Y451D01*
X2826Y451D02*
X2833Y451D01*
X0Y450D02*
X7Y450D01*
X2826Y450D02*
X2833Y450D01*
X0Y449D02*
X7Y449D01*
X2826Y449D02*
X2833Y449D01*
X0Y448D02*
X7Y448D01*
X2826Y448D02*
X2833Y448D01*
X0Y447D02*
X7Y447D01*
X2826Y447D02*
X2833Y447D01*
X0Y446D02*
X7Y446D01*
X2826Y446D02*
X2833Y446D01*
X0Y445D02*
X7Y445D01*
X2826Y445D02*
X2833Y445D01*
X0Y444D02*
X7Y444D01*
X2826Y444D02*
X2833Y444D01*
X0Y443D02*
X7Y443D01*
X2826Y443D02*
X2833Y443D01*
X0Y442D02*
X7Y442D01*
X2826Y442D02*
X2833Y442D01*
X0Y441D02*
X7Y441D01*
X2826Y441D02*
X2833Y441D01*
X0Y440D02*
X7Y440D01*
X2826Y440D02*
X2833Y440D01*
X0Y439D02*
X7Y439D01*
X2826Y439D02*
X2833Y439D01*
X0Y438D02*
X7Y438D01*
X2826Y438D02*
X2833Y438D01*
X0Y437D02*
X7Y437D01*
X2826Y437D02*
X2833Y437D01*
X0Y436D02*
X7Y436D01*
X2826Y436D02*
X2833Y436D01*
X0Y435D02*
X7Y435D01*
X2826Y435D02*
X2833Y435D01*
X0Y434D02*
X7Y434D01*
X2826Y434D02*
X2833Y434D01*
X0Y433D02*
X7Y433D01*
X2826Y433D02*
X2833Y433D01*
X0Y432D02*
X7Y432D01*
X2826Y432D02*
X2833Y432D01*
X0Y431D02*
X7Y431D01*
X2826Y431D02*
X2833Y431D01*
X0Y430D02*
X7Y430D01*
X2826Y430D02*
X2833Y430D01*
X0Y429D02*
X7Y429D01*
X2826Y429D02*
X2833Y429D01*
X0Y428D02*
X7Y428D01*
X2826Y428D02*
X2833Y428D01*
X0Y427D02*
X7Y427D01*
X2826Y427D02*
X2833Y427D01*
X0Y426D02*
X7Y426D01*
X2826Y426D02*
X2833Y426D01*
X0Y425D02*
X7Y425D01*
X2826Y425D02*
X2833Y425D01*
X0Y424D02*
X7Y424D01*
X2826Y424D02*
X2833Y424D01*
X0Y423D02*
X7Y423D01*
X2826Y423D02*
X2833Y423D01*
X0Y422D02*
X7Y422D01*
X2826Y422D02*
X2833Y422D01*
X0Y421D02*
X7Y421D01*
X2826Y421D02*
X2833Y421D01*
X0Y420D02*
X7Y420D01*
X2826Y420D02*
X2833Y420D01*
X0Y419D02*
X7Y419D01*
X2826Y419D02*
X2833Y419D01*
X0Y418D02*
X7Y418D01*
X2826Y418D02*
X2833Y418D01*
X0Y417D02*
X7Y417D01*
X2826Y417D02*
X2833Y417D01*
X0Y416D02*
X7Y416D01*
X2826Y416D02*
X2833Y416D01*
X0Y415D02*
X7Y415D01*
X2826Y415D02*
X2833Y415D01*
X0Y414D02*
X7Y414D01*
X2826Y414D02*
X2833Y414D01*
X0Y413D02*
X7Y413D01*
X2826Y413D02*
X2833Y413D01*
X0Y412D02*
X7Y412D01*
X2826Y412D02*
X2833Y412D01*
X0Y411D02*
X7Y411D01*
X2826Y411D02*
X2833Y411D01*
X0Y410D02*
X7Y410D01*
X2826Y410D02*
X2833Y410D01*
X0Y409D02*
X7Y409D01*
X2826Y409D02*
X2833Y409D01*
X0Y408D02*
X7Y408D01*
X2826Y408D02*
X2833Y408D01*
X0Y407D02*
X7Y407D01*
X2826Y407D02*
X2833Y407D01*
X0Y406D02*
X7Y406D01*
X2826Y406D02*
X2833Y406D01*
X0Y405D02*
X7Y405D01*
X2826Y405D02*
X2833Y405D01*
X0Y404D02*
X7Y404D01*
X2826Y404D02*
X2833Y404D01*
X0Y403D02*
X7Y403D01*
X2826Y403D02*
X2833Y403D01*
X0Y402D02*
X7Y402D01*
X2826Y402D02*
X2833Y402D01*
X0Y401D02*
X7Y401D01*
X2826Y401D02*
X2833Y401D01*
X0Y400D02*
X7Y400D01*
X2826Y400D02*
X2833Y400D01*
X0Y399D02*
X7Y399D01*
X2826Y399D02*
X2833Y399D01*
X0Y398D02*
X7Y398D01*
X2826Y398D02*
X2833Y398D01*
X0Y397D02*
X7Y397D01*
X2826Y397D02*
X2833Y397D01*
X0Y396D02*
X7Y396D01*
X2826Y396D02*
X2833Y396D01*
X0Y395D02*
X7Y395D01*
X2826Y395D02*
X2833Y395D01*
X0Y394D02*
X7Y394D01*
X2826Y394D02*
X2833Y394D01*
X0Y393D02*
X7Y393D01*
X2826Y393D02*
X2833Y393D01*
X0Y392D02*
X7Y392D01*
X2826Y392D02*
X2833Y392D01*
X0Y391D02*
X7Y391D01*
X2826Y391D02*
X2833Y391D01*
X0Y390D02*
X7Y390D01*
X2826Y390D02*
X2833Y390D01*
X0Y389D02*
X7Y389D01*
X2826Y389D02*
X2833Y389D01*
X0Y388D02*
X7Y388D01*
X2826Y388D02*
X2833Y388D01*
X0Y387D02*
X7Y387D01*
X2826Y387D02*
X2833Y387D01*
X0Y386D02*
X7Y386D01*
X2826Y386D02*
X2833Y386D01*
X0Y385D02*
X7Y385D01*
X2826Y385D02*
X2833Y385D01*
X0Y384D02*
X7Y384D01*
X2826Y384D02*
X2833Y384D01*
X0Y383D02*
X7Y383D01*
X2826Y383D02*
X2833Y383D01*
X0Y382D02*
X7Y382D01*
X2826Y382D02*
X2833Y382D01*
X0Y381D02*
X7Y381D01*
X2826Y381D02*
X2833Y381D01*
X0Y380D02*
X7Y380D01*
X2826Y380D02*
X2833Y380D01*
X0Y379D02*
X7Y379D01*
X2826Y379D02*
X2833Y379D01*
X0Y378D02*
X7Y378D01*
X2826Y378D02*
X2833Y378D01*
X0Y377D02*
X7Y377D01*
X2826Y377D02*
X2833Y377D01*
X0Y376D02*
X7Y376D01*
X2826Y376D02*
X2833Y376D01*
X0Y375D02*
X7Y375D01*
X2826Y375D02*
X2833Y375D01*
X0Y374D02*
X7Y374D01*
X2826Y374D02*
X2833Y374D01*
X0Y373D02*
X7Y373D01*
X2826Y373D02*
X2833Y373D01*
X0Y372D02*
X7Y372D01*
X2826Y372D02*
X2833Y372D01*
X0Y371D02*
X7Y371D01*
X2826Y371D02*
X2833Y371D01*
X0Y370D02*
X7Y370D01*
X2826Y370D02*
X2833Y370D01*
X0Y369D02*
X7Y369D01*
X2826Y369D02*
X2833Y369D01*
X0Y368D02*
X7Y368D01*
X2826Y368D02*
X2833Y368D01*
X0Y367D02*
X7Y367D01*
X2826Y367D02*
X2833Y367D01*
X0Y366D02*
X7Y366D01*
X2826Y366D02*
X2833Y366D01*
X0Y365D02*
X7Y365D01*
X2826Y365D02*
X2833Y365D01*
X0Y364D02*
X7Y364D01*
X2826Y364D02*
X2833Y364D01*
X0Y363D02*
X7Y363D01*
X2826Y363D02*
X2833Y363D01*
X0Y362D02*
X7Y362D01*
X2826Y362D02*
X2833Y362D01*
X0Y361D02*
X7Y361D01*
X2826Y361D02*
X2833Y361D01*
X0Y360D02*
X7Y360D01*
X2826Y360D02*
X2833Y360D01*
X0Y359D02*
X7Y359D01*
X2826Y359D02*
X2833Y359D01*
X0Y358D02*
X7Y358D01*
X2826Y358D02*
X2833Y358D01*
X0Y357D02*
X7Y357D01*
X2826Y357D02*
X2833Y357D01*
X0Y356D02*
X7Y356D01*
X2826Y356D02*
X2833Y356D01*
X0Y355D02*
X7Y355D01*
X2826Y355D02*
X2833Y355D01*
X0Y354D02*
X7Y354D01*
X2826Y354D02*
X2833Y354D01*
X0Y353D02*
X7Y353D01*
X2826Y353D02*
X2833Y353D01*
X0Y352D02*
X7Y352D01*
X2826Y352D02*
X2833Y352D01*
X0Y351D02*
X7Y351D01*
X2826Y351D02*
X2833Y351D01*
X0Y350D02*
X7Y350D01*
X2826Y350D02*
X2833Y350D01*
X0Y349D02*
X7Y349D01*
X2826Y349D02*
X2833Y349D01*
X0Y348D02*
X7Y348D01*
X2826Y348D02*
X2833Y348D01*
X0Y347D02*
X7Y347D01*
X2826Y347D02*
X2833Y347D01*
X0Y346D02*
X7Y346D01*
X2826Y346D02*
X2833Y346D01*
X0Y345D02*
X7Y345D01*
X2826Y345D02*
X2833Y345D01*
X0Y344D02*
X7Y344D01*
X2826Y344D02*
X2833Y344D01*
X0Y343D02*
X7Y343D01*
X2826Y343D02*
X2833Y343D01*
X0Y342D02*
X7Y342D01*
X2826Y342D02*
X2833Y342D01*
X0Y341D02*
X7Y341D01*
X2826Y341D02*
X2833Y341D01*
X0Y340D02*
X7Y340D01*
X2826Y340D02*
X2833Y340D01*
X0Y339D02*
X7Y339D01*
X2826Y339D02*
X2833Y339D01*
X0Y338D02*
X7Y338D01*
X2826Y338D02*
X2833Y338D01*
X0Y337D02*
X7Y337D01*
X2826Y337D02*
X2833Y337D01*
X0Y336D02*
X7Y336D01*
X2826Y336D02*
X2833Y336D01*
X0Y335D02*
X7Y335D01*
X2826Y335D02*
X2833Y335D01*
X0Y334D02*
X7Y334D01*
X2826Y334D02*
X2833Y334D01*
X0Y333D02*
X7Y333D01*
X2826Y333D02*
X2833Y333D01*
X0Y332D02*
X7Y332D01*
X2826Y332D02*
X2833Y332D01*
X0Y331D02*
X7Y331D01*
X2826Y331D02*
X2833Y331D01*
X0Y330D02*
X7Y330D01*
X2826Y330D02*
X2833Y330D01*
X0Y329D02*
X7Y329D01*
X2826Y329D02*
X2833Y329D01*
X0Y328D02*
X7Y328D01*
X2826Y328D02*
X2833Y328D01*
X0Y327D02*
X7Y327D01*
X2826Y327D02*
X2833Y327D01*
X0Y326D02*
X7Y326D01*
X2826Y326D02*
X2833Y326D01*
X0Y325D02*
X7Y325D01*
X2826Y325D02*
X2833Y325D01*
X0Y324D02*
X7Y324D01*
X2826Y324D02*
X2833Y324D01*
X0Y323D02*
X7Y323D01*
X2826Y323D02*
X2833Y323D01*
X0Y322D02*
X7Y322D01*
X2826Y322D02*
X2833Y322D01*
X0Y321D02*
X7Y321D01*
X2826Y321D02*
X2833Y321D01*
X0Y320D02*
X7Y320D01*
X2826Y320D02*
X2833Y320D01*
X0Y319D02*
X7Y319D01*
X2826Y319D02*
X2833Y319D01*
X0Y318D02*
X7Y318D01*
X2826Y318D02*
X2833Y318D01*
X0Y317D02*
X7Y317D01*
X2826Y317D02*
X2833Y317D01*
X0Y316D02*
X7Y316D01*
X2826Y316D02*
X2833Y316D01*
X0Y315D02*
X7Y315D01*
X2826Y315D02*
X2833Y315D01*
X0Y314D02*
X7Y314D01*
X2826Y314D02*
X2833Y314D01*
X0Y313D02*
X7Y313D01*
X2826Y313D02*
X2833Y313D01*
X0Y312D02*
X7Y312D01*
X2826Y312D02*
X2833Y312D01*
X0Y311D02*
X7Y311D01*
X2826Y311D02*
X2833Y311D01*
X0Y310D02*
X7Y310D01*
X2826Y310D02*
X2833Y310D01*
X0Y309D02*
X7Y309D01*
X2826Y309D02*
X2833Y309D01*
X0Y308D02*
X7Y308D01*
X2826Y308D02*
X2833Y308D01*
X0Y307D02*
X7Y307D01*
X2826Y307D02*
X2833Y307D01*
X0Y306D02*
X7Y306D01*
X2826Y306D02*
X2833Y306D01*
X0Y305D02*
X7Y305D01*
X2826Y305D02*
X2833Y305D01*
X0Y304D02*
X7Y304D01*
X2826Y304D02*
X2833Y304D01*
X0Y303D02*
X7Y303D01*
X2826Y303D02*
X2833Y303D01*
X0Y302D02*
X7Y302D01*
X2826Y302D02*
X2833Y302D01*
X0Y301D02*
X7Y301D01*
X2826Y301D02*
X2833Y301D01*
X0Y300D02*
X7Y300D01*
X2826Y300D02*
X2833Y300D01*
X0Y299D02*
X7Y299D01*
X2826Y299D02*
X2833Y299D01*
X0Y298D02*
X7Y298D01*
X2826Y298D02*
X2833Y298D01*
X0Y297D02*
X7Y297D01*
X2826Y297D02*
X2833Y297D01*
X0Y296D02*
X7Y296D01*
X2826Y296D02*
X2833Y296D01*
X0Y295D02*
X7Y295D01*
X2826Y295D02*
X2833Y295D01*
X0Y294D02*
X7Y294D01*
X2826Y294D02*
X2833Y294D01*
X0Y293D02*
X7Y293D01*
X2826Y293D02*
X2833Y293D01*
X0Y292D02*
X7Y292D01*
X2826Y292D02*
X2833Y292D01*
X0Y291D02*
X7Y291D01*
X2826Y291D02*
X2833Y291D01*
X0Y290D02*
X7Y290D01*
X2826Y290D02*
X2833Y290D01*
X0Y289D02*
X7Y289D01*
X2826Y289D02*
X2833Y289D01*
X0Y288D02*
X7Y288D01*
X2826Y288D02*
X2833Y288D01*
X0Y287D02*
X7Y287D01*
X2826Y287D02*
X2833Y287D01*
X0Y286D02*
X7Y286D01*
X2826Y286D02*
X2833Y286D01*
X0Y285D02*
X7Y285D01*
X2826Y285D02*
X2833Y285D01*
X0Y284D02*
X7Y284D01*
X2826Y284D02*
X2833Y284D01*
X0Y283D02*
X7Y283D01*
X2826Y283D02*
X2833Y283D01*
X0Y282D02*
X7Y282D01*
X2826Y282D02*
X2833Y282D01*
X0Y281D02*
X7Y281D01*
X2826Y281D02*
X2833Y281D01*
X0Y280D02*
X7Y280D01*
X2826Y280D02*
X2833Y280D01*
X0Y279D02*
X7Y279D01*
X2826Y279D02*
X2833Y279D01*
X0Y278D02*
X7Y278D01*
X2826Y278D02*
X2833Y278D01*
X0Y277D02*
X7Y277D01*
X2826Y277D02*
X2833Y277D01*
X0Y276D02*
X7Y276D01*
X2826Y276D02*
X2833Y276D01*
X0Y275D02*
X7Y275D01*
X2826Y275D02*
X2833Y275D01*
X0Y274D02*
X7Y274D01*
X2826Y274D02*
X2833Y274D01*
X0Y273D02*
X7Y273D01*
X2826Y273D02*
X2833Y273D01*
X0Y272D02*
X7Y272D01*
X2826Y272D02*
X2833Y272D01*
X0Y271D02*
X7Y271D01*
X2826Y271D02*
X2833Y271D01*
X0Y270D02*
X7Y270D01*
X2826Y270D02*
X2833Y270D01*
X0Y269D02*
X7Y269D01*
X2826Y269D02*
X2833Y269D01*
X0Y268D02*
X7Y268D01*
X2826Y268D02*
X2833Y268D01*
X0Y267D02*
X7Y267D01*
X2826Y267D02*
X2833Y267D01*
X0Y266D02*
X7Y266D01*
X2826Y266D02*
X2833Y266D01*
X0Y265D02*
X7Y265D01*
X2826Y265D02*
X2833Y265D01*
X0Y264D02*
X7Y264D01*
X2826Y264D02*
X2833Y264D01*
X0Y263D02*
X7Y263D01*
X2826Y263D02*
X2833Y263D01*
X0Y262D02*
X7Y262D01*
X2826Y262D02*
X2833Y262D01*
X0Y261D02*
X7Y261D01*
X2826Y261D02*
X2833Y261D01*
X0Y260D02*
X7Y260D01*
X2826Y260D02*
X2833Y260D01*
X0Y259D02*
X7Y259D01*
X2826Y259D02*
X2833Y259D01*
X0Y258D02*
X7Y258D01*
X2826Y258D02*
X2833Y258D01*
X0Y257D02*
X7Y257D01*
X2826Y257D02*
X2833Y257D01*
X0Y256D02*
X7Y256D01*
X2826Y256D02*
X2833Y256D01*
X0Y255D02*
X7Y255D01*
X2826Y255D02*
X2833Y255D01*
X0Y254D02*
X7Y254D01*
X2826Y254D02*
X2833Y254D01*
X0Y253D02*
X7Y253D01*
X2826Y253D02*
X2833Y253D01*
X0Y252D02*
X7Y252D01*
X2826Y252D02*
X2833Y252D01*
X0Y251D02*
X7Y251D01*
X2826Y251D02*
X2833Y251D01*
X0Y250D02*
X7Y250D01*
X2826Y250D02*
X2833Y250D01*
X0Y249D02*
X7Y249D01*
X2826Y249D02*
X2833Y249D01*
X0Y248D02*
X7Y248D01*
X2826Y248D02*
X2833Y248D01*
X0Y247D02*
X7Y247D01*
X2826Y247D02*
X2833Y247D01*
X0Y246D02*
X7Y246D01*
X2826Y246D02*
X2833Y246D01*
X0Y245D02*
X7Y245D01*
X2826Y245D02*
X2833Y245D01*
X0Y244D02*
X7Y244D01*
X2826Y244D02*
X2833Y244D01*
X0Y243D02*
X7Y243D01*
X2826Y243D02*
X2833Y243D01*
X0Y242D02*
X7Y242D01*
X2826Y242D02*
X2833Y242D01*
X0Y241D02*
X7Y241D01*
X2826Y241D02*
X2833Y241D01*
X0Y240D02*
X7Y240D01*
X2826Y240D02*
X2833Y240D01*
X0Y239D02*
X7Y239D01*
X2826Y239D02*
X2833Y239D01*
X0Y238D02*
X7Y238D01*
X2826Y238D02*
X2833Y238D01*
X0Y237D02*
X7Y237D01*
X2826Y237D02*
X2833Y237D01*
X0Y236D02*
X7Y236D01*
X2826Y236D02*
X2833Y236D01*
X0Y235D02*
X7Y235D01*
X2826Y235D02*
X2833Y235D01*
X0Y234D02*
X7Y234D01*
X2826Y234D02*
X2833Y234D01*
X0Y233D02*
X7Y233D01*
X2826Y233D02*
X2833Y233D01*
X0Y232D02*
X7Y232D01*
X2826Y232D02*
X2833Y232D01*
X0Y231D02*
X7Y231D01*
X2826Y231D02*
X2833Y231D01*
X0Y230D02*
X7Y230D01*
X2826Y230D02*
X2833Y230D01*
X0Y229D02*
X7Y229D01*
X2826Y229D02*
X2833Y229D01*
X0Y228D02*
X7Y228D01*
X2826Y228D02*
X2833Y228D01*
X0Y227D02*
X7Y227D01*
X2826Y227D02*
X2833Y227D01*
X0Y226D02*
X7Y226D01*
X2826Y226D02*
X2833Y226D01*
X0Y225D02*
X7Y225D01*
X2826Y225D02*
X2833Y225D01*
X0Y224D02*
X7Y224D01*
X2826Y224D02*
X2833Y224D01*
X0Y223D02*
X7Y223D01*
X2826Y223D02*
X2833Y223D01*
X0Y222D02*
X7Y222D01*
X2826Y222D02*
X2833Y222D01*
X0Y221D02*
X7Y221D01*
X2826Y221D02*
X2833Y221D01*
X0Y220D02*
X7Y220D01*
X2826Y220D02*
X2833Y220D01*
X0Y219D02*
X7Y219D01*
X2826Y219D02*
X2833Y219D01*
X0Y218D02*
X7Y218D01*
X2826Y218D02*
X2833Y218D01*
X0Y217D02*
X7Y217D01*
X2826Y217D02*
X2833Y217D01*
X0Y216D02*
X7Y216D01*
X2826Y216D02*
X2833Y216D01*
X0Y215D02*
X7Y215D01*
X2826Y215D02*
X2833Y215D01*
X0Y214D02*
X7Y214D01*
X2826Y214D02*
X2833Y214D01*
X0Y213D02*
X7Y213D01*
X2826Y213D02*
X2833Y213D01*
X0Y212D02*
X7Y212D01*
X2826Y212D02*
X2833Y212D01*
X0Y211D02*
X7Y211D01*
X2826Y211D02*
X2833Y211D01*
X0Y210D02*
X7Y210D01*
X2826Y210D02*
X2833Y210D01*
X0Y209D02*
X7Y209D01*
X2826Y209D02*
X2833Y209D01*
X0Y208D02*
X7Y208D01*
X2826Y208D02*
X2833Y208D01*
X0Y207D02*
X7Y207D01*
X2826Y207D02*
X2833Y207D01*
X0Y206D02*
X7Y206D01*
X2826Y206D02*
X2833Y206D01*
X0Y205D02*
X7Y205D01*
X2826Y205D02*
X2833Y205D01*
X0Y204D02*
X7Y204D01*
X2826Y204D02*
X2833Y204D01*
X0Y203D02*
X7Y203D01*
X2826Y203D02*
X2833Y203D01*
X0Y202D02*
X7Y202D01*
X2826Y202D02*
X2833Y202D01*
X0Y201D02*
X7Y201D01*
X2826Y201D02*
X2833Y201D01*
X0Y200D02*
X7Y200D01*
X2826Y200D02*
X2833Y200D01*
X0Y199D02*
X7Y199D01*
X2826Y199D02*
X2833Y199D01*
X0Y198D02*
X7Y198D01*
X2826Y198D02*
X2833Y198D01*
X0Y197D02*
X7Y197D01*
X2826Y197D02*
X2833Y197D01*
X0Y196D02*
X7Y196D01*
X2826Y196D02*
X2833Y196D01*
X0Y195D02*
X7Y195D01*
X2826Y195D02*
X2833Y195D01*
X0Y194D02*
X7Y194D01*
X2826Y194D02*
X2833Y194D01*
X0Y193D02*
X7Y193D01*
X2826Y193D02*
X2833Y193D01*
X0Y192D02*
X7Y192D01*
X2826Y192D02*
X2833Y192D01*
X0Y191D02*
X7Y191D01*
X2826Y191D02*
X2833Y191D01*
X0Y190D02*
X7Y190D01*
X2826Y190D02*
X2833Y190D01*
X0Y189D02*
X7Y189D01*
X2826Y189D02*
X2833Y189D01*
X0Y188D02*
X7Y188D01*
X2826Y188D02*
X2833Y188D01*
X0Y187D02*
X7Y187D01*
X2826Y187D02*
X2833Y187D01*
X0Y186D02*
X7Y186D01*
X2826Y186D02*
X2833Y186D01*
X0Y185D02*
X7Y185D01*
X2826Y185D02*
X2833Y185D01*
X0Y184D02*
X7Y184D01*
X2826Y184D02*
X2833Y184D01*
X0Y183D02*
X7Y183D01*
X2826Y183D02*
X2833Y183D01*
X0Y182D02*
X7Y182D01*
X2826Y182D02*
X2833Y182D01*
X0Y181D02*
X7Y181D01*
X2826Y181D02*
X2833Y181D01*
X0Y180D02*
X7Y180D01*
X2826Y180D02*
X2833Y180D01*
X0Y179D02*
X7Y179D01*
X2826Y179D02*
X2833Y179D01*
X0Y178D02*
X7Y178D01*
X2826Y178D02*
X2833Y178D01*
X0Y177D02*
X7Y177D01*
X2826Y177D02*
X2833Y177D01*
X0Y176D02*
X7Y176D01*
X2826Y176D02*
X2833Y176D01*
X0Y175D02*
X7Y175D01*
X2826Y175D02*
X2833Y175D01*
X0Y174D02*
X7Y174D01*
X2826Y174D02*
X2833Y174D01*
X0Y173D02*
X7Y173D01*
X2826Y173D02*
X2833Y173D01*
X0Y172D02*
X7Y172D01*
X2826Y172D02*
X2833Y172D01*
X0Y171D02*
X7Y171D01*
X2826Y171D02*
X2833Y171D01*
X0Y170D02*
X7Y170D01*
X2826Y170D02*
X2833Y170D01*
X0Y169D02*
X7Y169D01*
X2826Y169D02*
X2833Y169D01*
X0Y168D02*
X7Y168D01*
X2826Y168D02*
X2833Y168D01*
X0Y167D02*
X7Y167D01*
X2826Y167D02*
X2833Y167D01*
X0Y166D02*
X7Y166D01*
X2826Y166D02*
X2833Y166D01*
X0Y165D02*
X7Y165D01*
X2826Y165D02*
X2833Y165D01*
X0Y164D02*
X7Y164D01*
X2826Y164D02*
X2833Y164D01*
X0Y163D02*
X7Y163D01*
X2826Y163D02*
X2833Y163D01*
X0Y162D02*
X7Y162D01*
X2826Y162D02*
X2833Y162D01*
X0Y161D02*
X7Y161D01*
X2826Y161D02*
X2833Y161D01*
X0Y160D02*
X7Y160D01*
X2826Y160D02*
X2833Y160D01*
X0Y159D02*
X7Y159D01*
X2826Y159D02*
X2833Y159D01*
X0Y158D02*
X7Y158D01*
X2826Y158D02*
X2833Y158D01*
X0Y157D02*
X7Y157D01*
X2826Y157D02*
X2833Y157D01*
X0Y156D02*
X7Y156D01*
X2826Y156D02*
X2833Y156D01*
X0Y155D02*
X7Y155D01*
X2826Y155D02*
X2833Y155D01*
X0Y154D02*
X7Y154D01*
X2826Y154D02*
X2833Y154D01*
X0Y153D02*
X7Y153D01*
X2826Y153D02*
X2833Y153D01*
X0Y152D02*
X7Y152D01*
X2826Y152D02*
X2833Y152D01*
X0Y151D02*
X7Y151D01*
X2826Y151D02*
X2833Y151D01*
X0Y150D02*
X7Y150D01*
X2826Y150D02*
X2833Y150D01*
X0Y149D02*
X7Y149D01*
X2826Y149D02*
X2833Y149D01*
X0Y148D02*
X7Y148D01*
X2826Y148D02*
X2833Y148D01*
X0Y147D02*
X7Y147D01*
X2826Y147D02*
X2833Y147D01*
X0Y146D02*
X7Y146D01*
X2826Y146D02*
X2833Y146D01*
X0Y145D02*
X7Y145D01*
X2826Y145D02*
X2833Y145D01*
X0Y144D02*
X7Y144D01*
X2826Y144D02*
X2833Y144D01*
X0Y143D02*
X7Y143D01*
X2826Y143D02*
X2833Y143D01*
X0Y142D02*
X7Y142D01*
X2826Y142D02*
X2833Y142D01*
X0Y141D02*
X7Y141D01*
X2826Y141D02*
X2833Y141D01*
X0Y140D02*
X7Y140D01*
X2826Y140D02*
X2833Y140D01*
X0Y139D02*
X7Y139D01*
X2826Y139D02*
X2833Y139D01*
X0Y138D02*
X7Y138D01*
X2826Y138D02*
X2833Y138D01*
X0Y137D02*
X7Y137D01*
X2826Y137D02*
X2833Y137D01*
X0Y136D02*
X7Y136D01*
X2826Y136D02*
X2833Y136D01*
X0Y135D02*
X7Y135D01*
X2826Y135D02*
X2833Y135D01*
X0Y134D02*
X7Y134D01*
X2826Y134D02*
X2833Y134D01*
X0Y133D02*
X7Y133D01*
X2826Y133D02*
X2833Y133D01*
X0Y132D02*
X7Y132D01*
X2826Y132D02*
X2833Y132D01*
X0Y131D02*
X7Y131D01*
X2826Y131D02*
X2833Y131D01*
X0Y130D02*
X7Y130D01*
X2826Y130D02*
X2833Y130D01*
X0Y129D02*
X7Y129D01*
X2826Y129D02*
X2833Y129D01*
X0Y128D02*
X7Y128D01*
X2826Y128D02*
X2833Y128D01*
X0Y127D02*
X7Y127D01*
X2826Y127D02*
X2833Y127D01*
X0Y126D02*
X7Y126D01*
X2826Y126D02*
X2833Y126D01*
X0Y125D02*
X7Y125D01*
X2826Y125D02*
X2833Y125D01*
X0Y124D02*
X7Y124D01*
X2826Y124D02*
X2833Y124D01*
X0Y123D02*
X7Y123D01*
X2826Y123D02*
X2833Y123D01*
X0Y122D02*
X7Y122D01*
X2826Y122D02*
X2833Y122D01*
X0Y121D02*
X7Y121D01*
X2826Y121D02*
X2833Y121D01*
X0Y120D02*
X7Y120D01*
X2826Y120D02*
X2833Y120D01*
X0Y119D02*
X7Y119D01*
X2826Y119D02*
X2833Y119D01*
X0Y118D02*
X7Y118D01*
X2826Y118D02*
X2833Y118D01*
X0Y117D02*
X7Y117D01*
X2826Y117D02*
X2833Y117D01*
X0Y116D02*
X7Y116D01*
X2826Y116D02*
X2833Y116D01*
X0Y115D02*
X7Y115D01*
X2826Y115D02*
X2833Y115D01*
X0Y114D02*
X7Y114D01*
X2826Y114D02*
X2833Y114D01*
X0Y113D02*
X7Y113D01*
X2826Y113D02*
X2833Y113D01*
X0Y112D02*
X7Y112D01*
X2826Y112D02*
X2833Y112D01*
X0Y111D02*
X7Y111D01*
X2826Y111D02*
X2833Y111D01*
X0Y110D02*
X7Y110D01*
X2826Y110D02*
X2833Y110D01*
X0Y109D02*
X7Y109D01*
X2826Y109D02*
X2833Y109D01*
X0Y108D02*
X7Y108D01*
X2826Y108D02*
X2833Y108D01*
X0Y107D02*
X7Y107D01*
X2826Y107D02*
X2833Y107D01*
X0Y106D02*
X7Y106D01*
X2826Y106D02*
X2833Y106D01*
X0Y105D02*
X7Y105D01*
X2826Y105D02*
X2833Y105D01*
X0Y104D02*
X7Y104D01*
X2826Y104D02*
X2833Y104D01*
X0Y103D02*
X7Y103D01*
X2826Y103D02*
X2833Y103D01*
X0Y102D02*
X7Y102D01*
X2826Y102D02*
X2833Y102D01*
X0Y101D02*
X7Y101D01*
X2826Y101D02*
X2833Y101D01*
X0Y100D02*
X7Y100D01*
X2826Y100D02*
X2833Y100D01*
X0Y99D02*
X7Y99D01*
X2826Y99D02*
X2833Y99D01*
X0Y98D02*
X7Y98D01*
X2826Y98D02*
X2833Y98D01*
X0Y97D02*
X7Y97D01*
X2826Y97D02*
X2833Y97D01*
X0Y96D02*
X7Y96D01*
X2826Y96D02*
X2833Y96D01*
X0Y95D02*
X7Y95D01*
X2826Y95D02*
X2833Y95D01*
X0Y94D02*
X7Y94D01*
X2826Y94D02*
X2833Y94D01*
X0Y93D02*
X7Y93D01*
X2826Y93D02*
X2833Y93D01*
X0Y92D02*
X7Y92D01*
X2826Y92D02*
X2833Y92D01*
X0Y91D02*
X7Y91D01*
X2826Y91D02*
X2833Y91D01*
X0Y90D02*
X7Y90D01*
X2826Y90D02*
X2833Y90D01*
X0Y89D02*
X7Y89D01*
X2826Y89D02*
X2833Y89D01*
X0Y88D02*
X7Y88D01*
X2826Y88D02*
X2833Y88D01*
X0Y87D02*
X7Y87D01*
X2826Y87D02*
X2833Y87D01*
X0Y86D02*
X7Y86D01*
X2826Y86D02*
X2833Y86D01*
X0Y85D02*
X7Y85D01*
X2826Y85D02*
X2833Y85D01*
X0Y84D02*
X7Y84D01*
X2826Y84D02*
X2833Y84D01*
X0Y83D02*
X7Y83D01*
X2826Y83D02*
X2833Y83D01*
X0Y82D02*
X7Y82D01*
X2826Y82D02*
X2833Y82D01*
X0Y81D02*
X7Y81D01*
X2826Y81D02*
X2833Y81D01*
X0Y80D02*
X7Y80D01*
X2826Y80D02*
X2833Y80D01*
X0Y79D02*
X7Y79D01*
X2826Y79D02*
X2833Y79D01*
X0Y78D02*
X7Y78D01*
X2826Y78D02*
X2833Y78D01*
X0Y77D02*
X7Y77D01*
X2826Y77D02*
X2833Y77D01*
X0Y76D02*
X7Y76D01*
X2826Y76D02*
X2833Y76D01*
X0Y75D02*
X7Y75D01*
X2826Y75D02*
X2833Y75D01*
X0Y74D02*
X7Y74D01*
X2826Y74D02*
X2833Y74D01*
X0Y73D02*
X7Y73D01*
X2826Y73D02*
X2833Y73D01*
X0Y72D02*
X7Y72D01*
X2826Y72D02*
X2833Y72D01*
X0Y71D02*
X7Y71D01*
X2826Y71D02*
X2833Y71D01*
X0Y70D02*
X7Y70D01*
X2826Y70D02*
X2833Y70D01*
X0Y69D02*
X7Y69D01*
X2826Y69D02*
X2833Y69D01*
X0Y68D02*
X7Y68D01*
X2826Y68D02*
X2833Y68D01*
X0Y67D02*
X7Y67D01*
X2826Y67D02*
X2833Y67D01*
X0Y66D02*
X7Y66D01*
X2826Y66D02*
X2833Y66D01*
X0Y65D02*
X7Y65D01*
X2826Y65D02*
X2833Y65D01*
X0Y64D02*
X7Y64D01*
X2826Y64D02*
X2833Y64D01*
X0Y63D02*
X7Y63D01*
X2826Y63D02*
X2833Y63D01*
X0Y62D02*
X7Y62D01*
X2826Y62D02*
X2833Y62D01*
X0Y61D02*
X7Y61D01*
X2826Y61D02*
X2833Y61D01*
X0Y60D02*
X7Y60D01*
X2826Y60D02*
X2833Y60D01*
X0Y59D02*
X7Y59D01*
X2826Y59D02*
X2833Y59D01*
X0Y58D02*
X7Y58D01*
X2826Y58D02*
X2833Y58D01*
X0Y57D02*
X7Y57D01*
X2826Y57D02*
X2833Y57D01*
X0Y56D02*
X7Y56D01*
X2826Y56D02*
X2833Y56D01*
X0Y55D02*
X7Y55D01*
X2826Y55D02*
X2833Y55D01*
X0Y54D02*
X7Y54D01*
X2826Y54D02*
X2833Y54D01*
X0Y53D02*
X7Y53D01*
X2826Y53D02*
X2833Y53D01*
X0Y52D02*
X7Y52D01*
X2826Y52D02*
X2833Y52D01*
X0Y51D02*
X7Y51D01*
X2826Y51D02*
X2833Y51D01*
X0Y50D02*
X7Y50D01*
X2826Y50D02*
X2833Y50D01*
X0Y49D02*
X7Y49D01*
X2826Y49D02*
X2833Y49D01*
X0Y48D02*
X7Y48D01*
X2826Y48D02*
X2833Y48D01*
X0Y47D02*
X7Y47D01*
X2826Y47D02*
X2833Y47D01*
X0Y46D02*
X7Y46D01*
X2826Y46D02*
X2833Y46D01*
X0Y45D02*
X7Y45D01*
X2826Y45D02*
X2833Y45D01*
X0Y44D02*
X7Y44D01*
X2826Y44D02*
X2833Y44D01*
X0Y43D02*
X7Y43D01*
X2826Y43D02*
X2833Y43D01*
X0Y42D02*
X7Y42D01*
X2826Y42D02*
X2833Y42D01*
X0Y41D02*
X7Y41D01*
X2826Y41D02*
X2833Y41D01*
X0Y40D02*
X7Y40D01*
X2826Y40D02*
X2833Y40D01*
X0Y39D02*
X7Y39D01*
X2826Y39D02*
X2833Y39D01*
X0Y38D02*
X7Y38D01*
X2826Y38D02*
X2833Y38D01*
X0Y37D02*
X7Y37D01*
X2826Y37D02*
X2833Y37D01*
X0Y36D02*
X7Y36D01*
X2826Y36D02*
X2833Y36D01*
X0Y35D02*
X7Y35D01*
X2826Y35D02*
X2833Y35D01*
X0Y34D02*
X7Y34D01*
X2826Y34D02*
X2833Y34D01*
X0Y33D02*
X7Y33D01*
X2826Y33D02*
X2833Y33D01*
X0Y32D02*
X7Y32D01*
X2826Y32D02*
X2833Y32D01*
X0Y31D02*
X7Y31D01*
X2826Y31D02*
X2833Y31D01*
X0Y30D02*
X7Y30D01*
X2826Y30D02*
X2833Y30D01*
X0Y29D02*
X7Y29D01*
X2826Y29D02*
X2833Y29D01*
X0Y28D02*
X7Y28D01*
X2826Y28D02*
X2833Y28D01*
X0Y27D02*
X7Y27D01*
X2826Y27D02*
X2833Y27D01*
X0Y26D02*
X7Y26D01*
X2826Y26D02*
X2833Y26D01*
X0Y25D02*
X7Y25D01*
X2826Y25D02*
X2833Y25D01*
X0Y24D02*
X7Y24D01*
X2826Y24D02*
X2833Y24D01*
X0Y23D02*
X7Y23D01*
X2826Y23D02*
X2833Y23D01*
X0Y22D02*
X7Y22D01*
X2826Y22D02*
X2833Y22D01*
X0Y21D02*
X7Y21D01*
X2826Y21D02*
X2833Y21D01*
X0Y20D02*
X7Y20D01*
X2826Y20D02*
X2833Y20D01*
X0Y19D02*
X7Y19D01*
X2826Y19D02*
X2833Y19D01*
X0Y18D02*
X7Y18D01*
X2826Y18D02*
X2833Y18D01*
X0Y17D02*
X7Y17D01*
X2826Y17D02*
X2833Y17D01*
X0Y16D02*
X7Y16D01*
X2826Y16D02*
X2833Y16D01*
X0Y15D02*
X7Y15D01*
X2826Y15D02*
X2833Y15D01*
X0Y14D02*
X7Y14D01*
X2826Y14D02*
X2833Y14D01*
X0Y13D02*
X7Y13D01*
X2826Y13D02*
X2833Y13D01*
X0Y12D02*
X7Y12D01*
X2826Y12D02*
X2833Y12D01*
X0Y11D02*
X7Y11D01*
X2826Y11D02*
X2833Y11D01*
X0Y10D02*
X7Y10D01*
X2826Y10D02*
X2833Y10D01*
X0Y9D02*
X7Y9D01*
X2826Y9D02*
X2833Y9D01*
X0Y8D02*
X2833Y8D01*
X0Y7D02*
X2833Y7D01*
X0Y6D02*
X2833Y6D01*
X0Y5D02*
X2833Y5D01*
X0Y4D02*
X2833Y4D01*
X0Y3D02*
X2833Y3D01*
X0Y2D02*
X2833Y2D01*
X0Y1D02*
X2833Y1D01*
D02*
G04 End of Silk0*
M02*