%TF.GenerationSoftware,Novarm,DipTrace,3.2.0.0*%
%TF.CreationDate,2018-04-07T22:01:08+05:00*%
%FSLAX35Y35*%
%MOMM*%
%TF.FileFunction,Copper,L2,Bot*%
%TF.Part,Single*%
%TA.AperFunction,Nonconductor*%
%ADD13C,1.6*%
%ADD14C,1.9812*%
%ADD15C,1.778*%
%ADD16C,2.032*%
%ADD17C,1.905*%
%ADD18C,0.6096*%
%TA.AperFunction,ComponentPad*%
%ADD19C,3.19999*%
%ADD20C,0.80002*%
%ADD21C,0.9652*%
%ADD22C,0.889*%
%ADD23C,1.016*%
%ADD24C,0.9144*%
G75*
G01*
%LPD*%
D19*
X6625336Y757428D3*
X529336Y5583428D3*
X6625336D3*
X529336Y757428D3*
D20*
X1168400Y4821428D3*
X1418336D3*
D21*
X6371336Y2408428D3*
X2942336Y5456428D3*
X5863336Y2154428D3*
X3196336Y3678428D3*
X5863336Y1392428D3*
X3196336Y884428D3*
X6117336Y2408428D3*
X2942336Y1646428D3*
X2688336Y2154428D3*
X2942336Y4948428D3*
X3196336Y1392428D3*
X2942336Y1900428D3*
X6117336Y3424428D3*
X5863336Y2408428D3*
X3196336D3*
X2942336Y5202428D3*
X1926336Y630428D3*
X3196336Y2916428D3*
Y3424428D3*
Y1646428D3*
X2942336Y2154428D3*
X6371336D3*
X3196336Y1138428D3*
X1418336Y630428D3*
X6117336Y2662428D3*
X2688336Y1138428D3*
X6371336Y2662428D3*
X6117336Y1900428D3*
X6371336Y1392428D3*
X3196336Y3932428D3*
X5863336Y1900428D3*
X2942336Y884428D3*
X5863336Y2662428D3*
X3196336D3*
X6117336Y3932428D3*
X6371336Y1900428D3*
X1672336Y630428D3*
X2942336Y4694428D3*
X6117336Y1392428D3*
X3196336Y2154428D3*
Y3170428D3*
Y4186428D3*
X2942336Y1138428D3*
Y1392428D3*
X2688336Y884428D3*
X6117336Y1646428D3*
X2688336D3*
Y1900428D3*
X3196336D3*
X6117336Y3678428D3*
X2688336Y1392428D3*
X5863336Y1646428D3*
X6117336Y2154428D3*
Y3170428D3*
X6371336Y1646428D3*
D22*
X1037336Y4074414D3*
X1487424Y3424428D3*
Y4074414D3*
X1037336Y2408428D3*
Y3058414D3*
Y3424428D3*
X1487424Y2408428D3*
Y3058414D3*
D23*
X1037336Y1773428D3*
Y1265428D3*
D24*
X3704336Y1646428D3*
Y2408428D3*
Y3932428D3*
Y4186428D3*
X5228336Y2916428D3*
Y4186428D3*
Y1646428D3*
X3704336Y3170428D3*
Y3424428D3*
X5228336Y3170428D3*
X3704336Y3678428D3*
X5228336Y2154428D3*
Y1392428D3*
Y3678428D3*
X3704336Y4694428D3*
Y2916428D3*
Y2154428D3*
Y2662428D3*
X5228336Y1138428D3*
Y1900428D3*
Y2408428D3*
X3704336Y1392428D3*
X5228336Y4440428D3*
Y2662428D3*
X3704336Y4440428D3*
X5228336Y4694428D3*
Y3424428D3*
Y3932428D3*
X3704336Y1900428D3*
Y1138428D3*
D13*
X1417320Y4820920D3*
X1168400D3*
D14*
X6116320Y3931920D3*
Y3677920D3*
Y3423920D3*
Y3169920D3*
X5862320Y1645920D3*
Y1391920D3*
X3195320Y4185920D3*
X1417320Y629920D3*
X1671320D3*
X1925320D3*
D15*
X3703320Y4693920D3*
Y4439920D3*
Y4185920D3*
Y3931920D3*
Y3677920D3*
Y3423920D3*
Y3169920D3*
Y2915920D3*
Y2661920D3*
Y2407920D3*
Y2153920D3*
Y1899920D3*
Y1645920D3*
Y1391920D3*
Y1137920D3*
X5227320Y4693920D3*
Y4439920D3*
Y4185920D3*
Y3931920D3*
Y3677920D3*
Y3423920D3*
Y3169920D3*
Y2915920D3*
Y2661920D3*
Y2407920D3*
Y2153920D3*
Y1899920D3*
Y1645920D3*
Y1391920D3*
Y1137920D3*
D16*
X1036320Y1772920D3*
Y1264920D3*
D14*
X3195320Y3931920D3*
Y3677920D3*
Y3423920D3*
Y3169920D3*
Y2915920D3*
Y2661920D3*
Y2407920D3*
X6116320Y2661920D3*
Y2407920D3*
Y2153920D3*
Y1899920D3*
Y1645920D3*
Y1391920D3*
X5862320Y2661920D3*
Y2407920D3*
Y2153920D3*
Y1899920D3*
X6370320Y2661920D3*
Y2407920D3*
Y2153920D3*
Y1899920D3*
Y1645920D3*
Y1391920D3*
X2687320Y2153920D3*
Y1899920D3*
Y1645920D3*
Y1391920D3*
Y1137920D3*
Y883920D3*
X2941320Y2153920D3*
Y1899920D3*
Y1645920D3*
Y1391920D3*
Y1137920D3*
Y883920D3*
X3195320Y2153920D3*
Y1899920D3*
Y1645920D3*
Y1391920D3*
Y1137920D3*
Y883920D3*
D17*
X1488440Y3058160D3*
Y2407920D3*
X1036320Y3058160D3*
Y2407920D3*
X1488440Y4074160D3*
Y3423920D3*
X1036320Y4074160D3*
Y3423920D3*
D14*
X2941320Y4693920D3*
Y4947920D3*
Y5201920D3*
Y5455920D3*
G36*
X1497320Y4740920D2*
X1337320D1*
Y4900920D1*
X1497320D1*
Y4740920D1*
G37*
G36*
X2823200Y3328920D2*
X2663200D1*
Y3518920D1*
X2823200D1*
Y3328920D1*
G37*
G36*
X2513320D2*
X2353320D1*
Y3518920D1*
X2513320D1*
Y3328920D1*
G37*
G36*
X3792184Y4605020D2*
X3614456D1*
Y4782820D1*
X3792184D1*
Y4605020D1*
G37*
G36*
X1137902Y1671320D2*
X934738D1*
Y1874520D1*
X1137902D1*
Y1671320D1*
G37*
X1488440Y4003040D2*
D18*
Y3497580D1*
X1036320Y4003040D2*
Y3497580D1*
Y2481580D2*
Y2987040D1*
X1488440Y2481580D2*
Y2987040D1*
X1036320Y3352800D2*
Y3131820D1*
X1041400Y2159000D2*
X1038860Y2336800D1*
X2611120Y2153920D2*
X1041400Y2159000D1*
X1165860Y4188460D2*
X1092200Y4122420D1*
X1168400Y4752340D2*
X1165860Y4188460D1*
X2184400Y4312920D2*
Y3421380D1*
X1676400Y4820920D2*
X2184400Y4312920D1*
Y3421380D2*
X2369820Y3423920D1*
X1485900Y4820920D2*
X1676400D1*
X3119120Y3423920D2*
X2809240D1*
X1678940Y3175000D2*
X3119120Y3169920D1*
X1678940Y3175000D2*
X1546860Y3291840D1*
X1516380Y3357880D1*
X3119120Y2407920D2*
X1559560D1*
X3629660D2*
X3274060D1*
X3629660Y2661920D2*
X3274060D1*
Y2915920D2*
X3629660D1*
X3274060Y3169920D2*
X3629660D1*
Y3423920D2*
X3274060D1*
X3629660Y3677920D2*
X3274060D1*
X3629660Y3931920D2*
X3274060D1*
X3629660Y4693920D2*
X3020060D1*
X2819400Y4437380D2*
X3629660Y4439920D1*
X2684780Y4569460D2*
X2819400Y4437380D1*
X2684780Y4820920D2*
Y4569460D1*
X2872740Y4914900D2*
X2684780Y4820920D1*
X2562860Y5201920D2*
X2865120D1*
X2560320Y4185920D2*
X2562860Y5201920D1*
X2819400Y3934460D2*
X2560320Y4185920D1*
X3119120Y3931920D2*
X2819400Y3934460D1*
X2562860Y5201920D2*
X1422400D1*
X1165860Y4947920D2*
X1168400Y4889500D1*
X1422400Y5201920D2*
X1165860Y4947920D1*
X4970780Y3934460D2*
X3705860Y5458460D1*
X3020060Y5455920D1*
X5153660Y3931920D2*
X4970780Y3934460D1*
X5786120Y2661920D2*
X5303520D1*
X5786120Y2407920D2*
X5303520D1*
X5229860Y886460D2*
X3274060Y883920D1*
X5229860Y1064260D2*
Y886460D1*
X5786120Y2153920D2*
X5303520D1*
X5786120Y1899920D2*
X5303520D1*
X5735320Y3931920D2*
X5483860Y3680460D1*
X5303520Y3677920D1*
X6040120Y3931920D2*
X5735320D1*
Y3680460D2*
X5483860Y3426460D1*
X5303520D1*
X6040120Y3677920D2*
X5735320Y3680460D1*
Y3426460D2*
X5483860Y3169920D1*
X5303520D1*
X6040120Y3423920D2*
X5735320Y3426460D1*
Y3169920D2*
X5483860Y2915920D1*
X5303520D1*
X6040120Y3169920D2*
X5735320D1*
X6372860Y3042920D2*
Y4058920D1*
X6240780Y4185920D1*
X5483860Y3931920D2*
X5303520D1*
X5735320Y4185920D2*
X5483860Y3931920D1*
X6116320Y2788920D2*
X6372860Y3042920D1*
X6240780Y4185920D2*
X5735320D1*
X6116320Y2738120D2*
Y2788920D1*
X6499860Y2915920D2*
Y4185920D1*
X6372860Y2788920D2*
X6499860Y2915920D1*
Y4185920D2*
X6240780Y4437380D1*
X5303520Y4439920D1*
X6372860Y2738120D2*
Y2788920D1*
X5786120Y1391920D2*
X5303520D1*
X5786120Y1645920D2*
X5303520D1*
X3629660Y4185920D2*
X3274060D1*
X1041400Y2159000D2*
X1038860Y1851660D1*
X1422400Y1267460D2*
X1117600Y1264920D1*
X1676400Y881380D2*
X1422400Y1267460D1*
X1673860Y706120D2*
X1676400Y881380D1*
X2938780Y632460D2*
X2004060Y629920D1*
X2941320Y807720D2*
X2938780Y632460D1*
X5986780Y629920D2*
X6624320Y1267460D1*
X6626860Y4310380D2*
X6245860Y4691380D1*
X5303520Y4693920D1*
X6624320Y1267460D2*
X6626860Y4310380D1*
X2938780Y632460D2*
X5986780Y629920D1*
X2941320Y1976120D2*
Y2077720D1*
Y1823720D2*
Y1722120D1*
Y1569720D2*
Y1468120D1*
X2687320Y1315720D2*
Y1214120D1*
Y1468120D2*
Y1569720D1*
Y1722120D2*
Y1823720D1*
Y1976120D2*
Y2077720D1*
X3274060Y1137920D2*
X3629660D1*
Y1391920D2*
X3274060D1*
X3629660Y1645920D2*
X3274060D1*
X3629660Y1899920D2*
X3274060D1*
X3629660Y2153920D2*
X3274060D1*
X2941320Y1315720D2*
Y1214120D1*
X6116320Y1823720D2*
Y1722120D1*
Y1976120D2*
Y2077720D1*
Y2230120D2*
Y2331720D1*
Y2484120D2*
Y2585720D1*
X6370320Y2484120D2*
Y2585720D1*
Y2331720D2*
Y2230120D1*
Y2077720D2*
Y1976120D1*
Y1823720D2*
Y1722120D1*
X2941320Y1061720D2*
Y960120D1*
X2687320Y1061720D2*
Y960120D1*
X6116320Y1569720D2*
Y1468120D1*
X6370320Y1569720D2*
Y1468120D1*
M02*
