M48
INCH
T01C0.0315
T02C0.035
T03C0.036
T04C0.038
T05C0.04
T06C0.126
%
T01
X+004600Y+018982
X+005584Y+018982
T02
X+004084Y+016041
X+005856Y+016041
X+005856Y+013482
X+005856Y+012041
X+004084Y+012041
X+004084Y+013482
X+004084Y+009482
X+005856Y+009482
T03
X+014584Y+006482
X+014584Y+005482
X+014584Y+004482
X+014584Y+007482
X+014584Y+008482
X+014584Y+009482
X+014584Y+010482
X+014584Y+011482
X+014584Y+012482
X+014584Y+013482
X+014584Y+014482
X+014584Y+015482
X+014584Y+016482
X+014584Y+017482
X+014584Y+018482
X+020584Y+018482
X+020584Y+017482
X+020584Y+016482
X+020584Y+015482
X+020584Y+014482
X+020584Y+013482
X+020584Y+012482
X+020584Y+011482
X+020584Y+010482
X+020584Y+009482
X+020584Y+008482
X+020584Y+007482
X+020584Y+006482
X+020584Y+005482
X+020584Y+004482
T04
X+025084Y+009482
X+024084Y+009482
X+023084Y+009482
X+023084Y+008482
X+023084Y+007482
X+023084Y+006482
X+023084Y+005482
X+024084Y+005482
X+024084Y+006482
X+024084Y+007482
X+025084Y+007482
X+025084Y+006482
X+025084Y+005482
X+025084Y+008482
X+024084Y+008482
X+024084Y+010482
X+025084Y+010482
X+023084Y+010482
X+024084Y+012482
X+024084Y+013482
X+024084Y+014482
X+024084Y+015482
X+012584Y+015482
X+012584Y+014482
X+012584Y+013482
X+012584Y+012482
X+012584Y+011482
X+012584Y+010482
X+012584Y+009482
X+012584Y+008482
X+011584Y+008482
X+010584Y+008482
X+010584Y+007482
X+010584Y+006482
X+010584Y+005482
X+010584Y+004482
X+010584Y+003482
X+011584Y+003482
X+012584Y+003482
X+012584Y+004482
X+011584Y+004482
X+011584Y+005482
X+012584Y+005482
X+012584Y+006482
X+011584Y+006482
X+011584Y+007482
X+012584Y+007482
X+007584Y+002482
X+006584Y+002482
X+005584Y+002482
X+012584Y+016482
X+011584Y+018482
X+011584Y+019482
X+011584Y+020482
X+011584Y+021482
T05
X+004084Y+006982
X+004084Y+004982
T06
X+026084Y+002982
X+026084Y+021982
X+002084Y+021982
X+002084Y+002982
T00
M30
